<?xml version="1.0" encoding="UTF-8" standalone="no"?>
<svg
   xmlns:dc="http://purl.org/dc/elements/1.1/"
   xmlns:cc="http://creativecommons.org/ns#"
   xmlns:rdf="http://www.w3.org/1999/02/22-rdf-syntax-ns#"
   xmlns:svg="http://www.w3.org/2000/svg"
   xmlns="http://www.w3.org/2000/svg"
   xmlns:sodipodi="http://sodipodi.sourceforge.net/DTD/sodipodi-0.dtd"
   xmlns:inkscape="http://www.inkscape.org/namespaces/inkscape"
   width="186.19205mm"
   height="85.841393mm"
   viewBox="0 0 186.19205 85.84139"
   version="1.1"
   id="svg8"
   inkscape:version="1.0.1 (3bc2e813f5, 2020-09-07)"
   sodipodi:docname="elbow_theory.svg">
  <defs
     id="defs2">
    <clipPath
       clipPathUnits="userSpaceOnUse"
       id="clipPath853">
      <path
         d="M 103.32,32.076 H 394.49455 V 256.608 H 103.32 Z"
         id="path851" />
    </clipPath>
    <clipPath
       clipPathUnits="userSpaceOnUse"
       id="clipPath863">
      <path
         d="m -3.5,-3.5 h 7 v 7 h -7 z"
         id="path861" />
    </clipPath>
    <clipPath
       clipPathUnits="userSpaceOnUse"
       id="clipPath875">
      <path
         d="m -3.5,-3.5 h 7 v 7 h -7 z"
         id="path873" />
    </clipPath>
    <clipPath
       clipPathUnits="userSpaceOnUse"
       id="clipPath887">
      <path
         d="m -3.5,-3.5 h 7 v 7 h -7 z"
         id="path885" />
    </clipPath>
    <clipPath
       clipPathUnits="userSpaceOnUse"
       id="clipPath899">
      <path
         d="m -3.5,-3.5 h 7 v 7 h -7 z"
         id="path897" />
    </clipPath>
    <clipPath
       clipPathUnits="userSpaceOnUse"
       id="clipPath911">
      <path
         d="m -3.5,-3.5 h 7 v 7 h -7 z"
         id="path909" />
    </clipPath>
    <clipPath
       clipPathUnits="userSpaceOnUse"
       id="clipPath923">
      <path
         d="m -3.5,-3.5 h 7 v 7 h -7 z"
         id="path921" />
    </clipPath>
    <clipPath
       clipPathUnits="userSpaceOnUse"
       id="clipPath935">
      <path
         d="m -3.5,-3.5 h 7 v 7 h -7 z"
         id="path933" />
    </clipPath>
    <clipPath
       clipPathUnits="userSpaceOnUse"
       id="clipPath947">
      <path
         d="m -3.5,-3.5 h 7 v 7 h -7 z"
         id="path945" />
    </clipPath>
    <clipPath
       clipPathUnits="userSpaceOnUse"
       id="clipPath959">
      <path
         d="m -3.5,-3.5 h 7 v 7 h -7 z"
         id="path957" />
    </clipPath>
    <clipPath
       clipPathUnits="userSpaceOnUse"
       id="clipPath971">
      <path
         d="m -3.5,-3.5 h 7 v 7 h -7 z"
         id="path969" />
    </clipPath>
    <clipPath
       clipPathUnits="userSpaceOnUse"
       id="clipPath983">
      <path
         d="m -3.5,-3.5 h 7 v 7 h -7 z"
         id="path981" />
    </clipPath>
    <clipPath
       clipPathUnits="userSpaceOnUse"
       id="clipPath995">
      <path
         d="m -3.5,-3.5 h 7 v 7 h -7 z"
         id="path993" />
    </clipPath>
    <clipPath
       clipPathUnits="userSpaceOnUse"
       id="clipPath1007">
      <path
         d="m -3.5,-3.5 h 7 v 7 h -7 z"
         id="path1005" />
    </clipPath>
    <clipPath
       clipPathUnits="userSpaceOnUse"
       id="clipPath1019">
      <path
         d="m -3.5,-3.5 h 7 v 7 h -7 z"
         id="path1017" />
    </clipPath>
    <clipPath
       clipPathUnits="userSpaceOnUse"
       id="clipPath1031">
      <path
         d="m -3.5,-3.5 h 7 v 7 h -7 z"
         id="path1029" />
    </clipPath>
    <clipPath
       clipPathUnits="userSpaceOnUse"
       id="clipPath1043">
      <path
         d="m -3.5,-3.5 h 7 v 7 h -7 z"
         id="path1041" />
    </clipPath>
    <clipPath
       clipPathUnits="userSpaceOnUse"
       id="clipPath1055">
      <path
         d="m -3.5,-3.5 h 7 v 7 h -7 z"
         id="path1053" />
    </clipPath>
    <clipPath
       clipPathUnits="userSpaceOnUse"
       id="clipPath1065">
      <path
         d="M 103.32,32.076 H 394.49455 V 256.608 H 103.32 Z"
         id="path1063" />
    </clipPath>
    <clipPath
       clipPathUnits="userSpaceOnUse"
       id="clipPath1083">
      <path
         d="M 103.32,32.076 H 394.49455 V 256.608 H 103.32 Z"
         id="path1081" />
    </clipPath>
    <clipPath
       clipPathUnits="userSpaceOnUse"
       id="clipPath1101">
      <path
         d="M 103.32,32.076 H 394.49455 V 256.608 H 103.32 Z"
         id="path1099" />
    </clipPath>
    <clipPath
       clipPathUnits="userSpaceOnUse"
       id="clipPath1119">
      <path
         d="M 103.32,32.076 H 394.49455 V 256.608 H 103.32 Z"
         id="path1117" />
    </clipPath>
    <clipPath
       clipPathUnits="userSpaceOnUse"
       id="clipPath1137">
      <path
         d="M 103.32,32.076 H 394.49455 V 256.608 H 103.32 Z"
         id="path1135" />
    </clipPath>
    <clipPath
       clipPathUnits="userSpaceOnUse"
       id="clipPath1155">
      <path
         d="M 103.32,32.076 H 394.49455 V 256.608 H 103.32 Z"
         id="path1153" />
    </clipPath>
    <clipPath
       clipPathUnits="userSpaceOnUse"
       id="clipPath1177">
      <path
         d="M 103.32,32.076 H 394.49455 V 256.608 H 103.32 Z"
         id="path1175" />
    </clipPath>
    <clipPath
       clipPathUnits="userSpaceOnUse"
       id="clipPath1195">
      <path
         d="M 103.32,32.076 H 394.49455 V 256.608 H 103.32 Z"
         id="path1193" />
    </clipPath>
    <clipPath
       clipPathUnits="userSpaceOnUse"
       id="clipPath1213">
      <path
         d="M 103.32,32.076 H 394.49455 V 256.608 H 103.32 Z"
         id="path1211" />
    </clipPath>
    <clipPath
       clipPathUnits="userSpaceOnUse"
       id="clipPath1231">
      <path
         d="M 103.32,32.076 H 394.49455 V 256.608 H 103.32 Z"
         id="path1229" />
    </clipPath>
    <clipPath
       clipPathUnits="userSpaceOnUse"
       id="clipPath1249">
      <path
         d="M 103.32,32.076 H 394.49455 V 256.608 H 103.32 Z"
         id="path1247" />
    </clipPath>
    <clipPath
       clipPathUnits="userSpaceOnUse"
       id="clipPath1267">
      <path
         d="M 103.32,32.076 H 394.49455 V 256.608 H 103.32 Z"
         id="path1265" />
    </clipPath>
    <clipPath
       clipPathUnits="userSpaceOnUse"
       id="clipPath1299">
      <path
         d="M 452.72945,32.076 H 743.904 V 256.608 H 452.72945 Z"
         id="path1297" />
    </clipPath>
    <clipPath
       clipPathUnits="userSpaceOnUse"
       id="clipPath1317">
      <path
         d="M 452.72945,32.076 H 743.904 V 256.608 H 452.72945 Z"
         id="path1315" />
    </clipPath>
    <clipPath
       clipPathUnits="userSpaceOnUse"
       id="clipPath1335">
      <path
         d="M 452.72945,32.076 H 743.904 V 256.608 H 452.72945 Z"
         id="path1333" />
    </clipPath>
    <clipPath
       clipPathUnits="userSpaceOnUse"
       id="clipPath1353">
      <path
         d="M 452.72945,32.076 H 743.904 V 256.608 H 452.72945 Z"
         id="path1351" />
    </clipPath>
    <clipPath
       clipPathUnits="userSpaceOnUse"
       id="clipPath1371">
      <path
         d="M 452.72945,32.076 H 743.904 V 256.608 H 452.72945 Z"
         id="path1369" />
    </clipPath>
    <clipPath
       clipPathUnits="userSpaceOnUse"
       id="clipPath1389">
      <path
         d="M 452.72945,32.076 H 743.904 V 256.608 H 452.72945 Z"
         id="path1387" />
    </clipPath>
    <clipPath
       clipPathUnits="userSpaceOnUse"
       id="clipPath1407">
      <path
         d="M 452.72945,32.076 H 743.904 V 256.608 H 452.72945 Z"
         id="path1405" />
    </clipPath>
    <clipPath
       clipPathUnits="userSpaceOnUse"
       id="clipPath1425">
      <path
         d="M 452.72945,32.076 H 743.904 V 256.608 H 452.72945 Z"
         id="path1423" />
    </clipPath>
    <clipPath
       clipPathUnits="userSpaceOnUse"
       id="clipPath1443">
      <path
         d="M 452.72945,32.076 H 743.904 V 256.608 H 452.72945 Z"
         id="path1441" />
    </clipPath>
    <clipPath
       clipPathUnits="userSpaceOnUse"
       id="clipPath1465">
      <path
         d="M 452.72945,32.076 H 743.904 V 256.608 H 452.72945 Z"
         id="path1463" />
    </clipPath>
    <clipPath
       clipPathUnits="userSpaceOnUse"
       id="clipPath1483">
      <path
         d="M 452.72945,32.076 H 743.904 V 256.608 H 452.72945 Z"
         id="path1481" />
    </clipPath>
    <clipPath
       clipPathUnits="userSpaceOnUse"
       id="clipPath1501">
      <path
         d="M 452.72945,32.076 H 743.904 V 256.608 H 452.72945 Z"
         id="path1499" />
    </clipPath>
    <clipPath
       clipPathUnits="userSpaceOnUse"
       id="clipPath1519">
      <path
         d="M 452.72945,32.076 H 743.904 V 256.608 H 452.72945 Z"
         id="path1517" />
    </clipPath>
    <clipPath
       clipPathUnits="userSpaceOnUse"
       id="clipPath1537">
      <path
         d="M 452.72945,32.076 H 743.904 V 256.608 H 452.72945 Z"
         id="path1535" />
    </clipPath>
    <clipPath
       clipPathUnits="userSpaceOnUse"
       id="clipPath1555">
      <path
         d="M 452.72945,32.076 H 743.904 V 256.608 H 452.72945 Z"
         id="path1553" />
    </clipPath>
    <clipPath
       clipPathUnits="userSpaceOnUse"
       id="clipPath1573">
      <path
         d="M 452.72945,32.076 H 743.904 V 256.608 H 452.72945 Z"
         id="path1571" />
    </clipPath>
    <clipPath
       clipPathUnits="userSpaceOnUse"
       id="clipPath1595">
      <path
         d="M 452.72945,32.076 H 743.904 V 256.608 H 452.72945 Z"
         id="path1593" />
    </clipPath>
    <clipPath
       clipPathUnits="userSpaceOnUse"
       id="clipPath1607">
      <path
         d="m -3.5,-3.5 h 7 v 7 h -7 z"
         id="path1605" />
    </clipPath>
    <clipPath
       clipPathUnits="userSpaceOnUse"
       id="clipPath1619">
      <path
         d="m -3.5,-3.5 h 7 v 7 h -7 z"
         id="path1617" />
    </clipPath>
    <clipPath
       clipPathUnits="userSpaceOnUse"
       id="clipPath1631">
      <path
         d="m -3.5,-3.5 h 7 v 7 h -7 z"
         id="path1629" />
    </clipPath>
    <clipPath
       clipPathUnits="userSpaceOnUse"
       id="clipPath1643">
      <path
         d="m -3.5,-3.5 h 7 v 7 h -7 z"
         id="path1641" />
    </clipPath>
    <clipPath
       clipPathUnits="userSpaceOnUse"
       id="clipPath1655">
      <path
         d="m -3.5,-3.5 h 7 v 7 h -7 z"
         id="path1653" />
    </clipPath>
    <clipPath
       clipPathUnits="userSpaceOnUse"
       id="clipPath1667">
      <path
         d="m -3.5,-3.5 h 7 v 7 h -7 z"
         id="path1665" />
    </clipPath>
    <clipPath
       clipPathUnits="userSpaceOnUse"
       id="clipPath1679">
      <path
         d="m -3.5,-3.5 h 7 v 7 h -7 z"
         id="path1677" />
    </clipPath>
    <clipPath
       clipPathUnits="userSpaceOnUse"
       id="clipPath1691">
      <path
         d="m -3.5,-3.5 h 7 v 7 h -7 z"
         id="path1689" />
    </clipPath>
    <clipPath
       clipPathUnits="userSpaceOnUse"
       id="clipPath1703">
      <path
         d="m -3.5,-3.5 h 7 v 7 h -7 z"
         id="path1701" />
    </clipPath>
    <clipPath
       clipPathUnits="userSpaceOnUse"
       id="clipPath2237">
      <path
         d="m 79.56,330.084 h 493.272 v 217.98 H 79.56 Z"
         id="path2235" />
    </clipPath>
    <clipPath
       clipPathUnits="userSpaceOnUse"
       id="clipPath2249">
      <path
         d="m -3.5,-3.5 h 7 v 7 h -7 z"
         id="path2247" />
    </clipPath>
    <clipPath
       clipPathUnits="userSpaceOnUse"
       id="clipPath2261">
      <path
         d="m -3.5,-3.5 h 7 v 7 h -7 z"
         id="path2259" />
    </clipPath>
    <clipPath
       clipPathUnits="userSpaceOnUse"
       id="clipPath2273">
      <path
         d="m -3.5,-3.5 h 7 v 7 h -7 z"
         id="path2271" />
    </clipPath>
    <clipPath
       clipPathUnits="userSpaceOnUse"
       id="clipPath2285">
      <path
         d="m -3.5,-3.5 h 7 v 7 h -7 z"
         id="path2283" />
    </clipPath>
    <clipPath
       clipPathUnits="userSpaceOnUse"
       id="clipPath2297">
      <path
         d="m -3.5,-3.5 h 7 v 7 h -7 z"
         id="path2295" />
    </clipPath>
    <clipPath
       clipPathUnits="userSpaceOnUse"
       id="clipPath2309">
      <path
         d="m -3.5,-3.5 h 7 v 7 h -7 z"
         id="path2307" />
    </clipPath>
    <clipPath
       clipPathUnits="userSpaceOnUse"
       id="clipPath2321">
      <path
         d="m -3.5,-3.5 h 7 v 7 h -7 z"
         id="path2319" />
    </clipPath>
    <clipPath
       clipPathUnits="userSpaceOnUse"
       id="clipPath2333">
      <path
         d="m -3.5,-3.5 h 7 v 7 h -7 z"
         id="path2331" />
    </clipPath>
    <clipPath
       clipPathUnits="userSpaceOnUse"
       id="clipPath2345">
      <path
         d="m -3.5,-3.5 h 7 v 7 h -7 z"
         id="path2343" />
    </clipPath>
    <clipPath
       clipPathUnits="userSpaceOnUse"
       id="clipPath2357">
      <path
         d="m -3.5,-3.5 h 7 v 7 h -7 z"
         id="path2355" />
    </clipPath>
    <clipPath
       clipPathUnits="userSpaceOnUse"
       id="clipPath2367">
      <path
         d="m 79.56,330.084 h 493.272 v 217.98 H 79.56 Z"
         id="path2365" />
    </clipPath>
    <clipPath
       clipPathUnits="userSpaceOnUse"
       id="clipPath2377">
      <path
         d="m 79.56,330.084 h 493.272 v 217.98 H 79.56 Z"
         id="path2375" />
    </clipPath>
    <clipPath
       clipPathUnits="userSpaceOnUse"
       id="clipPath2387">
      <path
         d="m 79.56,330.084 h 493.272 v 217.98 H 79.56 Z"
         id="path2385" />
    </clipPath>
    <clipPath
       clipPathUnits="userSpaceOnUse"
       id="clipPath2499">
      <path
         d="m 79.56,68.508 h 493.272 v 217.98 H 79.56 Z"
         id="path2497" />
    </clipPath>
    <clipPath
       clipPathUnits="userSpaceOnUse"
       id="clipPath2511">
      <path
         d="m -3.5,-3.5 h 7 v 7 h -7 z"
         id="path2509" />
    </clipPath>
    <clipPath
       clipPathUnits="userSpaceOnUse"
       id="clipPath2523">
      <path
         d="m -3.5,-3.5 h 7 v 7 h -7 z"
         id="path2521" />
    </clipPath>
    <clipPath
       clipPathUnits="userSpaceOnUse"
       id="clipPath2535">
      <path
         d="m -3.5,-3.5 h 7 v 7 h -7 z"
         id="path2533" />
    </clipPath>
    <clipPath
       clipPathUnits="userSpaceOnUse"
       id="clipPath2547">
      <path
         d="m -3.5,-3.5 h 7 v 7 h -7 z"
         id="path2545" />
    </clipPath>
    <clipPath
       clipPathUnits="userSpaceOnUse"
       id="clipPath2559">
      <path
         d="m -3.5,-3.5 h 7 v 7 h -7 z"
         id="path2557" />
    </clipPath>
    <clipPath
       clipPathUnits="userSpaceOnUse"
       id="clipPath2571">
      <path
         d="m -3.5,-3.5 h 7 v 7 h -7 z"
         id="path2569" />
    </clipPath>
    <clipPath
       clipPathUnits="userSpaceOnUse"
       id="clipPath2583">
      <path
         d="m -3.5,-3.5 h 7 v 7 h -7 z"
         id="path2581" />
    </clipPath>
    <clipPath
       clipPathUnits="userSpaceOnUse"
       id="clipPath2595">
      <path
         d="m -3.5,-3.5 h 7 v 7 h -7 z"
         id="path2593" />
    </clipPath>
    <clipPath
       clipPathUnits="userSpaceOnUse"
       id="clipPath2607">
      <path
         d="m -3.5,-3.5 h 7 v 7 h -7 z"
         id="path2605" />
    </clipPath>
    <clipPath
       clipPathUnits="userSpaceOnUse"
       id="clipPath2617">
      <path
         d="m 79.56,68.508 h 493.272 v 217.98 H 79.56 Z"
         id="path2615" />
    </clipPath>
    <clipPath
       clipPathUnits="userSpaceOnUse"
       id="clipPath2627">
      <path
         d="m 79.56,68.508 h 493.272 v 217.98 H 79.56 Z"
         id="path2625" />
    </clipPath>
    <clipPath
       clipPathUnits="userSpaceOnUse"
       id="clipPath2637">
      <path
         d="m 79.56,68.508 h 493.272 v 217.98 H 79.56 Z"
         id="path2635" />
    </clipPath>
  </defs>
  <sodipodi:namedview
     id="base"
     pagecolor="#ffffff"
     bordercolor="#666666"
     borderopacity="1.0"
     inkscape:pageopacity="0.0"
     inkscape:pageshadow="2"
     inkscape:zoom="1.2141632"
     inkscape:cx="372.35159"
     inkscape:cy="239.91787"
     inkscape:document-units="mm"
     inkscape:current-layer="g2171"
     inkscape:document-rotation="0"
     showgrid="false"
     fit-margin-top="0"
     fit-margin-left="0"
     fit-margin-right="0"
     fit-margin-bottom="0"
     inkscape:window-width="1920"
     inkscape:window-height="1138"
     inkscape:window-x="1072"
     inkscape:window-y="-8"
     inkscape:window-maximized="1" />
  <metadata
     id="metadata5">
    <rdf:RDF>
      <cc:Work
         rdf:about="">
        <dc:format>image/svg+xml</dc:format>
        <dc:type
           rdf:resource="http://purl.org/dc/dcmitype/StillImage" />
        <dc:title></dc:title>
      </cc:Work>
    </rdf:RDF>
  </metadata>
  <g
     inkscape:label="Ebene 1"
     inkscape:groupmode="layer"
     id="layer1"
     transform="translate(468.52518,-56.682873)">
    <g
       id="g2171"
       inkscape:label="control_chart_theory"
       transform="matrix(0.35277777,0,0,-0.35277777,-484.55663,250.16878)">
      <path
         d="m 79.56,330.084 h 493.272 v 217.98 H 79.56 Z"
         style="fill:#ffffff;fill-opacity:1;fill-rule:nonzero;stroke:none"
         id="path2175" />
      <path
         d="m 101.98146,330.084 v -3.5"
         style="fill:#000000;fill-opacity:1;fill-rule:nonzero;stroke:#000000;stroke-width:0.8;stroke-linecap:butt;stroke-linejoin:round;stroke-miterlimit:10;stroke-dasharray:none;stroke-opacity:1"
         id="path2177" />
      <path
         d="m 201.63236,330.084 v -3.5"
         style="fill:#000000;fill-opacity:1;fill-rule:nonzero;stroke:#000000;stroke-width:0.8;stroke-linecap:butt;stroke-linejoin:round;stroke-miterlimit:10;stroke-dasharray:none;stroke-opacity:1"
         id="path2179" />
      <path
         d="m 301.28327,330.084 v -3.5"
         style="fill:#000000;fill-opacity:1;fill-rule:nonzero;stroke:#000000;stroke-width:0.8;stroke-linecap:butt;stroke-linejoin:round;stroke-miterlimit:10;stroke-dasharray:none;stroke-opacity:1"
         id="path2181" />
      <path
         d="m 400.93418,330.084 v -3.5"
         style="fill:#000000;fill-opacity:1;fill-rule:nonzero;stroke:#000000;stroke-width:0.8;stroke-linecap:butt;stroke-linejoin:round;stroke-miterlimit:10;stroke-dasharray:none;stroke-opacity:1"
         id="path2183" />
      <path
         d="m 500.58509,330.084 v -3.5"
         style="fill:#000000;fill-opacity:1;fill-rule:nonzero;stroke:#000000;stroke-width:0.8;stroke-linecap:butt;stroke-linejoin:round;stroke-miterlimit:10;stroke-dasharray:none;stroke-opacity:1"
         id="path2185" />
      <path
         d="m 79.56,347.13186 h -3.5"
         style="fill:#000000;fill-opacity:1;fill-rule:nonzero;stroke:#000000;stroke-width:0.8;stroke-linecap:butt;stroke-linejoin:round;stroke-miterlimit:10;stroke-dasharray:none;stroke-opacity:1"
         id="path2191" />
      <text
         transform="matrix(1,0,0,-1,66.200625,343.33499)"
         style="font-variant:normal;font-weight:normal;font-size:10px;font-family:'DejaVu Sans';-inkscape-font-specification:DejaVuSans;writing-mode:lr-tb;fill:#000000;fill-opacity:1;fill-rule:nonzero;stroke:none"
         id="text2195"><tspan
           x="0"
           y="0"
           id="tspan2193">6</tspan></text>
      <path
         d="m 79.56,384.68899 h -3.5"
         style="fill:#000000;fill-opacity:1;fill-rule:nonzero;stroke:#000000;stroke-width:0.8;stroke-linecap:butt;stroke-linejoin:round;stroke-miterlimit:10;stroke-dasharray:none;stroke-opacity:1"
         id="path2197" />
      <text
         transform="matrix(1,0,0,-1,66.200625,380.89211)"
         style="font-variant:normal;font-weight:normal;font-size:10px;font-family:'DejaVu Sans';-inkscape-font-specification:DejaVuSans;writing-mode:lr-tb;fill:#000000;fill-opacity:1;fill-rule:nonzero;stroke:none"
         id="text2201"><tspan
           x="0"
           y="0"
           id="tspan2199">8</tspan></text>
      <path
         d="m 79.56,422.24611 h -3.5"
         style="fill:#000000;fill-opacity:1;fill-rule:nonzero;stroke:#000000;stroke-width:0.8;stroke-linecap:butt;stroke-linejoin:round;stroke-miterlimit:10;stroke-dasharray:none;stroke-opacity:1"
         id="path2203" />
      <text
         transform="matrix(1,0,0,-1,59.84125,418.44924)"
         style="font-variant:normal;font-weight:normal;font-size:10px;font-family:'DejaVu Sans';-inkscape-font-specification:DejaVuSans;writing-mode:lr-tb;fill:#000000;fill-opacity:1;fill-rule:nonzero;stroke:none"
         id="text2207"><tspan
           x="0 6.3600001"
           y="0"
           sodipodi:role="line"
           id="tspan2205">10</tspan></text>
      <path
         d="m 79.56,459.80324 h -3.5"
         style="fill:#000000;fill-opacity:1;fill-rule:nonzero;stroke:#000000;stroke-width:0.8;stroke-linecap:butt;stroke-linejoin:round;stroke-miterlimit:10;stroke-dasharray:none;stroke-opacity:1"
         id="path2209" />
      <text
         transform="matrix(1,0,0,-1,59.84125,456.00636)"
         style="font-variant:normal;font-weight:normal;font-size:10px;font-family:'DejaVu Sans';-inkscape-font-specification:DejaVuSans;writing-mode:lr-tb;fill:#000000;fill-opacity:1;fill-rule:nonzero;stroke:none"
         id="text2213"><tspan
           x="0 6.3600001"
           y="0"
           sodipodi:role="line"
           id="tspan2211">12</tspan></text>
      <path
         d="m 79.56,497.36036 h -3.5"
         style="fill:#000000;fill-opacity:1;fill-rule:nonzero;stroke:#000000;stroke-width:0.8;stroke-linecap:butt;stroke-linejoin:round;stroke-miterlimit:10;stroke-dasharray:none;stroke-opacity:1"
         id="path2215" />
      <text
         transform="matrix(1,0,0,-1,59.84125,493.56349)"
         style="font-variant:normal;font-weight:normal;font-size:10px;font-family:'DejaVu Sans';-inkscape-font-specification:DejaVuSans;writing-mode:lr-tb;fill:#000000;fill-opacity:1;fill-rule:nonzero;stroke:none"
         id="text2219"><tspan
           x="0 6.3600001"
           y="0"
           sodipodi:role="line"
           id="tspan2217">14</tspan></text>
      <path
         d="m 79.56,534.91749 h -3.5"
         style="fill:#000000;fill-opacity:1;fill-rule:nonzero;stroke:#000000;stroke-width:0.8;stroke-linecap:butt;stroke-linejoin:round;stroke-miterlimit:10;stroke-dasharray:none;stroke-opacity:1"
         id="path2221" />
      <text
         transform="matrix(1,0,0,-1,59.84125,531.12061)"
         style="font-variant:normal;font-weight:normal;font-size:10px;font-family:'DejaVu Sans';-inkscape-font-specification:DejaVuSans;writing-mode:lr-tb;fill:#000000;fill-opacity:1;fill-rule:nonzero;stroke:none"
         id="text2225"><tspan
           x="0 6.3600001"
           y="0"
           sodipodi:role="line"
           id="tspan2223">16</tspan></text>
      <g
         id="g2231">
        <g
           id="g2233"
           clip-path="url(#clipPath2237)">
          <path
             d="m 101.98146,440.90127 49.82545,-23.84797 49.82545,29.51813 49.82546,32.8753 49.82545,-65.99475 49.82546,6.2e-4 49.82545,68.10421 49.82546,-30.48806 49.82545,-46.45474 49.82545,38.0091"
             style="fill:none;stroke:#000000;stroke-width:1.5;stroke-linecap:square;stroke-linejoin:round;stroke-miterlimit:10;stroke-dasharray:none;stroke-opacity:1"
             id="path2239" />
          <g
             id="g2241"
             transform="translate(101.98145,440.90127)">
            <g
               id="g2243">
              <g
                 id="g2245"
                 clip-path="url(#clipPath2249)">
                <path
                   d="m 0,-3 c 0.795609,0 1.55874,0.316099 2.12132,0.87868 C 2.683901,-1.55874 3,-0.795609 3,0 3,0.795609 2.683901,1.55874 2.12132,2.12132 1.55874,2.683901 0.795609,3 0,3 -0.795609,3 -1.55874,2.683901 -2.12132,2.12132 -2.683901,1.55874 -3,0.795609 -3,0 -3,-0.795609 -2.683901,-1.55874 -2.12132,-2.12132 -1.55874,-2.683901 -0.795609,-3 0,-3 Z"
                   style="fill:#000000;fill-opacity:1;fill-rule:nonzero;stroke:#000000;stroke-width:1;stroke-linecap:butt;stroke-linejoin:round;stroke-miterlimit:10;stroke-dasharray:none;stroke-opacity:1"
                   id="path2251" />
              </g>
            </g>
            <g
               id="g2253"
               transform="translate(49.825455,-23.847965)">
              <g
                 id="g2255">
                <g
                   id="g2257"
                   clip-path="url(#clipPath2261)">
                  <path
                     d="m 0,-3 c 0.795609,0 1.55874,0.316099 2.12132,0.87868 C 2.683901,-1.55874 3,-0.795609 3,0 3,0.795609 2.683901,1.55874 2.12132,2.12132 1.55874,2.683901 0.795609,3 0,3 -0.795609,3 -1.55874,2.683901 -2.12132,2.12132 -2.683901,1.55874 -3,0.795609 -3,0 -3,-0.795609 -2.683901,-1.55874 -2.12132,-2.12132 -1.55874,-2.683901 -0.795609,-3 0,-3 Z"
                     style="fill:#000000;fill-opacity:1;fill-rule:nonzero;stroke:#000000;stroke-width:1;stroke-linecap:butt;stroke-linejoin:round;stroke-miterlimit:10;stroke-dasharray:none;stroke-opacity:1"
                     id="path2263" />
                </g>
              </g>
              <g
                 id="g2265"
                 transform="translate(49.825455,29.518129)">
                <g
                   id="g2267">
                  <g
                     id="g2269"
                     clip-path="url(#clipPath2273)">
                    <path
                       d="m 0,-3 c 0.795609,0 1.55874,0.316099 2.12132,0.87868 C 2.683901,-1.55874 3,-0.795609 3,0 3,0.795609 2.683901,1.55874 2.12132,2.12132 1.55874,2.683901 0.795609,3 0,3 -0.795609,3 -1.55874,2.683901 -2.12132,2.12132 -2.683901,1.55874 -3,0.795609 -3,0 -3,-0.795609 -2.683901,-1.55874 -2.12132,-2.12132 -1.55874,-2.683901 -0.795609,-3 0,-3 Z"
                       style="fill:#000000;fill-opacity:1;fill-rule:nonzero;stroke:#000000;stroke-width:1;stroke-linecap:butt;stroke-linejoin:round;stroke-miterlimit:10;stroke-dasharray:none;stroke-opacity:1"
                       id="path2275" />
                  </g>
                </g>
                <g
                   id="g2277"
                   transform="translate(49.825455,32.875303)">
                  <g
                     id="g2279">
                    <g
                       id="g2281"
                       clip-path="url(#clipPath2285)">
                      <path
                         d="m 0,-3 c 0.795609,0 1.55874,0.316099 2.12132,0.87868 C 2.683901,-1.55874 3,-0.795609 3,0 3,0.795609 2.683901,1.55874 2.12132,2.12132 1.55874,2.683901 0.795609,3 0,3 -0.795609,3 -1.55874,2.683901 -2.12132,2.12132 -2.683901,1.55874 -3,0.795609 -3,0 -3,-0.795609 -2.683901,-1.55874 -2.12132,-2.12132 -1.55874,-2.683901 -0.795609,-3 0,-3 Z"
                         style="fill:#000000;fill-opacity:1;fill-rule:nonzero;stroke:#000000;stroke-width:1;stroke-linecap:butt;stroke-linejoin:round;stroke-miterlimit:10;stroke-dasharray:none;stroke-opacity:1"
                         id="path2287" />
                    </g>
                  </g>
                  <g
                     id="g2289"
                     transform="translate(49.825455,-65.99475)">
                    <g
                       id="g2291">
                      <g
                         id="g2293"
                         clip-path="url(#clipPath2297)">
                        <path
                           d="m 0,-3 c 0.795609,0 1.55874,0.316099 2.12132,0.87868 C 2.683901,-1.55874 3,-0.795609 3,0 3,0.795609 2.683901,1.55874 2.12132,2.12132 1.55874,2.683901 0.795609,3 0,3 -0.795609,3 -1.55874,2.683901 -2.12132,2.12132 -2.683901,1.55874 -3,0.795609 -3,0 -3,-0.795609 -2.683901,-1.55874 -2.12132,-2.12132 -1.55874,-2.683901 -0.795609,-3 0,-3 Z"
                           style="fill:#000000;fill-opacity:1;fill-rule:nonzero;stroke:#000000;stroke-width:1;stroke-linecap:butt;stroke-linejoin:round;stroke-miterlimit:10;stroke-dasharray:none;stroke-opacity:1"
                           id="path2299" />
                      </g>
                    </g>
                    <g
                       id="g2301"
                       transform="translate(49.825455,6.166044e-4)">
                      <g
                         id="g2303">
                        <g
                           id="g2305"
                           clip-path="url(#clipPath2309)">
                          <path
                             d="m 0,-3 c 0.795609,0 1.55874,0.316099 2.12132,0.87868 C 2.683901,-1.55874 3,-0.795609 3,0 3,0.795609 2.683901,1.55874 2.12132,2.12132 1.55874,2.683901 0.795609,3 0,3 -0.795609,3 -1.55874,2.683901 -2.12132,2.12132 -2.683901,1.55874 -3,0.795609 -3,0 -3,-0.795609 -2.683901,-1.55874 -2.12132,-2.12132 -1.55874,-2.683901 -0.795609,-3 0,-3 Z"
                             style="fill:#000000;fill-opacity:1;fill-rule:nonzero;stroke:#000000;stroke-width:1;stroke-linecap:butt;stroke-linejoin:round;stroke-miterlimit:10;stroke-dasharray:none;stroke-opacity:1"
                             id="path2311" />
                        </g>
                      </g>
                      <g
                         id="g2313"
                         transform="translate(49.825455,68.104204)">
                        <g
                           id="g2315">
                          <g
                             id="g2317"
                             clip-path="url(#clipPath2321)">
                            <path
                               d="m 0,-3 c 0.795609,0 1.55874,0.316099 2.12132,0.87868 C 2.683901,-1.55874 3,-0.795609 3,0 3,0.795609 2.683901,1.55874 2.12132,2.12132 1.55874,2.683901 0.795609,3 0,3 -0.795609,3 -1.55874,2.683901 -2.12132,2.12132 -2.683901,1.55874 -3,0.795609 -3,0 -3,-0.795609 -2.683901,-1.55874 -2.12132,-2.12132 -1.55874,-2.683901 -0.795609,-3 0,-3 Z"
                               style="fill:#000000;fill-opacity:1;fill-rule:nonzero;stroke:#000000;stroke-width:1;stroke-linecap:butt;stroke-linejoin:round;stroke-miterlimit:10;stroke-dasharray:none;stroke-opacity:1"
                               id="path2323" />
                          </g>
                        </g>
                        <g
                           id="g2325"
                           transform="translate(49.825455,-30.488051)">
                          <g
                             id="g2327">
                            <g
                               id="g2329"
                               clip-path="url(#clipPath2333)">
                              <path
                                 d="m 0,-3 c 0.795609,0 1.55874,0.316099 2.12132,0.87868 C 2.683901,-1.55874 3,-0.795609 3,0 3,0.795609 2.683901,1.55874 2.12132,2.12132 1.55874,2.683901 0.795609,3 0,3 -0.795609,3 -1.55874,2.683901 -2.12132,2.12132 -2.683901,1.55874 -3,0.795609 -3,0 -3,-0.795609 -2.683901,-1.55874 -2.12132,-2.12132 -1.55874,-2.683901 -0.795609,-3 0,-3 Z"
                                 style="fill:#000000;fill-opacity:1;fill-rule:nonzero;stroke:#000000;stroke-width:1;stroke-linecap:butt;stroke-linejoin:round;stroke-miterlimit:10;stroke-dasharray:none;stroke-opacity:1"
                                 id="path2335" />
                            </g>
                          </g>
                          <g
                             id="g2337"
                             transform="translate(49.825455,-46.45475)">
                            <g
                               id="g2339">
                              <g
                                 id="g2341"
                                 clip-path="url(#clipPath2345)">
                                <path
                                   d="m 0,-3 c 0.795609,0 1.55874,0.316099 2.12132,0.87868 C 2.683901,-1.55874 3,-0.795609 3,0 3,0.795609 2.683901,1.55874 2.12132,2.12132 1.55874,2.683901 0.795609,3 0,3 -0.795609,3 -1.55874,2.683901 -2.12132,2.12132 -2.683901,1.55874 -3,0.795609 -3,0 -3,-0.795609 -2.683901,-1.55874 -2.12132,-2.12132 -1.55874,-2.683901 -0.795609,-3 0,-3 Z"
                                   style="fill:#000000;fill-opacity:1;fill-rule:nonzero;stroke:#000000;stroke-width:1;stroke-linecap:butt;stroke-linejoin:round;stroke-miterlimit:10;stroke-dasharray:none;stroke-opacity:1"
                                   id="path2347" />
                              </g>
                            </g>
                            <g
                               id="g2349"
                               transform="translate(49.825455,38.009104)">
                              <g
                                 id="g2351">
                                <g
                                   id="g2353"
                                   clip-path="url(#clipPath2357)">
                                <path
                                   d="m 0,-3 c 0.795609,0 1.55874,0.316099 2.12132,0.87868 C 2.683901,-1.55874 3,-0.795609 3,0 3,0.795609 2.683901,1.55874 2.12132,2.12132 1.55874,2.683901 0.795609,3 0,3 -0.795609,3 -1.55874,2.683901 -2.12132,2.12132 -2.683901,1.55874 -3,0.795609 -3,0 -3,-0.795609 -2.683901,-1.55874 -2.12132,-2.12132 -1.55874,-2.683901 -0.795609,-3 0,-3 Z"
                                   style="fill:#000000;fill-opacity:1;fill-rule:nonzero;stroke:#000000;stroke-width:1;stroke-linecap:butt;stroke-linejoin:round;stroke-miterlimit:10;stroke-dasharray:none;stroke-opacity:1"
                                   id="path2359" />
                                </g>
                              </g>
                            </g>
                          </g>
                        </g>
                      </g>
                    </g>
                  </g>
                </g>
              </g>
            </g>
          </g>
        </g>
      </g>
      <g
         id="g2371">
        <g
           id="g2373"
           clip-path="url(#clipPath2377)">
          <path
             d="M 79.56,538.15582 H 572.832"
             style="fill:none;stroke:#ff0000;stroke-width:1.5;stroke-linecap:butt;stroke-linejoin:round;stroke-miterlimit:10;stroke-dasharray:5.55, 2.4;stroke-dashoffset:0;stroke-opacity:1"
             id="path2379" />
        </g>
      </g>
      <g
         id="g2381">
        <g
           id="g2383"
           clip-path="url(#clipPath2387)">
          <path
             d="M 79.56,339.99218 H 572.832"
             style="fill:none;stroke:#ff0000;stroke-width:1.5;stroke-linecap:butt;stroke-linejoin:round;stroke-miterlimit:10;stroke-dasharray:5.55, 2.4;stroke-dashoffset:0;stroke-opacity:1"
             id="path2389" />
        </g>
      </g>
      <g
         id="g2391">
        <path
           d="m 79.56,330.084 v 217.98"
           style="fill:none;stroke:#000000;stroke-width:0.8;stroke-linecap:square;stroke-linejoin:miter;stroke-miterlimit:10;stroke-dasharray:none;stroke-opacity:1"
           id="path2393" />
        <path
           d="m 572.832,330.084 v 217.98"
           style="fill:none;stroke:#000000;stroke-width:0.8;stroke-linecap:square;stroke-linejoin:miter;stroke-miterlimit:10;stroke-dasharray:none;stroke-opacity:1"
           id="path2395" />
        <path
           d="M 79.56,330.084 H 572.832"
           style="fill:none;stroke:#000000;stroke-width:0.8;stroke-linecap:square;stroke-linejoin:miter;stroke-miterlimit:10;stroke-dasharray:none;stroke-opacity:1"
           id="path2397" />
        <path
           d="M 79.56,548.064 H 572.832"
           style="fill:none;stroke:#000000;stroke-width:0.8;stroke-linecap:square;stroke-linejoin:miter;stroke-miterlimit:10;stroke-dasharray:none;stroke-opacity:1"
           id="path2399" />
      </g>
      <g
         id="g2631">
        <g
           id="g2633"
           clip-path="url(#clipPath2637)" />
      </g>
      <text
         xml:space="preserve"
         style="font-style:normal;font-weight:normal;font-size:13px;line-height:1.25;font-family:sans-serif;fill:#000000;fill-opacity:1;stroke:none;stroke-width:0.75"
         x="395.61102"
         y="55.320442"
         id="text2896"
         transform="matrix(0,1,1,0,0,0)"><tspan
           sodipodi:role="line"
           id="tspan2894"
           x="395.61102"
           y="55.320442"
           style="font-size:13px;stroke-width:0.75">Tracked variable</tspan></text>
      <text
         xml:space="preserve"
         style="font-style:normal;font-weight:normal;font-size:13px;line-height:1.25;font-family:sans-serif;fill:#000000;fill-opacity:1;stroke:none;stroke-width:0.75"
         x="314.21384"
         y="-305.31815"
         id="text2896-3"
         transform="scale(1,-1)"><tspan
           sodipodi:role="line"
           id="tspan2894-8"
           x="314.21384"
           y="-305.31815"
           style="font-size:13px;stroke-width:0.75">Time</tspan></text>
    </g>
  </g>
</svg>
