<?xml version="1.0" encoding="UTF-8" standalone="no"?>
<svg
   xmlns:dc="http://purl.org/dc/elements/1.1/"
   xmlns:cc="http://creativecommons.org/ns#"
   xmlns:rdf="http://www.w3.org/1999/02/22-rdf-syntax-ns#"
   xmlns:svg="http://www.w3.org/2000/svg"
   xmlns="http://www.w3.org/2000/svg"
   xmlns:sodipodi="http://sodipodi.sourceforge.net/DTD/sodipodi-0.dtd"
   xmlns:inkscape="http://www.inkscape.org/namespaces/inkscape"
   id="svg2"
   viewBox="0 0 1023.9456 349.24861"
   version="1.1"
   inkscape:version="0.48.4 r9939"
   width="100%"
   height="100%"
   sodipodi:docname="simple car silhoutte.svg">
  <defs
     id="defs118" />
  <sodipodi:namedview
     pagecolor="#ffffff"
     bordercolor="#666666"
     borderopacity="1"
     objecttolerance="10"
     gridtolerance="10"
     guidetolerance="10"
     inkscape:pageopacity="0"
     inkscape:pageshadow="2"
     inkscape:window-width="1600"
     inkscape:window-height="838"
     id="namedview116"
     showgrid="false"
     fit-margin-top="0"
     fit-margin-left="0"
     fit-margin-right="0"
     fit-margin-bottom="0"
     inkscape:zoom="0.56155327"
     inkscape:cx="576.95419"
     inkscape:cy="-63.840302"
     inkscape:window-x="-8"
     inkscape:window-y="-8"
     inkscape:window-maximized="1"
     inkscape:current-layer="svg2" />
  <g
     id="g4346">
    <path
       sodipodi:nodetypes="cscccccccccsccccccc"
       style="fill:none;stroke:#000000;stroke-width:4.74668312"
       inkscape:connector-curvature="0"
       d="M 437.09162,15.484917 C 474.05976,-0.39251406 562.01412,3.9404468 607.90529,2.4961295 653.79647,1.0518032 751.12005,12.828578 787.61522,29.907936 c 36.58442,17.099557 127.97249,80.523834 142.87399,85.775914 20.34454,7.21151 27.71344,5.47061 62.15636,18.45941 15.08753,65.24579 35.39583,57.53542 26.96863,129.51247 -23.54016,7.9105 -18.2214,41.32806 -40.77827,40.43087 -21.68301,-1.51502 -87.9812,0 -87.9812,0 0,0 -14.00912,-104.24845 -87.89192,-101.35981 -73.97196,2.87854 -85.3934,101.35981 -85.3934,101.35981 l -446.18748,0 c 0,0 -4.01614,-98.82767 -85.59945,-100.27199 -81.5744,-1.44432 -89.042199,100.27199 -89.042199,100.27199 l -58.633271,0 C 38.261751,273.36437 0.41654832,257.81257 2.4148721,247.78839 6.0147182,209.04001 17.316397,189.23692 38.462307,160.99657 c 0,0 28.965801,-25.75416 104.169143,-34.40999 75.21226,-8.65583 140.21658,-8.65583 172.08967,-31.744773 31.86415,-23.088941 122.3705,-79.35689 122.3705,-79.35689 z"
       id="path3070" />
    <path
       sodipodi:nodetypes="ccccc"
       style="fill:#f0ffeb;stroke:#000000;stroke-width:4.84449768"
       inkscape:connector-curvature="0"
       d="m 337.20699,110.66024 c 14.62587,-18.737004 114.79265,-82.253123 140.89034,-89.366522 27.44677,-7.476637 95.83111,-7.204213 95.83111,-7.204213 l -0.11608,96.570735 z"
       id="path3884" />
    <path
       sodipodi:nodetypes="ccccc"
       style="fill:#f0ffeb;stroke:#000000;stroke-width:4.78748083"
       inkscape:connector-curvature="0"
       d="m 601.72114,14.397147 0.15578,95.223963 251.20469,0 C 842.8204,88.671816 742.56579,40.530658 718.68336,26.729357 705.6978,16.633307 644.52789,15.830788 601.72114,14.397147 z"
       id="path3892" />
    <path
       id="path4610"
       transform="translate(-2.9080276e-5,0)"
       d="M 186.75 212.6875 A 67.842808 67.842808 0 0 0 116.9375 280.5 A 67.842808 67.842808 0 0 0 252.625 280.5 A 67.842808 67.842808 0 0 0 186.75 212.6875 z M 185.9375 240.9375 A 39.576163 39.576163 0 0 1 224.375 280.5 A 39.576163 39.576163 0 0 1 145.21875 280.5 A 39.576163 39.576163 0 0 1 185.9375 240.9375 z "
       style="fill:#c8c8c8;stroke:#000000;stroke-width:1.78510213" />
    <path
       id="path4610-4"
       transform="translate(-2.9080276e-5,0)"
       d="M 806.6875 212.6875 A 67.842808 67.842808 0 0 0 736.875 280.5 A 67.842808 67.842808 0 0 0 872.53125 280.5 A 67.842808 67.842808 0 0 0 806.6875 212.6875 z M 805.84375 240.9375 A 39.576163 39.576163 0 0 1 844.28125 280.5 A 39.576163 39.576163 0 0 1 765.125 280.5 A 39.576163 39.576163 0 0 1 805.84375 240.9375 z "
       style="fill:#c8c8c8;stroke:#000000;stroke-width:1.78510213" />
  </g>
  <metadata
     id="metadata114">
    <rdf:RDF>
      <cc:Work>
        <dc:format>image/svg+xml</dc:format>
        <dc:type
           rdf:resource="http://purl.org/dc/dcmitype/StillImage" />
        <cc:license
           rdf:resource="http://creativecommons.org/licenses/publicdomain/" />
        <dc:publisher>
          <cc:Agent
             rdf:about="http://openclipart.org/">
            <dc:title>Openclipart</dc:title>
          </cc:Agent>
        </dc:publisher>
        <dc:title></dc:title>
        <dc:date>2011-05-04T09:13:55</dc:date>
        <dc:description>A default unfolded model of a car for damage/repair indication in a body shop</dc:description>
        <dc:source>http://openclipart.org/detail/135685/unfolded-car-by-tobias-moon</dc:source>
        <dc:creator>
          <cc:Agent>
            <dc:title>Tobias Moon</dc:title>
          </cc:Agent>
        </dc:creator>
        <dc:subject>
          <rdf:Bag>
            <rdf:li>automobile</rdf:li>
            <rdf:li>berline</rdf:li>
            <rdf:li>body</rdf:li>
            <rdf:li>car</rdf:li>
            <rdf:li>clip art</rdf:li>
            <rdf:li>clipart</rdf:li>
            <rdf:li>cutout</rdf:li>
            <rdf:li>damage</rdf:li>
            <rdf:li>details</rdf:li>
            <rdf:li>flat</rdf:li>
            <rdf:li>indicator</rdf:li>
            <rdf:li>model</rdf:li>
            <rdf:li>parts</rdf:li>
            <rdf:li>repair</rdf:li>
            <rdf:li>sedan</rdf:li>
            <rdf:li>unfold</rdf:li>
            <rdf:li>vehicle</rdf:li>
          </rdf:Bag>
        </dc:subject>
      </cc:Work>
      <cc:License
         rdf:about="http://creativecommons.org/licenses/publicdomain/">
        <cc:permits
           rdf:resource="http://creativecommons.org/ns#Reproduction" />
        <cc:permits
           rdf:resource="http://creativecommons.org/ns#Distribution" />
        <cc:permits
           rdf:resource="http://creativecommons.org/ns#DerivativeWorks" />
      </cc:License>
    </rdf:RDF>
  </metadata>
</svg>
