<?xml version="1.0" encoding="UTF-8" standalone="no"?>
<!-- Created with Inkscape (http://www.inkscape.org/) -->

<svg
   xmlns:dc="http://purl.org/dc/elements/1.1/"
   xmlns:cc="http://creativecommons.org/ns#"
   xmlns:rdf="http://www.w3.org/1999/02/22-rdf-syntax-ns#"
   xmlns:svg="http://www.w3.org/2000/svg"
   xmlns="http://www.w3.org/2000/svg"
   xmlns:sodipodi="http://sodipodi.sourceforge.net/DTD/sodipodi-0.dtd"
   xmlns:inkscape="http://www.inkscape.org/namespaces/inkscape"
   width="1052.3622"
   height="744.09448"
   id="svg2"
   version="1.1"
   inkscape:version="0.48.4 r9939"
   sodipodi:docname="sylwetka-Carisma.svg">
  <defs
     id="defs4">
    <inkscape:path-effect
       effect="skeletal"
       id="path-effect3925"
       is_visible="true"
       pattern="M 0,5 C 0,2.24 2.24,0 5,0 7.76,0 10,2.24 10,5 10,7.76 7.76,10 5,10 2.24,10 0,7.76 0,5 z"
       copytype="single_stretched"
       prop_scale="1"
       scale_y_rel="false"
       spacing="0"
       normal_offset="0"
       tang_offset="0"
       prop_units="false"
       vertical_pattern="false"
       fuse_tolerance="0" />
    <inkscape:path-effect
       effect="skeletal"
       id="path-effect3921"
       is_visible="true"
       pattern="M 0,5 C 0,2.24 2.24,0 5,0 7.76,0 10,2.24 10,5 10,7.76 7.76,10 5,10 2.24,10 0,7.76 0,5 z"
       copytype="single_stretched"
       prop_scale="1"
       scale_y_rel="false"
       spacing="0"
       normal_offset="0"
       tang_offset="0"
       prop_units="false"
       vertical_pattern="false"
       fuse_tolerance="0" />
    <inkscape:path-effect
       effect="skeletal"
       id="path-effect3917"
       is_visible="true"
       pattern="M 0,5 C 0,2.24 2.24,0 5,0 7.76,0 10,2.24 10,5 10,7.76 7.76,10 5,10 2.24,10 0,7.76 0,5 z"
       copytype="single_stretched"
       prop_scale="1"
       scale_y_rel="false"
       spacing="0"
       normal_offset="0"
       tang_offset="0"
       prop_units="false"
       vertical_pattern="false"
       fuse_tolerance="0" />
    <inkscape:path-effect
       effect="skeletal"
       id="path-effect3903"
       is_visible="true"
       pattern="M 0,5 C 0,2.24 2.24,0 5,0 7.76,0 10,2.24 10,5 10,7.76 7.76,10 5,10 2.24,10 0,7.76 0,5 z"
       copytype="single_stretched"
       prop_scale="1"
       scale_y_rel="false"
       spacing="0"
       normal_offset="0"
       tang_offset="0"
       prop_units="false"
       vertical_pattern="false"
       fuse_tolerance="0" />
    <inkscape:path-effect
       effect="skeletal"
       id="path-effect3899"
       is_visible="true"
       pattern="M 0,5 C 0,2.24 2.24,0 5,0 7.76,0 10,2.24 10,5 10,7.76 7.76,10 5,10 2.24,10 0,7.76 0,5 z"
       copytype="single_stretched"
       prop_scale="1"
       scale_y_rel="false"
       spacing="0"
       normal_offset="0"
       tang_offset="0"
       prop_units="false"
       vertical_pattern="false"
       fuse_tolerance="0" />
    <inkscape:path-effect
       effect="skeletal"
       id="path-effect3895"
       is_visible="true"
       pattern="M 0,5 C 0,2.24 2.24,0 5,0 7.76,0 10,2.24 10,5 10,7.76 7.76,10 5,10 2.24,10 0,7.76 0,5 z"
       copytype="single_stretched"
       prop_scale="1"
       scale_y_rel="false"
       spacing="0"
       normal_offset="0"
       tang_offset="0"
       prop_units="false"
       vertical_pattern="false"
       fuse_tolerance="0" />
    <inkscape:path-effect
       effect="skeletal"
       id="path-effect3891"
       is_visible="true"
       pattern="M 0,5 C 0,2.24 2.24,0 5,0 7.76,0 10,2.24 10,5 10,7.76 7.76,10 5,10 2.24,10 0,7.76 0,5 z"
       copytype="single_stretched"
       prop_scale="1"
       scale_y_rel="false"
       spacing="0"
       normal_offset="0"
       tang_offset="0"
       prop_units="false"
       vertical_pattern="false"
       fuse_tolerance="0" />
    <inkscape:path-effect
       effect="skeletal"
       id="path-effect3887"
       is_visible="true"
       pattern="M 0,5 C 0,2.24 2.24,0 5,0 7.76,0 10,2.24 10,5 10,7.76 7.76,10 5,10 2.24,10 0,7.76 0,5 z"
       copytype="single_stretched"
       prop_scale="1"
       scale_y_rel="false"
       spacing="0"
       normal_offset="0"
       tang_offset="0"
       prop_units="false"
       vertical_pattern="false"
       fuse_tolerance="0" />
    <inkscape:path-effect
       effect="skeletal"
       id="path-effect3883"
       is_visible="true"
       pattern="M 0,5 C 0,2.24 2.24,0 5,0 7.76,0 10,2.24 10,5 10,7.76 7.76,10 5,10 2.24,10 0,7.76 0,5 z"
       copytype="single_stretched"
       prop_scale="1"
       scale_y_rel="false"
       spacing="0"
       normal_offset="0"
       tang_offset="0"
       prop_units="false"
       vertical_pattern="false"
       fuse_tolerance="0" />
    <inkscape:path-effect
       effect="skeletal"
       id="path-effect3879"
       is_visible="true"
       pattern="M 0,5 C 0,2.24 2.24,0 5,0 7.76,0 10,2.24 10,5 10,7.76 7.76,10 5,10 2.24,10 0,7.76 0,5 z"
       copytype="single_stretched"
       prop_scale="1"
       scale_y_rel="false"
       spacing="0"
       normal_offset="0"
       tang_offset="0"
       prop_units="false"
       vertical_pattern="false"
       fuse_tolerance="0" />
    <inkscape:path-effect
       effect="skeletal"
       id="path-effect3871"
       is_visible="true"
       pattern="M 0,5 C 0,2.24 2.24,0 5,0 7.76,0 10,2.24 10,5 10,7.76 7.76,10 5,10 2.24,10 0,7.76 0,5 z"
       copytype="single_stretched"
       prop_scale="1"
       scale_y_rel="false"
       spacing="0"
       normal_offset="0"
       tang_offset="0"
       prop_units="false"
       vertical_pattern="false"
       fuse_tolerance="0" />
    <inkscape:path-effect
       effect="skeletal"
       id="path-effect3867"
       is_visible="true"
       pattern="M 0,5 C 0,2.24 2.24,0 5,0 7.76,0 10,2.24 10,5 10,7.76 7.76,10 5,10 2.24,10 0,7.76 0,5 z"
       copytype="single_stretched"
       prop_scale="1"
       scale_y_rel="false"
       spacing="0"
       normal_offset="0"
       tang_offset="0"
       prop_units="false"
       vertical_pattern="false"
       fuse_tolerance="0" />
    <inkscape:path-effect
       effect="skeletal"
       id="path-effect3863"
       is_visible="true"
       pattern="M 0,5 C 0,2.24 2.24,0 5,0 7.76,0 10,2.24 10,5 10,7.76 7.76,10 5,10 2.24,10 0,7.76 0,5 z"
       copytype="single_stretched"
       prop_scale="1"
       scale_y_rel="false"
       spacing="0"
       normal_offset="0"
       tang_offset="0"
       prop_units="false"
       vertical_pattern="false"
       fuse_tolerance="0" />
    <inkscape:path-effect
       effect="skeletal"
       id="path-effect3089"
       is_visible="true"
       pattern="M 0,5 C 0,2.24 2.24,0 5,0 7.76,0 10,2.24 10,5 10,7.76 7.76,10 5,10 2.24,10 0,7.76 0,5 z"
       copytype="single_stretched"
       prop_scale="1"
       scale_y_rel="false"
       spacing="0"
       normal_offset="0"
       tang_offset="0"
       prop_units="false"
       vertical_pattern="false"
       fuse_tolerance="0" />
    <inkscape:path-effect
       effect="skeletal"
       id="path-effect3085"
       is_visible="true"
       pattern="M 0,5 C 0,2.24 2.24,0 5,0 7.76,0 10,2.24 10,5 10,7.76 7.76,10 5,10 2.24,10 0,7.76 0,5 z"
       copytype="single_stretched"
       prop_scale="1"
       scale_y_rel="false"
       spacing="0"
       normal_offset="0"
       tang_offset="0"
       prop_units="false"
       vertical_pattern="false"
       fuse_tolerance="0" />
    <inkscape:path-effect
       effect="skeletal"
       id="path-effect3081"
       is_visible="true"
       pattern="M 0,5 C 0,2.24 2.24,0 5,0 7.76,0 10,2.24 10,5 10,7.76 7.76,10 5,10 2.24,10 0,7.76 0,5 z"
       copytype="single_stretched"
       prop_scale="1"
       scale_y_rel="false"
       spacing="0"
       normal_offset="0"
       tang_offset="0"
       prop_units="false"
       vertical_pattern="false"
       fuse_tolerance="0" />
  </defs>
  <sodipodi:namedview
     id="base"
     pagecolor="#ffffff"
     bordercolor="#666666"
     borderopacity="1.0"
     inkscape:pageopacity="0.0"
     inkscape:pageshadow="2"
     inkscape:zoom="1.2049698"
     inkscape:cx="656.00525"
     inkscape:cy="320.38985"
     inkscape:document-units="px"
     inkscape:current-layer="layer2"
     showgrid="false"
     inkscape:window-width="1524"
     inkscape:window-height="825"
     inkscape:window-x="0"
     inkscape:window-y="0"
     inkscape:window-maximized="1" />
  <metadata
     id="metadata7">
    <rdf:RDF>
      <cc:Work
         rdf:about="">
        <dc:format>image/svg+xml</dc:format>
        <dc:type
           rdf:resource="http://purl.org/dc/dcmitype/StillImage" />
        <dc:title />
      </cc:Work>
    </rdf:RDF>
  </metadata>
  <g
     inkscape:groupmode="layer"
     id="layer2"
     inkscape:label="carisma">
    <path
       style="fill:#000000;fill-rule:evenodd;stroke:none"
       d="m 928.79986,465.03799 c -0.28864,0.0691 -1.70582,-4.59926 -4.15132,-13.59708 0,0 0,0 0,-10e-6 -1.0427,-3.26294 -2.3247,-7.07804 -4.17388,-11.24737 -1.33444,-2.98987 -2.84925,-6.21916 -5.24486,-8.97329 0,0 -10e-6,-10e-6 -10e-6,-10e-6 -3.90393,-4.54106 -8.58717,-9.313 -14.14695,-14.11795 -5.55977,-4.80495 -12.00048,-9.64135 -19.28919,-14.33426 -5.65912,-3.64255 -11.8243,-7.20831 -18.46741,-10.70953 -6.6431,-3.50122 -13.76484,-6.93693 -21.28829,-10.38725 -10e-6,-1e-5 -2e-5,-1e-5 -3e-5,-2e-5 -6.49423,-2.97635 -13.29364,-5.96142 -20.35276,-9.04884 -7.05912,-3.08743 -14.37815,-6.27682 -21.88973,-9.71127 -13.19758,-6.02991 -27.0488,-12.79746 -40.72719,-21.51916 -5.8775,-3.76027 -11.53576,-8.0164 -17.0653,-12.59608 -5.52954,-4.57968 -10.93027,-9.48308 -16.32303,-14.48926 -11.05227,-10.24054 -22.10923,-21.13659 -34.08042,-31.58809 -11.02694,-9.61067 -22.7863,-18.97209 -36.1255,-26.09648 -6.06886,-3.24625 -12.44943,-6.01509 -19.11166,-7.95034 -6.45907,-1.87844 -13.20627,-2.98508 -20.01346,-3.07757 -17.59751,-0.25512 -35.61979,-0.84342 -54.03847,-1.59582 -18.41869,-0.7524 -37.23376,-1.66891 -56.41877,-2.5209 -2e-5,-1e-5 -4e-5,-1e-5 -6e-5,-1e-5 -13.22692,-0.5812 -26.61418,-1.19956 -40.10908,-1.37023 -13.49489,-0.17067 -27.09742,0.10649 -40.74968,1.38972 -10.46019,0.98412 -20.89831,2.59851 -31.00009,5.48251 -9.00746,2.57107 -17.7678,6.16362 -25.77354,11.0448 -8.0134,4.86732 -15.32613,11.06781 -21.7265,18.19437 -7.77684,8.4877 -14.42158,18.1981 -20.28926,28.49718 -6.89049,1.82026 -13.81212,3.64818 -20.7639,5.48351 -2.59974,5.91521 -4.0892,12.50984 -4.98522,19.34156 -1.52823,7.86704 -2.29421,15.99857 -2.75862,24.2643 -0.98238,17.06886 -0.50231,34.59426 -1.27494,52.48844 0.20082,8.20854 0.39694,16.4496 0.59008,24.72179 -0.97152,-10.10343 -1.75944,-20.36663 -1.66857,-30.65926 0,-2e-5 10e-6,-5e-5 10e-6,-8e-5 0.54503,-3.27275 1.20336,-6.61175 2.11846,-9.96943 10e-6,-3e-5 2e-5,-5e-5 3e-5,-8e-5 0.59352,-2.23406 1.37267,-4.62492 2.55796,-7.04654 10e-6,-3e-5 2e-5,-6e-5 3e-5,-9e-5 0.60773,-1.46271 1.78823,-3.22828 3.78982,-4.92585 4e-5,-3e-5 8e-5,-7e-5 1.2e-4,-10e-5 0.76595,-0.62292 1.78333,-1.13783 3.03796,-1.48873 1.18017,-0.28322 2.35258,-0.30073 3.47523,-0.0599 2.42945,0.69968 4.08642,1.7944 4.99187,2.91372 1.39215,1.44613 2.41834,2.92286 3.19763,4.28639 2.19145,3.73716 3.72848,7.59199 5.01661,11.29508 0.5523,1.5644 1.0719,3.1358 1.56295,4.71205 0.88752,2.84886 1.67996,5.70756 2.40299,8.56314 1.04624,4.12115 1.96562,8.29426 2.69712,12.5191 0.2889,1.66485 0.55117,3.369 0.75292,5.11454 0.14781,1.21542 0.27218,2.57793 0.27361,4.08456 0,3e-5 0,6e-5 0,9e-5 -0.0253,3.00144 -0.34213,5.84154 -0.71484,8.51637 0,3e-5 -1e-5,6e-5 -1e-5,8e-5 -0.4135,3.02805 -0.92453,6.00886 -1.48125,8.94705 0,2e-5 -10e-6,4e-5 -2e-5,6e-5 -1.01821,2.46588 -2.03494,4.92878 -3.05011,7.38877 44.49361,33.21648 87.91913,65.65232 129.99522,97.06755 1.65421,-5.29224 3.30841,-10.56629 4.96317,-15.82197 -2.11266,-8.70714 -4.2109,-17.36437 -6.2941,-25.96999 -1.31439,-8.35499 -2.14829,-16.833 -2.09765,-25.34942 0.0162,-8.10905 0.92303,-16.54646 3.96066,-24.55892 1e-5,-2e-5 2e-5,-4e-5 2e-5,-7e-5 1.97859,-5.67894 5.54202,-11.67193 11.69286,-15.50131 3e-5,-2e-5 5e-5,-3e-5 8e-5,-5e-5 2.48079,-1.42512 5.28593,-2.22164 8.17603,-2.301 3.02557,-0.0369 5.85655,0.60914 8.34948,1.68136 3e-5,10e-6 5e-5,2e-5 8e-5,3e-5 6.45405,2.81388 11.3838,7.44911 15.27115,12.20992 5.62113,6.70942 9.96648,14.1429 13.58223,21.65742 5.34805,11.07246 9.60169,22.36349 13.5743,33.4678 4.53043,12.64672 8.62878,25.22474 12.49034,37.64917 3.22196,10.36541 6.2754,20.63893 9.18148,30.80577 0,10e-6 1e-5,3e-5 2e-5,5e-5 0,0 0,0 0,0 0.89314,3.12458 1.77281,6.24112 2.63513,9.35036 0,0 0,0 0,0 0,2e-5 10e-6,4e-5 10e-6,6e-5 0,0 0,0 0,0 0.23563,0.84961 0.47025,1.69969 0.70315,2.55043 0,0 0,0 0,0 0.0607,0.22191 0.12152,0.44439 0.18223,0.66748 -2e-5,-2e-5 -2e-5,-2e-5 -2e-5,-2e-5 -0.38982,-0.40305 -0.77947,-0.80568 -1.16898,-1.2079 0,0 0,0 0,0 0.003,0.0138 0.006,0.0275 0.009,0.0413 0.001,0.005 0.002,0.01 0.003,0.0143 13.00655,5.18342 26.71365,8.17334 40.3388,10.19104 16.88217,2.943 33.61868,4.30992 49.92647,4.9095 19.85083,0.7287 39.03295,0.31927 57.43509,-0.76018 18.40214,-1.07946 36.02443,-2.8294 52.78027,-4.89289 2e-5,-1e-5 4e-5,-1e-5 5e-5,-1e-5 19.0077,-2.34381 36.90567,-5.10878 53.59545,-8.18131 16.68977,-3.07254 32.17202,-6.45135 46.3837,-9.97039 13.64229,-3.37911 26.08269,-6.90046 37.18751,-10.69049 4.88652,-1.66798 9.50101,-3.38173 13.80528,-5.20985 3.46209,-1.37463 6.7065,-2.81453 9.62736,-4.48523 13.63932,-32.659 21.50127,-50.55076 22.05252,-50.32728 0.55125,0.22348 -6.28075,18.57681 -19.59769,52.40993 -3.25179,2.10397 -6.82699,3.98778 -10.58748,5.79523 -4.3618,1.98991 -9.0252,3.85794 -13.93589,5.66405 -11.15674,4.10394 -23.66054,7.93271 -37.32856,11.59041 -14.24052,3.81198 -29.77308,7.47859 -46.53017,10.82945 -16.75708,3.35086 -34.73931,6.38466 -53.8413,8.98229 -10e-6,10e-6 -3e-5,10e-6 -4e-5,10e-6 -16.83852,2.29249 -34.58265,4.2618 -53.15938,5.54743 -18.57674,1.28563 -37.98627,1.88806 -58.13138,1.33535 -16.55649,-0.45335 -33.65199,-1.71137 -51.03383,-4.59413 -14.79039,-2.81366 -29.91691,-6.78171 -44.63916,-13.15292 -0.002,-0.005 -0.003,-0.0104 -0.005,-0.0155 -0.005,-0.0149 -0.01,-0.0299 -0.0144,-0.0448 0,0 0,0 0,0 -0.42052,-0.51496 -0.84123,-1.03033 -1.26213,-1.54612 -1e-5,0 -1e-5,0 -1e-5,-1e-5 -0.0608,-0.21731 -0.12191,-0.43522 -0.18337,-0.65378 0,-10e-6 0,-10e-6 0,-10e-6 -0.2356,-0.83789 -0.47352,-1.67739 -0.71306,-2.51871 0,0 0,0 0,0 -10e-6,-2e-5 -2e-5,-4e-5 -2e-5,-5e-5 0,0 0,0 0,0 -0.87661,-3.0788 -1.77122,-6.1682 -2.67999,-9.26912 0,0 0,0 0,0 0,-2e-5 -10e-6,-4e-5 -10e-6,-6e-5 -2.95716,-10.09031 -6.05716,-20.28221 -9.32088,-30.5605 -3.91376,-12.32417 -8.04506,-24.76237 -12.58661,-37.22376 -4.00885,-10.98564 -8.19917,-21.96785 -13.37148,-32.51656 -3.47388,-7.0559 -7.44425,-13.83917 -12.43853,-19.69215 -3.61834,-4.12151 -7.4072,-7.88366 -11.80053,-9.57852 -10e-6,-1e-5 -3e-5,-2e-5 -5e-5,-2e-5 -1.5811,-0.62115 -3.14753,-1.02031 -4.54888,-0.94507 -1.27646,0.0261 -2.60436,0.41842 -3.74709,1.08174 -2e-5,1e-5 -3e-5,2e-5 -4e-5,2e-5 -3.39702,1.67366 -5.56577,6.08409 -7.57676,10.78338 -10e-6,2e-5 -2e-5,4e-5 -3e-5,6e-5 -2.5039,6.40297 -3.1669,13.72355 -3.24842,21.24277 -0.051,7.74355 0.75194,15.6008 2.00313,23.49809 1.97726,9.53031 3.96594,19.12727 5.96561,28.78778 -4.14701,6.90139 -8.32023,13.83811 -12.51828,20.8087 -45.00909,-32.32753 -91.60589,-65.78431 -139.34285,-100.07685 0.36228,-4.1084 0.72494,-8.22308 1.08801,-12.34384 10e-6,-3e-5 10e-6,-6e-5 10e-6,-9e-5 0.52606,-2.79434 1.00153,-5.57268 1.37455,-8.33918 0,-2e-5 0,-5e-5 1e-5,-7e-5 0.33512,-2.54002 0.62074,-4.9491 0.62122,-7.22126 0,-2e-5 0,-4e-5 0,-6e-5 0.0128,-0.82475 -0.0901,-1.78956 -0.2092,-2.89235 -0.17065,-1.48892 -0.40641,-3.00586 -0.67339,-4.55319 -0.67861,-3.92377 -1.54515,-7.84538 -2.53861,-11.76517 -0.68967,-2.71354 -1.43373,-5.40095 -2.25777,-8.04915 -0.45594,-1.46521 -0.93583,-2.91671 -1.44387,-4.35237 -1.24799,-3.47245 -2.50809,-6.73675 -4.18802,-9.52685 -0.62772,-1.00874 -1.15479,-1.84026 -1.70146,-2.35178 -0.48138,-0.28099 -0.45867,-0.46042 0.044,-0.16806 0.31406,0.0699 0.63945,0.0597 1.01811,-0.0231 0.36995,-0.12962 0.56854,-0.20099 0.61046,-0.26998 0,0 0,-10e-6 0,-10e-6 -0.11459,-0.0785 -0.33944,0.5284 -0.91968,1.44764 -1e-5,2e-5 -2e-5,4e-5 -3e-5,6e-5 -0.76008,1.47897 -1.30858,3.26373 -1.86491,5.22629 0,2e-5 -1e-5,4e-5 -2e-5,6e-5 -0.79446,2.88176 -1.382,5.89241 -1.90565,8.9831 -10e-6,2e-5 -10e-6,5e-5 -2e-5,7e-5 -3.315,9.98774 -5.77685,20.17019 -8.07351,30.41002 -3.52335,-8.45206 -7.0297,-16.8721 -10.51664,-25.25849 0.73926,-17.86314 0.24986,-35.87678 1.24566,-53.91168 0.48161,-8.52204 1.31944,-17.09598 2.97185,-25.58312 2.04314,-8.28082 4.86643,-16.54269 8.97715,-24.33194 6.99239,-1.88311 13.95484,-3.75761 20.88632,-5.62321 5.12434,-9.99278 11.23183,-19.515 18.66456,-27.92455 7.00315,-7.76424 15.05778,-14.53289 23.94045,-19.90197 8.8825,-5.35049 18.43266,-9.24448 28.14727,-11.96071 10.85946,-3.03563 21.86428,-4.70877 32.71533,-5.66667 14.10314,-1.24601 28.02652,-1.47277 41.72649,-1.23978 13.69998,0.23299 27.17655,0.92559 40.39243,1.59164 2e-5,0 5e-5,0 7e-5,0 19.20789,0.95893 38.00605,1.98808 56.37681,2.85877 18.37076,0.87069 36.31414,1.58292 53.81088,1.96759 7.60805,0.1703 15.05887,1.44521 22.13264,3.57126 7.27987,2.19034 14.13973,5.22398 20.56464,8.74258 14.07579,7.71965 26.19583,17.5081 37.30056,27.41748 12.09222,10.77234 23.07305,21.81656 33.91519,32.09001 5.31592,5.02732 10.56397,9.90663 15.88073,14.42694 5.31677,4.5203 10.70214,8.68177 16.26169,12.32158 13.1597,8.64325 26.68988,15.4768 39.68743,21.66145 7.39792,3.51772 14.64232,6.8106 21.65354,10.01597 7.01122,3.20536 13.78943,6.32282 20.27825,9.44089 2e-5,0 3e-5,10e-6 4e-5,10e-6 7.51755,3.61015 14.65572,7.22822 21.32256,10.92286 6.66685,3.69464 12.86308,7.46488 18.5486,11.31376 7.33161,4.96163 13.78786,10.08426 19.33174,15.167 5.54387,5.08274 10.17978,10.12404 14.00461,14.91075 10e-6,1e-5 10e-6,1e-5 2e-5,2e-5 2.58071,3.25178 4.0636,6.72726 5.27332,9.84769 1.71859,4.39941 2.82599,8.35057 3.67862,11.71227 0,0 0,1e-5 10e-6,1e-5 1.90497,9.16557 2.75673,13.97009 2.46808,14.03923 z"
       id="path3079"
       inkscape:path-effect="#path-effect3081"
       inkscape:original-d="m 928.79987,465.03802 c 0,0 -4.64974,-25.24006 -12.49507,-34.70852 C 877.92062,384.004 811.32114,371.38064 760.81065,338.69902 717.28602,310.53744 674.42932,242.57265 616.42323,241.51518 447.36496,238.43318 371.63115,212.33035 323.48336,301.21383 l -20.82511,5.55336 c -12.9275,26.40123 -9.62739,64.97316 -11.10672,99.96052 l 5.55336,24.99014 c 6.78084,-104.09798 29.2251,-15.71157 29.15515,-1.38835 -0.0435,8.90165 -4.16502,26.37848 -4.16502,26.37848 l 134.66904,98.57218 8.74073,-18.31533 c 0,0 -14.81463,-48.06852 -4.57571,-74.70349 10.26232,-26.69584 32.32874,-15.37524 48.59192,18.04843 17.5447,36.05743 38.87354,113.84393 38.87354,113.84393 99.49775,41.46082 322.05023,-4.19735 365.13359,-30.5435 l 20.8251,-51.3686"
       inkscape:connector-curvature="0"
       sodipodi:nodetypes="cassccccscccssccc" />
    <path
       style="fill:#000000;fill-rule:evenodd;stroke:none"
       d="m 914.91646,548.33846 c 0.0442,-0.0884 0.25343,-0.10562 0.63163,0.003 0.37819,0.10859 0.95035,0.32052 1.5276,0.99793 0.20007,0.24467 0.3755,0.56236 0.46375,0.96449 0.0698,0.35177 0.0656,0.73034 -0.0263,1.09946 -0.20616,0.78506 -0.68432,1.54369 -1.26646,2.14726 -0.69318,0.75777 -1.56944,1.48022 -2.54395,2.15863 0,0 -10e-6,0 -10e-6,0 -2.2383,1.56762 -5.17477,3.11276 -8.59512,4.64545 -3.65969,1.64588 -7.95907,3.32377 -12.81349,5.02862 -4.8633,1.70855 -10.30267,3.46795 -16.2794,5.24058 -5.97673,1.77264 -12.4912,3.55726 -19.48353,5.36657 -13.28802,3.43956 -28.36,6.93471 -44.94488,10.34054 -15.09683,3.10053 -31.45963,6.13521 -48.9033,8.90662 -10e-6,0 -2e-5,0 -2e-5,0 -15.09509,2.39869 -31.01451,4.61654 -47.6511,6.33172 -13.26641,1.37013 -27.04436,2.47168 -41.26329,2.62907 -5.47518,0.0613 -11.05433,-0.0277 -16.71234,-0.44204 -4.36331,-0.31196 -8.87548,-0.82975 -13.43959,-1.88226 -4.91734,-1.07757 -10.04635,-3.04835 -14.57182,-6.58285 -3.89429,-3.11003 -6.74283,-7.54516 -7.80811,-12.67323 -0.49024,-2.71877 -0.40558,-5.27892 -0.0143,-7.55471 0.2069,-1.36154 0.51211,-2.71932 0.92006,-4.05887 0.3565,-1.17061 0.79069,-2.32474 1.30451,-3.45293 0.91618,-2.17452 2.41123,-4.45646 4.67985,-6.45267 2.17604,-1.92043 5.24285,-2.86492 8.68531,-2.39245 10.94406,2.15287 22.20364,2.55326 33.38764,2.5784 14.69788,0.0139 29.1109,-0.91596 43.12079,-2.17609 17.88078,-1.61012 35.04471,-3.77581 51.34554,-6.19851 16.30083,-2.42271 31.73852,-5.10159 46.169,-7.79463 16.7119,-3.11998 32.05404,-6.30738 45.80308,-9.39995 14.63302,-3.29211 27.43973,-6.4713 38.15998,-9.40866 0,0 10e-6,0 10e-6,0 5.5408,-1.51826 10.51343,-2.96812 14.88647,-4.33852 4.4406,-1.3927 8.24193,-2.6917 11.38292,-3.89752 0,-10e-6 0,-10e-6 0,-10e-6 1.59251,-0.61588 3.00722,-1.1778 4.23104,-1.72592 1.22382,-0.54811 2.2585,-1.0798 3.12194,-1.57313 0.88596,-0.51146 1.55077,-0.95408 2.0229,-1.36074 0.38424,-0.35135 0.64571,-0.62423 0.80337,-0.83227 0.15766,-0.20805 0.24214,-0.34396 0.32974,-0.33722 0.0876,0.007 0.17757,0.16611 0.16396,0.49477 -0.0136,0.32865 -0.16065,0.83619 -0.50109,1.34518 -0.39147,0.6186 -1.03357,1.32958 -1.86822,2.03475 -0.81067,0.69042 -1.8174,1.4321 -3.0192,2.18804 -1.2018,0.75595 -2.60064,1.52368 -4.14337,2.31281 0,0 0,0 -10e-6,0 -3.07517,1.57984 -6.84626,3.2574 -11.22816,4.9989 -4.3228,1.71879 -9.26168,3.51157 -14.76145,5.35594 -10e-6,0 -10e-6,0 -10e-6,0 -10.63894,3.56801 -23.41595,7.34836 -38.01185,11.18059 -13.72153,3.60319 -29.07083,7.26167 -45.81224,10.79996 -14.44598,3.05429 -29.93981,6.05905 -46.34728,8.76627 -16.40747,2.70722 -33.72877,5.11606 -51.82205,6.9216 -14.17728,1.41618 -28.88011,2.46552 -44.00916,2.52963 -11.44562,0.0633 -23.33433,-0.35907 -35.30855,-2.65601 0.24736,-0.14789 -0.0466,0.0911 -0.38011,0.26282 -0.69654,0.47575 -1.2908,1.58306 -1.98751,2.93438 -0.32336,0.70187 -0.59852,1.43727 -0.82764,2.19683 -0.2622,0.86918 -0.46347,1.76783 -0.60796,2.68147 -0.2063,1.5936 -0.31609,3.00296 -0.0581,4.10973 0.44014,2.56867 2.09711,5.05743 4.25493,6.81882 2.73432,2.30898 6.5403,3.65365 10.58538,4.67862 3.80591,0.91106 7.81472,1.36956 11.91793,1.70046 5.27941,0.41609 10.58624,0.52659 15.88869,0.50533 13.77972,-0.0571 27.28683,-1.02376 40.42207,-2.22845 16.44572,-1.51116 32.2412,-3.48556 47.26666,-5.60593 1e-5,0 1e-5,-1e-5 2e-5,-1e-5 17.35947,-2.4502 33.67199,-5.1145 48.7523,-7.8037 16.56931,-2.95506 31.6364,-5.9428 44.95418,-8.83497 7.0166,-1.52457 13.5423,-3.00525 19.53452,-4.4622 5.99223,-1.45695 11.45144,-2.88894 16.35058,-4.26387 4.8909,-1.37322 9.19622,-2.69135 12.88685,-3.97605 1.73984,-0.60918 3.33462,-1.18622 4.77012,-1.76977 1.43551,-0.58355 2.71243,-1.17248 3.83693,-1.76359 0,0 0,0 0,0 0.97692,-0.51744 1.80395,-1.00622 2.46036,-1.53093 0.53495,-0.45797 0.94932,-0.82981 1.12139,-1.22767 0.0776,-0.16129 0.12806,-0.31864 0.13515,-0.45875 0.0165,-0.16041 -0.0259,-0.33785 -0.0904,-0.50155 -0.0975,-0.25743 -0.25694,-0.47028 -0.4131,-0.65376 -0.15616,-0.18349 -0.31046,-0.33714 -0.43473,-0.46725 -0.24854,-0.26023 -0.37419,-0.42714 -0.32997,-0.51558 z"
       id="path3083"
       inkscape:path-effect="#path-effect3085"
       inkscape:original-d="m 914.91646,548.33846 c 25.94082,12.9713 -213.36876,62.021 -270.16472,48.69693 -10.27408,-2.41025 -17.06547,-7.47945 -18.61012,-15.37676 -1.3116,-6.7058 3.01077,-19.35078 9.71838,-18.04843 75.54164,14.66715 294.5662,-36.41405 295.71655,-51.3686"
       inkscape:connector-curvature="0"
       sodipodi:nodetypes="csasc" />
    <path
       style="fill:#000000;fill-rule:evenodd;stroke:none"
       d="m 726.32747,568.97205 c 0.52589,-0.0117 1.06303,1.67454 1.39512,4.63664 0.33208,2.9621 0.45795,7.19906 0.26617,12.38 9.50864,-1.46181 21.93106,-3.36006 36.19364,-5.75175 14.26258,-2.39169 30.36523,-5.28356 47.38445,-8.66635 15.00655,-2.98275 29.19653,-6.04115 41.99889,-8.91394 12.80235,-2.87279 24.21918,-5.55617 33.61373,-7.71189 2.59587,-6.92726 4.92112,-12.52594 6.76958,-16.36282 1.84846,-3.83688 3.21904,-5.91095 3.80975,-5.7007 0.59071,0.21025 0.33696,2.69977 -0.77989,7.194 -1.11685,4.49423 -3.09789,10.99417 -5.86594,19.13698 -9.16714,2.79299 -20.78029,5.94925 -34.13394,9.09491 -13.35366,3.14566 -28.4472,6.27681 -44.44809,9.12365 -18.1469,3.22865 -35.32058,5.7216 -50.23024,7.58471 -14.90966,1.86312 -27.55292,3.1043 -36.81428,3.85096 -0.45042,-6.45766 -0.52961,-11.44846 -0.33792,-14.80447 0.19168,-3.35601 0.65308,-5.07824 1.17897,-5.08993 z"
       id="path3087"
       inkscape:path-effect="#path-effect3089"
       inkscape:original-d="m 726.32747,568.97205 0.41012,18.45552 c 53.30546,-6.27189 108.10174,-15.87039 162.40863,-30.34908 l 8.61258,-24.19725"
       inkscape:connector-curvature="0"
       sodipodi:nodetypes="cccc" />
    <path
       style="font-size:medium;font-style:normal;font-variant:normal;font-weight:normal;font-stretch:normal;text-indent:0;text-align:start;text-decoration:none;line-height:normal;letter-spacing:normal;word-spacing:normal;text-transform:none;direction:ltr;block-progression:tb;writing-mode:lr-tb;text-anchor:start;baseline-shift:baseline;color:#000000;fill:#000000;fill-opacity:1;stroke:none;stroke-width:20;marker:none;visibility:visible;display:inline;overflow:visible;enable-background:accumulate;font-family:Sans;-inkscape-font-specification:Sans"
       d="m 937.21875,477.65625 a 10.001,10.001 0 0 0 -7.625,3.5625 c -0.96974,1.1151 -6.5933,4.99691 -15.15625,8.5 -8.56295,3.50309 -20.09707,7.16231 -33.71875,10.6875 -27.24335,7.05038 -62.84363,13.58924 -101.3125,18.4375 C 702.4685,528.54026 613.66635,531.21211 557.4375,519 a 10.009419,10.009419 0 1 0 -4.25,19.5625 c 60.96504,13.24074 150.3924,9.99652 228.71875,0.125 39.16318,-4.93576 75.42549,-11.58307 103.84375,-18.9375 14.20913,-3.67722 26.44201,-7.50604 36.28125,-11.53125 9.83924,-4.02521 17.27641,-7.68877 22.65625,-13.875 a 10.001,10.001 0 0 0 -7.46875,-16.6875 z"
       id="path3091"
       inkscape:connector-curvature="0" />
    <path
       style="fill:#000000;fill-rule:evenodd;stroke:none"
       d="m 708.18149,473.81391 c 0.24342,-0.20942 1.74709,0.99975 4.2826,3.65884 1.26776,1.32955 2.79003,3.02604 4.46963,5.14557 1.6796,2.11953 3.52003,4.66047 5.32095,7.74206 0,10e-6 10e-6,10e-6 10e-6,10e-6 2.50983,4.98999 4.66077,11.44919 5.26392,19.31567 -2e-5,2e-5 -4e-5,4e-5 -6e-5,6e-5 -0.0297,0.0304 -0.0593,0.0608 -0.089,0.0912 -0.0863,0.0885 -0.17265,0.17697 -0.25907,0.26558 -0.33962,0.34821 -0.68017,0.69765 -1.02165,1.04836 -2e-5,2e-5 -3e-5,4e-5 -5e-5,6e-5 -0.29542,0.0437 -0.59165,0.0868 -0.8886,0.12971 -1.11433,0.16087 -2.24863,0.31896 -3.40208,0.47579 -3.93676,0.53525 -8.11292,1.05747 -12.51476,1.56521 0,0 -10e-6,0 -10e-6,0 -12.17734,1.40476 -26.10753,2.71354 -41.55147,3.63326 -15.68041,0.93522 -32.95801,1.52292 -51.53973,0.87678 0,0 -1e-5,0 -2e-5,0 -8.09948,-0.28137 -16.4673,-0.80917 -25.04435,-1.81791 -7.2643,-0.85061 -14.73526,-2.04849 -22.26582,-4.00758 -10e-6,-1e-5 -3e-5,-1e-5 -4e-5,-2e-5 -2.53792,-0.80008 -4.4369,-2.31706 -5.53787,-4.20082 -10e-6,-10e-6 -2e-5,-2e-5 -2e-5,-4e-5 -1.16354,-1.94728 -1.77839,-3.91431 -1.99344,-5.71108 0,-10e-6 0,-2e-5 0,-3e-5 -0.60762,-3.54652 -0.21457,-7.51239 1.62857,-11.25747 2.34746,-4.49933 5.71989,-8.33363 9.65572,-11.33805 4.02786,-3.08038 8.51146,-5.40708 13.12599,-7.13757 9.17313,-3.45386 19.04283,-5.03075 28.91384,-5.16311 14.99126,-0.23687 30.3511,-0.84156 46.00703,-1.54098 0.64133,-0.0286 1.28226,-0.0574 1.92278,-0.0863 17.92943,-0.80794 35.50381,-1.73182 52.60462,-2.67731 14.51156,-0.80236 28.67793,-1.62385 42.42562,-2.44765 6.40925,-0.22156 12.72522,-0.43987 18.93945,-0.65535 7.51364,5.01395 15.5292,10.05456 22.10575,16.88384 2.49821,2.72701 4.65539,5.97873 6.0224,9.71462 0.53466,3.11113 -0.007,6.38627 -1.35368,9.43146 10.64559,-1.45312 20.93556,-2.84431 30.82208,-4.16632 -1.4625,-3.36188 -2.53554,-6.91824 -3.0108,-10.48816 -0.47526,-3.56992 -0.35291,-7.15345 0.51331,-10.60414 1.47239,-4.18077 3.59575,-7.83031 5.98037,-11.0744 2.38463,-3.2441 5.0309,-6.08273 7.6401,-8.62239 7.64845,-1.23587 14.76729,-1.95443 21.29023,-2.69649 6.52293,-0.74206 12.45126,-1.50134 17.76488,-2.46292 3.44588,-0.60367 6.63357,-1.29064 9.53746,-2.06562 2.90389,-0.77499 5.52475,-1.63678 7.86339,-2.54494 5.32678,-2.06743 9.16086,-4.37167 11.70082,-6.0112 2.53996,-1.63952 3.8471,-2.59253 4.05142,-2.38033 0.10216,0.1061 -0.0815,0.49236 -0.56803,1.13172 -0.48648,0.63937 -1.27706,1.53148 -2.41675,2.60569 -2.27938,2.1484 -5.99076,5.05396 -11.41165,7.72763 -2.37237,1.17 -5.05456,2.29737 -8.03305,3.33046 -2.97849,1.03308 -6.25404,1.97067 -9.77837,2.80103 -5.2438,1.21045 -11.03995,2.1771 -17.27372,3.06635 -6.23376,0.88925 -12.90591,1.69475 -19.83053,2.9357 -2.08994,2.40164 -4.14702,4.92302 -5.86165,7.61422 -1.71463,2.6912 -3.08716,5.55213 -3.71684,8.64937 -1.06742,3.24422 -1.49832,6.75799 -1.46151,10.43642 0.0368,3.67842 0.54148,7.52159 1.28293,11.39107 -12.14641,1.61571 -25.10572,3.32441 -38.77805,5.11369 -0.46923,-3.43382 -1.46445,-6.94745 -3.2095,-10.12427 -0.82968,-2.32308 -2.43662,-4.54494 -4.37341,-6.67778 -4.58151,-5.39764 -11.10957,-9.5641 -17.84275,-14.44816 -5.26009,0.55141 -10.58387,1.11107 -15.96811,1.67774 -13.76121,0.96847 -27.94596,1.90513 -42.48047,2.79072 -17.12306,1.04336 -34.73725,2.02121 -52.72482,2.83533 -0.64193,0.0291 -1.28438,0.058 -1.92735,0.0868 -15.69606,0.70204 -31.16493,1.27292 -46.32042,1.44194 -8.9593,0.12117 -17.72104,1.42175 -25.63577,4.37288 -3.935,1.4741 -7.60721,3.30352 -10.70709,5.66833 -2.97314,2.27368 -5.48939,5.00904 -7.08179,8.08014 -0.82671,1.38504 -0.94334,3.46322 -0.74925,5.56642 0,1e-5 0,1e-5 0,2e-5 0.17424,0.94654 0.32637,1.70155 0.62056,2.08865 1e-5,10e-6 1e-5,10e-6 1e-5,10e-6 0.1837,0.1735 0.23499,0.35252 0.0259,0.17551 0,-1e-5 0,-1e-5 0,-1e-5 6.93299,1.91042 13.98679,3.13569 20.98505,4.07719 8.24783,1.10532 16.37555,1.76009 24.30659,2.19366 1e-5,0 2e-5,0 2e-5,0 18.20148,0.99434 35.26649,0.82915 50.83595,0.37255 15.3276,-0.45078 29.19253,-1.24057 41.34564,-2.08701 0,0 10e-6,0 10e-6,0 4.39285,-0.306 8.55904,-0.62063 12.48789,-0.94329 1.15117,-0.0945 2.28058,-0.18958 3.38804,-0.28671 0.29514,-0.0259 0.58804,-0.0518 0.87869,-0.0781 -10e-6,10e-6 -2e-5,3e-5 -3e-5,5e-5 -0.19071,0.33271 -0.38069,0.66409 -0.56996,0.99411 -0.0482,0.084 -0.0963,0.16786 -0.14434,0.25166 -0.0165,0.0288 -0.033,0.0576 -0.0495,0.0864 -10e-6,10e-6 -2e-5,3e-5 -3e-5,5e-5 -1.09686,-5.9646 -3.35474,-11.20404 -5.76578,-15.48441 0,0 0,-1e-5 -10e-6,-1e-5 -1.44499,-3.03333 -2.97613,-5.62478 -4.37008,-7.8449 -1.39396,-2.22011 -2.6543,-4.06745 -3.66925,-5.56868 -2.02991,-3.00245 -3.06126,-4.63059 -2.81784,-4.84001 z"
       id="path3861"
       inkscape:path-effect="#path-effect3863"
       inkscape:original-d="m 708.18149,473.81391 c 10.81171,12.5667 16.43543,22.23338 17.98004,34.80008 0,0 -104.03604,12.74762 -156.02033,-1.16001 -4.7616,-1.2739 -5.17552,-10.12765 -2.90001,-14.50003 7.99298,-15.35849 30.24777,-20.64695 47.5601,-20.88004 54.50404,-0.73383 160.66034,-8.12002 160.66034,-8.12002 16.49606,11.46069 28.06857,19.10196 26.10006,33.64007 l 34.80007,-4.64001 c -5.19968,-17.06055 -1.37221,-27.01914 10.44002,-39.44008 25.08484,-4.26339 52.87425,-3.65855 70.76015,-20.88004 l 0,0"
       inkscape:connector-curvature="0"
       sodipodi:nodetypes="ccsascccccc" />
    <path
       style="fill:#000000;fill-rule:evenodd;stroke:none"
       d="m 890.88187,450.61387 c 0.63893,0.0426 1.18254,1.03101 1.54264,2.73229 0.36011,1.70128 0.53607,4.11493 0.49428,7.05144 -0.0418,2.93651 -0.3014,6.3958 -0.75259,10.23604 -0.45119,3.84024 -1.0935,8.06178 -1.84357,12.56821 0,1e-5 0,1e-5 0,1e-5 1.23246,-0.63365 2.46915,-1.27238 3.70424,-1.92087 4.68642,-2.46063 8.84594,-4.8425 12.48863,-7.25083 2.86321,-1.21448 5.44519,-2.52828 7.71156,-3.80101 2.26637,-1.27273 4.21879,-2.50394 5.86117,-3.54292 1.64239,-1.03898 2.97793,-1.88467 4.01199,-2.38705 1.03405,-0.50237 1.77052,-0.65922 2.16173,-0.34529 0.39121,0.31393 0.40853,1.08054 0.0244,2.22635 -0.38412,1.14581 -1.17375,2.66951 -2.42657,4.4202 -1.25282,1.7507 -2.97245,3.72656 -5.18791,5.72275 -2.21546,1.99618 -4.92892,4.01028 -8.09658,5.81539 -2.70919,1.06422 -5.67826,1.97678 -8.81271,2.74744 -3.13444,0.77066 -6.43339,1.39975 -9.78275,1.94718 -1.76543,0.28855 -3.4965,0.54779 -5.17872,0.79282 0,0 0,0 0,0 -0.0972,-5.28669 -0.12307,-10.31172 -0.0168,-14.83271 0.10623,-4.52099 0.345,-8.53756 0.72,-11.85279 0.37499,-3.31523 0.88613,-5.92918 1.47721,-7.69256 0.59107,-1.76338 1.26147,-2.67669 1.9004,-2.63409 z"
       id="path3865"
       inkscape:path-effect="#path-effect3867"
       inkscape:original-d="m 890.88187,450.61387 -2.32,34.80007 c 13.5859,-4.09573 27.13681,-8.29644 37.70008,-21.46005"
       inkscape:connector-curvature="0"
       sodipodi:nodetypes="ccc" />
    <path
       style="fill:#000000;fill-rule:evenodd;stroke:none"
       d="m 732.54154,510.35399 c -0.043,-0.68866 2.04773,-1.4774 5.86325,-2.3161 3.81551,-0.8387 9.35626,-1.72399 16.20126,-2.64077 6.84501,-0.91679 14.99345,-1.86382 24.01521,-2.89953 9.02177,-1.03571 18.91521,-2.16309 29.26039,-3.50142 0.27367,-0.0354 0.54697,-0.0709 0.8199,-0.10639 10.24699,-1.33711 19.9733,-2.77152 28.77823,-4.24451 8.80493,-1.47298 16.69002,-2.98325 23.31267,-4.30936 6.62265,-1.32612 11.98701,-2.45984 15.76485,-3.08856 3.77785,-0.62871 5.97403,-0.73892 6.20456,-0.0934 0.23053,0.64551 -1.53121,1.98819 -4.98612,3.7618 -3.45491,1.77361 -8.60842,3.96482 -15.14487,6.20454 -6.53645,2.23972 -14.45796,4.51854 -23.37408,6.53904 -8.91612,2.0205 -18.82513,3.77969 -29.25937,5.14555 -0.2778,0.0365 -0.55598,0.0727 -0.83452,0.10859 -10.52969,1.35855 -20.59114,2.22219 -29.74575,2.76259 -9.15462,0.54041 -17.40336,0.7609 -24.3336,0.77641 -6.93024,0.0155 -12.54319,-0.17499 -16.43525,-0.53048 -3.89207,-0.35548 -6.06376,-0.87933 -6.10676,-1.56799 z"
       id="path3869"
       inkscape:path-effect="#path-effect3871"
       inkscape:original-d="m 732.54154,510.35399 c 51.57764,-3.22076 103.17011,-6.397 150.22032,-23.20005"
       inkscape:connector-curvature="0"
       sodipodi:nodetypes="cc" />
    <path
       style="font-size:medium;font-style:normal;font-variant:normal;font-weight:normal;font-stretch:normal;text-indent:0;text-align:start;text-decoration:none;line-height:normal;letter-spacing:normal;word-spacing:normal;text-transform:none;direction:ltr;block-progression:tb;writing-mode:lr-tb;text-anchor:start;baseline-shift:baseline;color:#000000;fill:#000000;fill-opacity:1;stroke:none;stroke-width:1px;marker:none;visibility:visible;display:inline;overflow:visible;enable-background:accumulate;font-family:Sans;-inkscape-font-specification:Sans"
       d="m 545.375,367.78125 -0.34375,0.9375 c 78.54017,26.8986 162.14228,49.72992 226.125,88.125 l 0.5,-0.84375 C 707.49411,417.49726 623.87337,394.66553 545.375,367.78125 z"
       id="path3873"
       inkscape:connector-curvature="0" />
    <path
       style="font-size:medium;font-style:normal;font-variant:normal;font-weight:normal;font-stretch:normal;text-indent:0;text-align:start;text-decoration:none;line-height:normal;letter-spacing:normal;word-spacing:normal;text-transform:none;direction:ltr;block-progression:tb;writing-mode:lr-tb;text-anchor:start;baseline-shift:baseline;color:#000000;fill:#000000;fill-opacity:1;stroke:none;stroke-width:1px;marker:none;visibility:visible;display:inline;overflow:visible;enable-background:accumulate;font-family:Sans;-inkscape-font-specification:Sans"
       d="m 753.0625,348.65625 -0.4375,0.90625 c 49.8648,26.09797 78.3521,59.69443 84.96875,101.125 l 1,-0.15625 c -6.67399,-41.78963 -35.49245,-75.68597 -85.53125,-101.875 z"
       id="path3875"
       inkscape:connector-curvature="0" />
    <path
       style="fill:#000000;fill-rule:evenodd;stroke:none"
       d="m 416.44088,244.71343 c -0.002,-0.16711 0.35221,-0.34265 1.06247,-0.49659 0.71026,-0.15393 1.77771,-0.28698 3.19094,-0.30301 1.41324,-0.016 3.17508,0.0837 5.23067,0.47645 2.05558,0.39273 4.40843,1.07694 6.9121,2.33188 2.88867,1.48524 5.87058,3.62925 8.73122,6.47162 2.86063,2.84238 5.59607,6.39181 8.0656,10.36988 3.13862,4.98476 6.0942,10.71121 8.79246,17.08254 2.69825,6.37133 5.13567,13.38921 7.44524,20.80974 2.73245,9.39441 5.19847,19.56886 7.38235,30.38811 2.18389,10.81924 4.08535,22.28303 5.82987,34.2203 0,1e-5 0,1e-5 0,2e-5 21.8171,-0.33953 45.11498,-1.27674 69.30209,-2.76576 29.59879,-1.82217 57.74831,-4.26075 83.37459,-6.65103 25.62627,-2.39029 48.72869,-4.72295 68.17527,-6.55987 19.44659,-1.83691 35.23637,-3.18259 46.19221,-3.86028 10.95584,-0.6777 17.07731,-0.69954 17.15365,-0.0138 0.0763,0.68576 -5.90392,2.00987 -16.83448,3.78586 -10.93056,1.77599 -26.81185,4.01528 -46.51554,6.47048 -19.7037,2.45519 -43.23098,5.13087 -69.4189,7.58726 -26.18792,2.45639 -55.03784,4.68496 -85.33234,6.08206 -24.75562,1.14166 -48.56625,1.61969 -70.74215,1.4637 0,0 0,-10e-6 0,-10e-6 -2.50238,-12.69127 -5.02715,-24.81081 -7.6773,-36.18844 -2.65016,-11.37763 -5.42554,-22.01365 -8.30444,-31.78795 -2.02319,-7.38038 -4.07453,-14.26661 -6.34073,-20.49369 -2.2662,-6.22708 -4.74419,-11.79737 -7.40352,-16.67625 -2.12947,-3.84587 -4.34095,-7.26311 -6.65172,-10.02745 -2.31076,-2.76434 -4.71735,-4.88462 -7.10552,-6.42988 -1.99176,-1.32679 -3.98067,-2.19701 -5.7702,-2.82746 -1.78952,-0.63044 -3.38329,-1.01983 -4.68705,-1.31003 -1.30376,-0.29019 -2.32057,-0.48041 -3.00774,-0.65318 -0.68717,-0.17278 -1.04665,-0.32813 -1.0491,-0.49524 z"
       id="path3877"
       inkscape:path-effect="#path-effect3879"
       inkscape:original-d="m 416.44088,244.71343 c 20.67762,-0.30292 41.16811,13.05413 60.32012,124.12026 90.3905,-0.3771 188.61421,-11.72068 286.52061,-22.62004"
       inkscape:connector-curvature="0"
       sodipodi:nodetypes="ccc" />
    <path
       style="fill:#000000;fill-rule:evenodd;stroke:none"
       d="m 452.98095,266.17348 c -0.10737,-0.68159 2.56734,-1.77654 7.51722,-3.12836 4.94987,-1.35182 12.17651,-2.95842 21.17397,-4.59093 17.99494,-3.26502 43.11339,-6.61837 70.99468,-7.92441 13.94064,-0.65301 27.24517,-0.72726 39.32923,-0.34477 12.08406,0.38249 22.94673,1.21832 32.03267,2.25428 9.08593,1.03596 16.39542,2.26411 21.40715,3.38519 5.01173,1.12108 7.72715,2.12383 7.6455,2.80898 -0.0816,0.68515 -2.9494,0.9885 -8.04742,1.05912 -5.09801,0.0706 -12.42732,-0.0802 -21.45791,-0.2083 -9.03059,-0.12813 -19.76361,-0.22592 -31.67775,-0.0984 -11.91415,0.12749 -25.01004,0.48328 -38.76166,1.13274 -27.50324,1.29892 -52.44223,3.50545 -70.54784,4.95482 -9.05281,0.72469 -16.39879,1.25656 -21.51036,1.42133 -5.11156,0.16478 -7.99011,-0.0397 -8.09748,-0.72126 z"
       id="path3881"
       inkscape:path-effect="#path-effect3883"
       inkscape:original-d="m 452.98095,266.17348 c 65.40193,-10.30259 131.62121,-15.70113 200.10042,-7.54002"
       inkscape:connector-curvature="0"
       sodipodi:nodetypes="cc" />
    <path
       style="fill:#000000;fill-rule:evenodd;stroke:none"
       d="m 328.28069,318.37359 c 0.21269,-0.33652 1.80812,0.23214 4.65898,1.51541 2.85085,1.28326 6.9622,3.27276 12.26869,5.69393 5.30648,2.42118 11.81374,5.26594 19.43589,8.30197 7.62215,3.03602 16.36361,6.25768 26.04112,9.57934 0,0 1e-5,0 1e-5,0 9.03625,3.56991 18.87306,7.319 29.35118,11.3207 10.47811,4.0017 21.59794,8.25719 33.14633,13.00821 -1.66595,-1.33104 -2.87547,-2.35994 -4.02023,-2.96365 -0.21455,-2.79088 -0.31774,-5.55099 -0.40909,-8.26691 -0.25269,-7.41221 -0.40686,-14.91708 -0.76104,-22.46532 -0.0777,-1.64705 -0.16272,-3.29724 -0.2578,-4.94976 -0.40838,-7.09787 -0.99369,-14.04081 -1.91582,-20.77867 -1.13345,-8.1424 -2.61828,-15.8999 -5.25498,-22.8689 -0.93259,-2.53672 -2.35071,-4.97591 -3.98288,-7.32999 -2.01389,-2.87943 -4.35964,-5.49212 -6.90701,-7.81861 -6.24643,-5.67801 -13.69137,-9.51048 -21.12955,-11.0822 -4.65229,-0.99997 -9.34841,-1.1582 -13.80027,-0.68842 -5.76509,0.6 -11.17099,2.27063 -16.03405,4.35875 0,0 -1e-5,0 -1e-5,0 -6.88991,2.93817 -12.6521,6.65491 -17.52193,10.27697 -4.86982,3.62205 -8.84587,7.15681 -12.05931,10.10754 -3.21344,2.95073 -5.66328,5.32688 -7.39573,6.87861 -1.73246,1.55174 -2.74822,2.28624 -3.01248,2.07094 -0.26426,-0.2153 0.23412,-1.37059 1.48622,-3.35802 1.2521,-1.98744 3.25702,-4.81383 6.11844,-8.25572 2.86141,-3.4419 6.57839,-7.5088 11.38203,-11.73416 4.80365,-4.22535 10.69407,-8.61698 18.03654,-12.33172 0,0 10e-6,0 10e-6,0 5.24135,-2.63516 11.26301,-4.82233 17.98059,-5.8471 5.20213,-0.7868 10.77563,-0.81906 16.43725,0.18066 4.52457,0.81243 9.03684,2.27248 13.37415,4.36735 4.3373,2.09486 8.4995,4.8246 12.29241,8.13614 3.08635,2.6836 5.9586,5.75629 8.47762,9.20938 2.0424,2.77933 3.89195,5.89833 5.27688,9.39568 3.09995,7.96737 4.8725,16.45617 6.06882,24.95634 1.01247,7.08184 1.64998,14.2978 2.0684,21.58108 0.0974,1.69568 0.18252,3.38405 0.25797,5.06433 0.34918,7.73669 0.46586,15.2914 0.65085,22.63184 0.0694,2.70372 0.13809,5.3242 0.30621,7.8575 -0.90511,2.73056 -1.93213,5.06125 -2.67607,6.90712 -12.63757,-3.65963 -24.86089,-6.99133 -36.33964,-10.29228 -11.47875,-3.30094 -22.21183,-6.57202 -31.94544,-9.90544 0,0 -10e-6,0 -10e-6,0 -9.64404,-3.78458 -18.34237,-7.55448 -25.86795,-11.17882 -7.52558,-3.62435 -13.88195,-7.09683 -18.96477,-10.15605 -5.08281,-3.05921 -8.89755,-5.69692 -11.39371,-7.63196 -2.49615,-1.93505 -3.67951,-3.15957 -3.46682,-3.49609 z"
       id="path3885"
       inkscape:path-effect="#path-effect3887"
       inkscape:original-d="m 328.28069,318.37359 c 37.63253,23.7847 83.01798,35.94003 126.44027,51.0401 -2.41899,-8.33495 1.00639,-57.90626 -9.64757,-85.64571 -8.00224,-20.83523 -51.80084,-58.45242 -106.35268,8.50555"
       inkscape:connector-curvature="0"
       sodipodi:nodetypes="ccsc" />
    <path
       style="fill:#000000;fill-rule:evenodd;stroke:none"
       d="m 406.00085,259.79346 c 0.67341,0.38508 0.58304,2.03664 -0.20575,4.63778 -0.78879,2.60115 -2.30504,6.13224 -4.2107,10.2698 -1.94051,4.22134 -4.26417,9.13937 -6.45858,14.5692 -1.15954,2.8442 -2.29971,5.84422 -3.40558,8.96727 -1.84094,5.19892 -3.41851,10.25022 -4.82797,14.89771 -1.40945,4.6475 -2.65314,8.8883 -3.7893,12.45547 -1.13615,3.56717 -2.16462,6.45978 -3.0908,8.4297 -0.92618,1.96991 -1.74943,3.01831 -2.43138,2.91324 -0.68195,-0.10507 -1.15909,-1.35372 -1.41374,-3.53523 -0.25465,-2.18151 -0.28742,-5.29733 -0.0248,-9.12444 0.26259,-3.82711 0.82186,-8.36732 1.80415,-13.35856 0.98229,-4.99124 2.39185,-10.43394 4.36595,-16.00916 1.18587,-3.34909 2.50908,-6.55414 3.9326,-9.55839 2.75397,-5.77409 5.84846,-10.65915 8.69534,-14.56203 2.77134,-3.79934 5.23919,-6.67552 7.13534,-8.57401 1.89614,-1.8985 3.25184,-2.80343 3.92525,-2.41835 z"
       id="path3889"
       inkscape:path-effect="#path-effect3891"
       inkscape:original-d="m 406.00085,259.79346 c -10.25189,17.92803 -21.11604,29.73347 -28.42006,77.14017"
       inkscape:connector-curvature="0"
       sodipodi:nodetypes="cc" />
    <path
       style="fill:#000000;fill-rule:evenodd;stroke:none"
       d="m 330.60622,404.79732 c 0.0254,-0.0396 0.0561,-0.0757 0.0919,-0.10825 0.0388,-0.0297 0.0844,-0.0549 0.13663,-0.0756 0,0 0,0 0,0 0.10428,-0.0414 0.23506,-0.065 0.3916,-0.0712 0,0 0,0 0,0 0,0 0,0 0,0 0.31203,-0.0124 0.72639,0.0442 1.23728,0.16669 0,0 0,0 0,0 1.01421,0.24311 2.40867,0.74554 4.1378,1.48188 0,0 0,0 0,0 3.39458,1.44557 8.07836,3.79235 13.70621,6.84704 0,0 0,0 0,0 10.2329,5.55423 23.58142,13.45083 37.98752,22.50334 0.48554,0.3051 0.96938,0.60969 1.45142,0.91371 7.43022,4.68581 14.42085,9.24006 20.7296,13.43946 6.30876,4.1994 11.93639,8.04425 16.614,11.35916 0,0 0,0 0,0 2.45713,1.73914 4.62551,3.32958 6.50355,4.7286 1.87804,1.39902 3.465,2.60868 4.7232,3.62609 0,0 0,0 0,0 0.62555,0.49584 1.12765,0.939 1.55448,1.3189 0.42682,0.3799 0.77725,0.69865 1.05778,0.97351 0,0 0,0 0,0 0.11973,0.11823 0.20247,0.22191 0.2752,0.31212 0,0 0,0 0,0 -0.0309,0.16598 -0.11607,0.30167 -0.16696,0.38713 0,0 0,0 0,0 0.0204,0.0932 0.0444,0.15828 0.0662,0.19953 0.0199,0.0376 0.0362,0.0548 0.0472,0.0622 0,0 0,0 0,0 0.0358,0.0242 0.052,-0.0298 0.0876,-0.0784 0.0356,-0.0486 0.0846,-0.0971 0.14245,-0.12922 0.0578,-0.0321 0.12453,-0.0519 0.19039,-0.0392 0.0659,0.0128 0.13801,0.0552 0.1425,0.20733 0,0 0,0 0,0 0.001,0.0467 -0.007,0.10274 -0.0261,0.16624 -0.0206,0.0696 -0.051,0.14902 -0.0885,0.24885 0,10e-6 0,10e-6 0,10e-6 -0.20813,0.10339 -0.47902,0.20787 -0.7154,0.32503 0,0 0,0 0,0 -0.18076,0.03 -0.38434,0.0408 -0.58309,0.0415 0,0 0,0 0,0 -0.44711,0.006 -0.99973,-0.0521 -1.6296,-0.18026 -0.62988,-0.12819 -1.3364,-0.32848 -2.07907,-0.55696 0,0 0,0 0,0 -1.58786,-0.48929 -3.51476,-1.21137 -5.71572,-2.15715 -2.20096,-0.94578 -4.67466,-2.11703 -7.36904,-3.45235 0,0 0,0 0,0 -5.17065,-2.56262 -11.22039,-5.80517 -17.8337,-9.58377 -6.6133,-3.7786 -13.78952,-8.09273 -21.24281,-12.75232 -0.48422,-0.30271 -0.96962,-0.60694 -1.45613,-0.91265 -14.43463,-9.07046 -27.26483,-17.82591 -36.62291,-24.76904 0,0 0,0 0,0 -5.14706,-3.81877 -9.24398,-7.0911 -11.97765,-9.57217 0,0 0,0 0,0 -1.39247,-1.2638 -2.43136,-2.32241 -3.07516,-3.14353 0,0 0,0 0,0 -0.3243,-0.41361 -0.54839,-0.767 -0.66693,-1.056 0,0 0,0 0,0 0,0 0,0 0,0 -0.0595,-0.14498 -0.0924,-0.27377 -0.0981,-0.38584 0,0 0,0 0,0 -0.003,-0.0561 0.001,-0.10805 0.012,-0.15573 0.0147,-0.0461 0.0348,-0.089 0.0603,-0.1286 z"
       id="path3893"
       inkscape:path-effect="#path-effect3895"
       inkscape:original-d="m 330.6007,404.79377 c 0,0 113.68023,73.08015 110.78023,67.86014"
       inkscape:connector-curvature="0" />
    <path
       style="fill:#000000;fill-rule:evenodd;stroke:none"
       d="m 424.42574,350.98762 c -0.056,0.0228 -0.11673,0.0333 -0.18176,0.0327 -0.0618,-7e-4 -0.12766,-0.0118 -0.19764,-0.033 0,0 0,0 0,0 0,0 0,0 0,0 -0.13648,-0.0412 -0.28824,-0.12035 -0.45608,-0.23638 0,0 0,0 0,0 0,0 0,0 0,0 -0.31893,-0.22047 -0.69424,-0.57083 -1.13197,-1.03728 0,0 0,0 0,0 -0.76983,-0.82013 -1.72027,-1.99868 -2.92326,-3.36253 0,0 0,0 0,0 -0.94722,-1.06424 -1.99265,-2.2411 -3.23648,-3.13197 0,0 0,0 0,0 -0.93576,-0.53358 -1.67541,-1.06856 -1.81824,-0.72445 0,0 0,0 0,0 -4.65826,0.10928 -10.1574,0.096 -16.26852,-0.0438 0,0 0,0 0,0 0,0 -1e-5,0 -1e-5,0 -0.13749,0.0264 -0.31738,0.11054 -0.38994,0.2055 0,0 0,0 0,0 -0.17111,0.0898 -0.40412,0.42738 -0.73766,0.87267 0,0 0,0 0,0 -0.85515,1.15904 -1.2882,2.97772 -1.6936,5.11632 0,0 0,0 0,0 -0.3323,2.21646 -0.36372,4.52254 0.005,6.76424 0.32736,1.45811 0.6094,2.7605 1.07343,3.61554 0.14108,0.25994 0.2984,0.47664 0.47821,0.64348 0.32049,0.37696 0.70587,0.69023 1.06102,0.81964 0.39045,0.20815 1.04932,0.27092 1.84735,0.31312 2.11581,0.10112 4.61703,-0.65392 7.40696,-1.35741 3.13931,-0.85943 6.45461,-1.82891 9.89657,-2.35737 0,0 1e-5,0 1e-5,0 1.72185,-0.31581 3.56468,-0.43251 5.41264,-0.27801 1.84797,0.15451 3.70092,0.58008 5.46599,1.30688 2.89778,1.37922 4.86346,3.18088 6.35953,4.81212 2.14969,2.2627 3.73914,4.44059 4.97814,6.34607 2.90735,5.01266 4.18076,8.12836 3.41731,8.7076 0,0 0,0 0,1e-5 0,0 0,0 0,0 0,0 0,0 0,0 -0.008,0.006 -0.008,0.006 -0.008,0.006 0,0 0,2e-5 -0.008,0.005 0,0 -10e-6,0 -10e-6,0 0,0 0,0 0,0 0,0 0,0 0,0 -0.78922,0.54585 -3.49935,-1.5007 -7.4756,-5.40847 -1.5917,-1.40434 -3.39896,-3.00391 -5.48512,-4.51511 -1.59832,-1.1257 -3.15868,-2.23991 -4.68316,-2.60946 -0.7747,-0.27754 -1.70056,-0.33666 -2.76451,-0.25239 -1.06395,0.0843 -2.26617,0.31187 -3.56994,0.56728 0,0 -10e-6,0 -10e-6,0 -2.61807,0.61561 -5.47509,1.71044 -8.79714,2.79157 -2.74705,0.95946 -6.06281,1.96721 -10.07278,2.11405 -1.70838,0.0609 -3.61061,-0.20186 -5.59523,-0.9366 -2.00462,-0.80742 -3.73551,-2.06999 -5.06759,-3.67712 -0.54744,-0.70629 -1.02755,-1.42815 -1.44513,-2.1575 -1.37353,-2.39899 -2.04231,-4.82306 -2.26902,-6.99753 -0.49497,-3.42055 -0.36091,-6.80134 0.26275,-9.96652 0,0 0,0 0,0 0.50696,-2.99771 1.69404,-6.15902 3.76808,-8.96162 0,0 0,0 0,0 0.92263,-1.25363 2.21749,-2.40556 3.84477,-3.30601 0,0 0,0 0,0 1.70232,-0.88238 3.55137,-1.22846 5.37358,-1.07141 0,0 0,0 0,0 0,10e-6 0,10e-6 0,10e-6 0,0 0,0 0,0 6.0756,0.67267 11.52785,1.38944 16.13037,2.11611 0,0 0,0 0,0 2.87754,0.54547 4.56063,1.9434 5.51728,3.26599 0,0 0,0 0,0 1.49858,1.79903 2.35785,3.52082 2.96203,4.98887 0,0 0,0 0,0 0.79638,1.89965 1.20085,3.47607 1.36806,4.64244 0,0 0,0 0,0 0.0956,0.66411 0.11184,1.20052 0.0578,1.5948 0,0 0,0 0,0 0,0 0,0 0,0 -0.0284,0.20747 -0.076,0.37661 -0.14227,0.50484 0,0 0,0 0,0 0,0 0,0 0,0 -0.034,0.0655 -0.0728,0.12057 -0.11627,0.16485 -0.0458,0.0465 -0.0967,0.0815 -0.15275,0.10433 z"
       id="path3897"
       inkscape:path-effect="#path-effect3899"
       inkscape:original-d="m 424.42576,350.98768 c 0,0 -4.61462,-11.53927 -9.71968,-11.87961 l -16.19945,-1.07996 c -8.45434,-0.56362 -10.82257,18.32861 -5.39982,24.83917 7.14581,8.57928 23.09581,-5.18592 33.47887,-1.07997 7.1014,2.80823 16.19946,16.19946 16.19946,16.19946"
       inkscape:connector-curvature="0"
       sodipodi:nodetypes="cssaac" />
    <path
       style="fill:#000000;fill-rule:evenodd;stroke:none"
       d="m 763.46083,334.45252 c -0.10686,-0.0816 -0.19893,-0.18026 -0.27879,-0.29283 0,0 0,0 0,0 -0.0748,-0.10572 -0.13825,-0.22446 -0.19088,-0.35597 0,0 0,0 0,0 0,0 0,0 0,0 0,0 0,0 0,0 -0.10163,-0.2509 -0.16557,-0.5458 -0.19606,-0.88262 0,0 0,0 0,0 -0.055,-0.60821 -0.004,-1.3455 0.0939,-2.17929 0,0 0,0 0,0 0.0648,-0.66278 0.18008,-1.34178 0.23534,-1.89116 0.0553,-0.54938 0.0522,-0.96651 -0.24293,-1.07892 0,0 0,0 0,0 0,0 0,0 0,0 -0.35458,-1.32841 -0.84735,-2.77115 -1.51683,-4.10828 -0.66949,-1.33713 -1.50668,-2.56356 -2.61024,-3.32262 -0.008,-0.005 -0.0152,-0.0104 -0.0228,-0.0156 -0.71015,-0.5796 -1.64012,-1.0142 -2.59567,-1.32614 -1.01881,-0.22181 -1.81608,-0.47143 -2.31002,-0.39507 0,0 0,0 0,0 0.142,-0.45397 0.11256,-0.48402 -0.0636,-0.31863 -0.17613,0.16539 -0.49759,0.52588 -0.90727,0.91919 0,0 0,0 0,0 -0.46704,0.69394 -1.04134,1.57861 -1.683,2.31077 -0.64167,0.73215 -1.3414,1.31286 -1.97536,1.62926 0,0 0,0 0,0 -0.47527,0.2819 -0.81309,0.30282 -1.094,0.27446 0,0 0,0 0,0 -0.20994,-0.008 -0.3952,-0.0456 -0.55689,-0.1081 0,0 0,0 0,0 0,0 -10e-6,0 -10e-6,0 -0.2027,-0.16496 -0.32621,-0.25467 -0.39933,-0.30148 -0.0719,-0.046 -0.096,-0.05 -0.1026,-0.0497 0,0 0,0 0,0 -0.002,1e-4 -0.002,-1.3e-4 -0.002,-1.3e-4 0,0 -2.7e-4,2.3e-4 7e-5,-0.002 0,0 0,0 0,0 0.001,-0.006 3.1e-4,-0.0307 -0.0367,-0.10768 -0.0377,-0.0782 -0.11195,-0.21174 -0.25233,-0.43288 0,0 0,0 0,0 0,0 0,0 0,0 -0.0504,-0.16284 -0.0824,-0.34011 -0.10224,-0.5283 0,0 0,0 0,0 -0.0143,-0.28138 0.007,-0.57867 -0.12135,-0.75634 0,0 0,0 0,0 -0.0521,-0.45497 -0.13021,-0.94569 -0.20736,-1.59678 -0.0771,-0.65109 -0.15883,-1.4701 0.0228,-2.62073 0,0 0,0 0,0 4.8e-4,-0.77309 0.18567,-1.69889 0.74419,-2.72937 0.55852,-1.03047 1.49154,-2.1665 3.02047,-3.28919 0,0 0,0 0,0 2.38038,-1.30953 5.2234,-1.84498 7.82613,-1.37927 2.35554,0.31665 4.80392,1.26322 6.97038,2.94176 0.0188,0.0156 0.0376,0.0312 0.0564,0.0469 2.72698,2.27631 4.43111,5.12899 5.27122,7.8908 0.8401,2.7618 0.83123,5.42527 0.37365,7.60176 0,0 0,0 0,0 0,0 0,0 0,0 -0.34803,1.68771 -0.93152,2.84535 -1.53633,3.68263 -0.60481,0.83728 -1.23303,1.35671 -1.7933,1.72389 0,0 0,0 0,0 -0.78411,0.61927 -1.50913,1.00517 -2.1281,1.19014 0,0 0,0 0,0 -0.34302,0.10269 -0.65591,0.14525 -0.93123,0.12651 0,0 0,0 0,0 0,0 0,0 0,0 0,0 0,0 0,0 -0.14328,-0.0103 -0.27694,-0.0366 -0.39999,-0.0792 0,0 0,0 0,0 -0.1311,-0.0455 -0.25085,-0.10862 -0.3577,-0.19027 z"
       id="path3901"
       inkscape:path-effect="#path-effect3903"
       inkscape:original-d="m 763.46073,334.45265 c 0,0 3.21181,-4.12093 3.2837,-6.5674 0.12243,-4.16619 -1.64705,-8.91934 -4.92556,-11.49296 -2.61856,-2.05557 -6.85247,-3.08767 -9.8511,-1.64185 -2.53773,1.22359 -2.40805,5.13913 -4.10463,7.38833 -0.23304,0.30895 -0.82092,0.82092 -0.82092,0.82092 l 0,0"
       inkscape:connector-curvature="0"
       sodipodi:nodetypes="caaaaac" />
    <path
       id="path3906"
       d="m 815.17439,462.63218 3.52625,3.96153 -1.49918,4.93225 -3.51896,-3.92954 z m 2.02707,8.89378 4.90288,-0.94704 3.44309,3.87738 -4.90287,0.94705 z m 0,0 -4.90286,0.94704 -1.45977,4.82444 4.90286,-0.94705 z"
       inkscape:connector-curvature="0"
       style="fill:#e20048;stroke:#ffffff" />
    <path
       style="fill:#000000;fill-rule:evenodd;stroke:none"
       d="m 299.2809,433.07707 c 1.29351,-0.21308 2.99485,2.94508 4.85474,8.17337 0.92995,2.61415 1.90479,5.74082 2.94997,9.19605 1.04519,3.45524 2.16188,7.23684 3.41827,11.17226 0,0 0,0 0,1e-5 0.26703,0.8291 0.53432,1.65551 0.80817,2.47376 0.65313,1.95156 1.31678,3.76619 2.06196,5.41358 0.81109,1.6139 1.32116,2.85346 1.95438,3.46519 0.28198,0.11661 0.14467,0.40126 -0.45493,0.30913 -0.31798,0.39996 0.0581,0.0514 0.82834,-0.3423 1.30105,-0.96669 2.35901,-2.1909 3.31073,-3.38443 0.95171,-1.19352 1.7937,-2.35615 2.55993,-3.31073 0.76623,-0.95459 1.45295,-1.70356 2.04689,-2.16366 0.59393,-0.4601 1.09318,-0.63519 1.48187,-0.48731 0.38869,0.14788 0.64725,0.60795 0.78234,1.35089 0.1351,0.74294 0.15053,1.77049 -0.003,3.06324 -0.15353,1.29275 -0.47339,2.85437 -1.11529,4.63255 -0.64189,1.77817 -1.60578,3.77661 -3.17478,5.85311 -0.90456,1.38215 -2.65505,2.8059 -5.62674,3.5366 -2.88732,0.193 -5.37667,-0.63901 -6.91002,-2.17829 -2.10196,-1.88324 -3.56275,-4.06948 -4.5007,-6.04128 -1.08251,-2.09955 -1.97884,-4.3045 -2.72824,-6.5332 -0.3142,-0.93445 -0.59733,-1.85533 -0.85671,-2.75768 0,0 0,0 0,0 -1.24205,-4.28226 -2.08435,-8.39027 -2.63782,-12.12463 -0.55346,-3.73435 -0.82038,-7.0963 -0.8824,-9.92371 -0.12405,-5.65483 0.53953,-9.17944 1.83304,-9.39252 z"
       id="path3915"
       inkscape:path-effect="#path-effect3917"
       inkscape:original-d="m 299.2809,433.07707 c 8.60677,52.24803 17.21355,53.13664 25.82032,30.51492"
       inkscape:connector-curvature="0"
       sodipodi:nodetypes="cc" />
    <path
       style="fill:#000000;fill-rule:evenodd;stroke:none"
       d="m 316.88566,488.23865 c -0.0983,-1.37649 1.8283,-2.7448 4.852,-3.71237 3.0237,-0.96757 7.14447,-1.5344 11.85351,-1.63332 2.77695,-0.0583 5.46462,0.0411 7.94753,0.228 2.48292,0.18686 4.7616,0.46071 6.67121,0.78946 0.16692,-0.50707 0.55164,-0.96249 1.0538,-1.26571 0.50216,-0.30321 1.12067,-0.45336 1.65782,-0.27431 0.53715,0.17905 0.9371,0.68458 1.03657,1.58945 0.0995,0.90486 -0.10264,2.20992 -0.67225,3.91243 -1.42944,0.56725 -3.46525,1.14928 -5.94985,1.69097 -2.4846,0.54168 -5.41747,1.04262 -8.59166,1.40936 -5.38267,0.62192 -10.40295,0.70802 -13.99737,0.21317 -3.59442,-0.49485 -5.76299,-1.57064 -5.86131,-2.94713 z"
       id="path3919"
       inkscape:path-effect="#path-effect3921"
       inkscape:original-d="m 316.88566,488.23865 32.86222,-2.3473 1.17365,-3.52095 0,0 0,0"
       inkscape:connector-curvature="0" />
    <path
       style="fill:#000000;fill-rule:evenodd;stroke:none"
       d="m 482.3704,462.41834 c 0.33065,0.10513 0.32072,1.23139 0.0442,3.27817 -0.27647,2.04678 -0.81564,5.01516 -1.49789,8.82556 -0.68225,3.8104 -1.50348,8.46429 -2.35921,13.88352 -0.85573,5.41923 -1.74265,11.60521 -2.62751,18.45912 0,0 0,10e-6 0,10e-6 -1.83049,14.23976 -3.60773,31.32878 -3.97475,50.30019 -0.14118,7.35932 -0.0703,14.96976 0.50575,22.7243 0.46691,6.17469 1.18229,12.37645 2.68613,18.38085 1.06558,4.02952 2.2343,7.86746 4.22286,10.85832 0.18011,0.2709 0.36669,0.53431 0.56022,0.78982 0.85645,1.1355 1.73115,2.09343 2.66096,2.66371 0.81056,0.52995 1.75666,0.88211 2.67033,0.97719 12.65909,1.72305 24.86787,3.43639 36.46953,5.08545 -0.15631,0.0475 -0.31231,0.0945 -0.46838,0.14169 -0.43446,0.13121 -0.86768,0.26122 -1.29962,0.39006 -1e-5,10e-6 -2e-5,10e-6 -3e-5,10e-6 0,0 10e-6,0 10e-6,0 0.0794,-0.0718 0.16194,-0.14804 0.2479,-0.22824 0,0 0,0 0,0 0.31001,-0.28927 0.61875,-0.5892 0.92751,-0.8978 0.98924,-0.99155 1.91133,-2.00042 2.74449,-3.03614 0.97192,-1.23688 1.79941,-2.37383 2.30859,-3.48085 0.31166,-1.03391 0.69037,-1.59331 0.52052,-1.5073 -1.2931,-6.28613 -1.98973,-12.31361 -2.55378,-17.9845 -0.82597,-8.24044 -1.28682,-15.91898 -1.5531,-22.91469 -0.35194,-9.22758 -0.34413,-17.29925 -0.11264,-23.94461 0.23061,-6.644 0.68701,-11.88669 1.22413,-15.43822 0.53712,-3.55153 1.11975,-5.41687 1.57899,-5.38871 0.45924,0.0282 0.76684,1.94098 1.07729,5.4737 0.31044,3.53273 0.65931,8.68666 1.16542,15.24796 0.50679,6.55039 1.17437,14.48213 2.11904,23.55009 0.71684,6.87652 1.57809,14.39257 2.74196,22.40556 0.81077,5.55896 1.68933,11.30033 3.07599,17.0408 0.47826,2.99468 -0.0392,5.50499 -0.98298,7.23304 -0.93061,2.06053 -2.09461,3.85348 -3.30651,5.41229 -1.04027,1.36263 -2.15583,2.65343 -3.32287,3.87713 -0.36496,0.38354 -0.74185,0.76743 -1.13223,1.14993 0,0 0,0 0,0 -0.10812,0.10594 -0.22079,0.21497 -0.33834,0.32675 0,10e-6 -10e-6,10e-6 -10e-6,10e-6 -1e-5,1e-5 -2e-5,1e-5 -3e-5,1e-5 -0.48419,0.17756 -0.96978,0.35617 -1.45683,0.53578 -0.17489,0.0645 -0.35021,0.12932 -0.52551,0.19402 -12.6956,-1.01774 -26.20586,-2.12731 -40.23617,-3.33368 -2.51935,-0.28172 -4.92224,-1.14292 -7.03243,-2.51409 -2.19474,-1.46349 -3.95617,-3.2573 -5.30749,-5.16749 -0.28465,-0.40416 -0.55851,-0.81214 -0.82204,-1.22347 -2.90949,-4.5412 -4.50712,-9.3913 -5.54004,-13.92153 -1.64687,-6.84723 -2.38018,-13.61398 -2.75538,-20.10496 -0.48416,-8.19106 -0.40154,-16.11238 -0.0545,-23.67621 0.89104,-19.48429 3.46115,-36.83502 6.2589,-51.13292 0,0 0,0 0,-1e-5 1.34052,-6.86772 2.73693,-13.06712 4.13589,-18.46856 1.39896,-5.40144 2.79702,-10.00592 4.07615,-13.72323 1.27913,-3.7173 2.43525,-6.54892 3.3431,-8.42494 0.90784,-1.87602 1.56374,-2.79802 1.89439,-2.69289 z"
       id="path3923"
       inkscape:path-effect="#path-effect3925"
       inkscape:original-d="m 482.3704,462.41834 c -15.01664,47.22855 -25.93052,152.99177 2.3473,156.09553 l 38.35283,4.20959 c 0,0 9.20615,-8.36463 8.02317,-13.67379 -4.03615,-18.11398 -7.26428,-60.78195 -5.79805,-84.69442"
       inkscape:connector-curvature="0"
       sodipodi:nodetypes="cscsc" />
  </g>
</svg>
