<?xml version="1.0" encoding="UTF-8" standalone="no"?>
<svg
   xmlns:dc="http://purl.org/dc/elements/1.1/"
   xmlns:cc="http://creativecommons.org/ns#"
   xmlns:rdf="http://www.w3.org/1999/02/22-rdf-syntax-ns#"
   xmlns:svg="http://www.w3.org/2000/svg"
   xmlns="http://www.w3.org/2000/svg"
   xmlns:sodipodi="http://sodipodi.sourceforge.net/DTD/sodipodi-0.dtd"
   xmlns:inkscape="http://www.inkscape.org/namespaces/inkscape"
   id="svg4347"
   sodipodi:docname="maintenance_types.svg"
   viewBox="0 0 867.15487 552.5243"
   version="1.1"
   inkscape:version="1.0.1 (3bc2e813f5, 2020-09-07)"
   width="867.15485"
   height="552.52429">
  <defs
     id="defs19" />
  <title
     id="title3100">Calendar</title>
  <sodipodi:namedview
     id="namedview86"
     fit-margin-left="0"
     inkscape:zoom="0.55009893"
     borderopacity="1"
     inkscape:current-layer="svg4347"
     inkscape:cx="582.73795"
     inkscape:cy="375.83899"
     inkscape:window-maximized="1"
     showgrid="false"
     fit-margin-right="0"
     bordercolor="#666666"
     inkscape:window-x="1072"
     guidetolerance="10"
     objecttolerance="10"
     inkscape:window-y="-8"
     fit-margin-bottom="0"
     inkscape:window-width="1920"
     inkscape:pageopacity="0"
     inkscape:pageshadow="2"
     pagecolor="#ffffff"
     gridtolerance="10"
     inkscape:window-height="1138"
     fit-margin-top="0"
     inkscape:document-rotation="0" />
  <rect
     style="fill:#a62b2b;stroke:#000000;stroke-width:0.580743;stroke-linecap:round;fill-opacity:1;opacity:0.5"
     id="rect865-3"
     width="248.50674"
     height="264.2627"
     x="102.19881"
     y="287.96198" />
  <rect
     style="fill:none;stroke:#000000;stroke-width:0.854;stroke-linecap:round;stroke-miterlimit:4;stroke-dasharray:none"
     id="rect865-3-9-9-6"
     width="203.28737"
     height="61.613087"
     x="125.25838"
     y="442.1026" />
  <metadata
     id="metadata16">
    <rdf:RDF>
      <cc:Work>
        <dc:format>image/svg+xml</dc:format>
        <dc:type
           rdf:resource="http://purl.org/dc/dcmitype/StillImage" />
        <cc:license
           rdf:resource="http://creativecommons.org/publicdomain/zero/1.0/" />
        <dc:publisher>
          <cc:Agent
             rdf:about="http://openclipart.org/">
            <dc:title>Openclipart</dc:title>
          </cc:Agent>
        </dc:publisher>
        <dc:title>Calendar</dc:title>
      </cc:Work>
      <cc:License
         rdf:about="http://creativecommons.org/publicdomain/zero/1.0/">
        <cc:permits
           rdf:resource="http://creativecommons.org/ns#Reproduction" />
        <cc:permits
           rdf:resource="http://creativecommons.org/ns#Distribution" />
        <cc:permits
           rdf:resource="http://creativecommons.org/ns#DerivativeWorks" />
      </cc:License>
    </rdf:RDF>
  </metadata>
  <rect
     style="fill:#ffffff;stroke:#000000;stroke-width:2.0848;stroke-linecap:round"
     id="rect865"
     width="930.92834"
     height="909.11414"
     x="-1810.0145"
     y="-1853.7526" />
  <path
     id="path4"
     inkscape:connector-curvature="0"
     d="m 193.70573,342.79796 -1.0402,2.0801 10.9204,6.2402 c 0,5.2001 -2.0801,9.3602 -6.7602,11.9603 l -10.9202,-6.2402 -0.5201,1.0401 c 2.6001,7.8002 7.8002,13.0004 18.2005,13.0004 2.6001,0 10.4003,7.8001 14.5605,11.9603 l 8.3201,-8.3203 c -4.1601,-4.1601 -13.5204,-13.5204 -13.5204,-16.1204 0,-9.3603 -2.6,-15.6005 -19.2404,-15.6005 z m 65.0018,2.6001 -10.4002,7.2802 -1.0402,4.1601 -30.1608,30.1609 -4.1602,-2.6001 -2.0801,2.0801 c 0,6.2402 -7.2801,9.3603 -10.4002,9.3603 l -17.1605,17.1605 c 0,5.2001 5.7202,10.9203 10.9203,10.9203 l 17.1605,-17.1605 c 0,-3.1201 3.1202,-10.4003 9.3603,-10.4003 l 2.08,-2.0801 -2.5999,-4.1601 30.1608,-30.1609 4.16,-1.0401 7.2804,-10.4002 z m -26.0007,35.361 -8.3204,8.3203 c 6.2403,6.2401 14.5606,14.5604 14.5606,17.1605 0,9.3602 2.5999,15.6004 19.2404,15.6004 l 1.0402,-2.08 -10.9203,-6.2402 c 0,-5.2001 2.08,-9.3603 6.7601,-11.9604 l 10.9203,6.2402 0.52,-1.04 c -2.5999,-7.8002 -7.8002,-13.0004 -18.2004,-13.0004 -2.6002,0 -9.3603,-6.7602 -15.6005,-13.0004 z"
     style="stroke-width:0.520015" />
  <text
     xml:space="preserve"
     style="font-style:normal;font-weight:normal;font-size:21.3333px;line-height:1.25;font-family:sans-serif;fill:#000000;fill-opacity:1;stroke:none"
     x="181.42049"
     y="466.79034"
     id="text884"><tspan
       sodipodi:role="line"
       id="tspan882"
       x="181.42049"
       y="466.79034"
       style="font-style:normal;font-variant:normal;font-weight:bold;font-stretch:normal;font-size:21.3333px;font-family:Arial;-inkscape-font-specification:'Arial Bold'">Reactive</tspan></text>
  <text
     xml:space="preserve"
     style="font-style:normal;font-weight:normal;font-size:18.6667px;line-height:1.25;font-family:sans-serif;fill:#000000;fill-opacity:1;stroke:none"
     x="155.42488"
     y="494.07306"
     id="text884-1"><tspan
       sodipodi:role="line"
       id="tspan882-0"
       x="155.42488"
       y="494.07306"
       style="font-style:normal;font-variant:normal;font-weight:normal;font-stretch:normal;font-size:18.6667px;font-family:Arial;-inkscape-font-specification:'Arial Italic'">Fix when broken</tspan></text>
  <text
     xml:space="preserve"
     style="font-style:normal;font-weight:normal;font-size:18.6667px;line-height:1.25;font-family:sans-serif;fill:#000000;fill-opacity:1;stroke:none"
     x="109.70223"
     y="526.20844"
     id="text884-1-9"><tspan
       sodipodi:role="line"
       id="tspan882-0-4"
       x="109.70223"
       y="526.20844"
       style="font-style:italic;font-variant:normal;font-weight:normal;font-stretch:normal;font-size:18.6667px;font-family:Arial;-inkscape-font-specification:Arial">Machine runs until failure</tspan></text>
  <rect
     style="fill:#caff00;stroke:#000000;stroke-width:0.687079;stroke-linecap:round;fill-opacity:1;opacity:0.5"
     id="rect865-3-9"
     width="248.50674"
     height="369.89725"
     x="359.71054"
     y="182.27422" />
  <g
     id="g970"
     transform="translate(5724.1408,-1309.0219)">
    <path
       id="rect4355"
       style="color:#000000;text-indent:0;text-transform:none;fill:#000000;stroke-width:0.119916"
       inkscape:connector-curvature="0"
       d="m -5205.5921,1572.5966 c -1.3602,0.035 -2.6979,0.1578 -4.0097,0.3598 h 9.6832 c -1.3227,-0.2038 -2.6701,-0.3257 -4.0397,-0.3598 h -1.634 z m -5.9733,0.7233 c -0.4944,0.1086 -0.9836,0.2283 -1.4689,0.3597 h 16.5449 c -0.4867,-0.1316 -0.9773,-0.251 -1.4728,-0.3597 h -13.6034 z m -2.7174,0.727 c -0.362,0.1142 -0.7231,0.233 -1.0792,0.3598 h 21.1989 c -0.3557,-0.1264 -0.7143,-0.2458 -1.0756,-0.3598 h -19.0439 z m -2.0349,0.7195 c -0.2929,0.1151 -0.5844,0.2362 -0.8731,0.3598 h 24.8685 c -0.2917,-0.1247 -0.5848,-0.2435 -0.8807,-0.3598 h -23.1141 z m -1.5552,0.6596 c -0.2565,0.1171 -0.5115,0.236 -0.7644,0.3597 h 27.75 c -0.2521,-0.123 -0.505,-0.2432 -0.7607,-0.3597 h -26.2247 z m -1.484,0.7232 c -0.2249,0.1172 -0.449,0.2373 -0.6707,0.3598 h 30.5333 c -0.2228,-0.1228 -0.445,-0.2423 -0.6708,-0.3598 h -29.1926 z m -1.3105,0.7232 c -0.2009,0.1167 -0.3982,0.2387 -0.5959,0.3597 h 33.0143 c -0.2008,-0.1223 -0.4004,-0.2417 -0.6034,-0.3597 z m -1.173,0.7233 c -0.184,0.1188 -0.3688,0.2372 -0.5508,0.3597 h 35.2699 c -0.182,-0.1213 -0.3636,-0.242 -0.5471,-0.3597 h -34.1728 z m -1.0869,0.7269 c -0.1694,0.1189 -0.3389,0.2377 -0.5058,0.3598 h 16.3722 c 0.6468,-0.057 1.3,-0.092 1.96,-0.1013 0.902,-0.012 1.7931,0.023 2.6718,0.1013 h 16.3496 c -0.1674,-0.1222 -0.3363,-0.2407 -0.506,-0.3598 h -36.342 z m -0.9892,0.7233 c -0.1548,0.118 -0.3081,0.2389 -0.4609,0.3598 h 13.1118 c 0.5256,-0.1362 1.0578,-0.2564 1.5962,-0.3598 h -14.2472 z m 24.0697,0 c 0.5404,0.1038 1.0725,0.2229 1.6003,0.3598 h 13.1164 c -0.1548,-0.1214 -0.3086,-0.2412 -0.4647,-0.3598 h -14.2508 z m -24.9882,0.727 c -0.1443,0.1189 -0.2885,0.2386 -0.4309,0.3598 h 11.6656 c 0.3483,-0.1268 0.7013,-0.2476 1.0568,-0.3598 h -12.2917 z m 27.8614,0 c 0.3559,0.1124 0.7078,0.2327 1.0568,0.3598 h 11.6732 c -0.1423,-0.1212 -0.2862,-0.2411 -0.431,-0.3598 h -12.2986 z m -15.4835,0.4835 a 2.3985779,2.3985779 0 0 0 -2.1811,3.1852 l 6.3105,19.044 c -0.6295,0.9313 -0.8683,2.1191 -0.5546,3.2903 0.033,0.1251 0.075,0.2482 0.1192,0.3672 h -9.0501 v -0.1387 h -10.6239 v 0.1387 h -33.4042 v 5.9959 h 33.4077 v -0.049 h 10.6202 v 0.049 h 10.1067 c 0.2883,0 0.4272,0.1389 0.4272,0.4272 v 60.6479 c 0,0.2883 -0.1381,0.4272 -0.4272,0.4272 h -74.8654 c -0.2891,0 -0.4245,-0.1378 -0.4245,-0.4269 v -60.648 c 0,-0.2881 0.136,-0.4271 0.4234,-0.4271 h 10.1105 v -0.01 h 10.6053 v -0.3598 h -10.6053 v -0.3635 h 10.6053 v -0.3597 h -10.6053 v -0.371 h 10.6053 v -0.3597 h -10.6053 v -0.3598 h 10.6053 v -0.3597 h -10.6053 v -0.3673 h 10.6053 v -0.3597 h -10.6053 v -0.3598 h 10.6053 v -0.3598 h -10.6053 v -0.2998 h 10.6053 v -0.3597 h -10.6053 v -0.3634 h 10.6053 v -0.3598 h -10.6053 v -0.3672 h 10.6053 v -0.3598 h -10.6239 v 0.1013 h -10.0919 c -3.5061,0 -6.4191,2.9163 -6.4191,6.4227 v 60.648 c 0,3.5062 2.913,6.423 6.4191,6.423 h 74.8654 c 3.5062,0 6.423,-2.9169 6.423,-6.423 v -37.7103 h 1.484 c 0.6471,-0.1012 1.289,-0.22 1.9223,-0.3597 h -3.4063 v -0.3598 h 4.868 c 0.4075,-0.1106 0.8132,-0.2334 1.2141,-0.3597 h -6.0821 v -0.3673 h 7.1876 c 0.3191,-0.1138 0.634,-0.2361 0.948,-0.3597 h -8.1356 v -0.3598 h 9.0125 c 0.2707,-0.1159 0.5389,-0.2365 0.8057,-0.3597 h -9.8182 v -0.2998 h 10.4515 c 0.2391,-0.117 0.4764,-0.237 0.712,-0.3598 h -11.1635 v -0.3635 h 11.838 c 0.2137,-0.118 0.4266,-0.237 0.6371,-0.3597 h -12.475 v -0.3673 h 13.0901 c 0.1925,-0.118 0.3837,-0.2377 0.5735,-0.3597 h -13.6633 v -0.3597 h 14.21 c 0.1757,-0.1179 0.3484,-0.2386 0.5209,-0.3598 h -14.7305 v -0.371 h 15.2521 c 0.1611,-0.1181 0.321,-0.2388 0.4798,-0.3598 h -14.2665 c -0.4835,0.093 -0.9722,0.1705 -1.4654,0.2361 v -17.088 c 0,-1.3006 -0.4023,-2.5184 -1.0867,-3.5375 l 10.5339,5.2164 a 2.3985779,2.3985779 0 1 0 2.1287,-4.2983 l -11.2974,-5.5965 c -0.021,-0.2282 -0.063,-0.4564 -0.1234,-0.6858 -0.389,-1.3682 -1.4205,-2.364 -2.6683,-2.7581 l -6.2884,-18.9768 a 2.3985779,2.3985779 0 0 0 -2.3719,-1.6747 z m -13.2246,0.236 c -0.1359,0.1189 -0.268,0.2387 -0.4008,0.3598 h 10.7136 c 0.2747,-0.1241 0.5522,-0.2451 0.8321,-0.3598 z m 30.6988,0 c 0.2823,0.1156 0.5623,0.2347 0.8395,0.3598 h 10.7174 c -0.1318,-0.1201 -0.263,-0.2418 -0.3971,-0.3598 z m -31.4974,0.7271 c -0.1256,0.1188 -0.2509,0.239 -0.3747,0.3597 h 10.0056 c 0.2317,-0.1232 0.4647,-0.2434 0.7007,-0.3597 z m 33.1198,0 c 0.2358,0.1161 0.4655,0.2366 0.6971,0.3597 h 10.0168 c -0.1256,-0.122 -0.2548,-0.2398 -0.3823,-0.3597 z m -33.8585,0.7233 c -0.1193,0.1193 -0.2356,0.2387 -0.3522,0.3597 h 9.4509 c 0.2008,-0.1221 0.4058,-0.2428 0.6109,-0.3597 z m 35.2149,0 c 0.205,0.117 0.409,0.2373 0.6107,0.3597 h 9.4621 c -0.1171,-0.1207 -0.2337,-0.2408 -0.3521,-0.3597 z m -35.9152,0.7233 c -0.1109,0.1188 -0.2208,0.2392 -0.3297,0.3597 h 9.0049 c 0.1799,-0.1224 0.3607,-0.2418 0.5433,-0.3597 z m 37.1107,0 c 0.182,0.1173 0.3605,0.2378 0.5396,0.3597 h 9.0124 c -0.1088,-0.1199 -0.2155,-0.2416 -0.3259,-0.3597 z m -37.7667,0.7232 c -0.1045,0.1186 -0.205,0.2396 -0.3073,0.3598 h 8.6305 c 0.1611,-0.122 0.3264,-0.2416 0.4908,-0.3598 z m 38.8304,0 c 0.1632,0.1169 0.3234,0.2391 0.4833,0.3598 h 8.6415 c -0.1025,-0.121 -0.2071,-0.2406 -0.3111,-0.3598 z m -39.4492,0.7307 c -0.098,0.1191 -0.1946,0.2393 -0.2923,0.3598 h 8.3081 c 0.1464,-0.122 0.2962,-0.2411 0.446,-0.3598 h -8.4616 z m 40.4158,0 c 0.1506,0.1186 0.2985,0.2378 0.4458,0.3598 h 8.3194 c -0.098,-0.1211 -0.1967,-0.2401 -0.2961,-0.3598 z m -40.9924,0.7195 c -0.092,0.1197 -0.1862,0.2389 -0.2774,0.3597 h 8.0456 c 0.1339,-0.1208 0.2686,-0.2416 0.4048,-0.3597 z m 41.8581,0 c 0.1381,0.1188 0.2737,0.2382 0.4084,0.3597 h 8.0495 c -0.09,-0.1202 -0.18,-0.2408 -0.2737,-0.3597 z m -42.4086,0.7279 c -0.088,0.1189 -0.1736,0.2396 -0.2586,0.3598 h 7.8059 c 0.1234,-0.121 0.2454,-0.2413 0.3709,-0.3598 z m 43.2156,0 c 0.1256,0.1189 0.2511,0.2385 0.3748,0.3598 h 7.8134 c -0.086,-0.1199 -0.1716,-0.2412 -0.2587,-0.3598 z m -43.7289,0.7195 c -0.082,0.1189 -0.1631,0.2398 -0.2435,0.3598 h 7.6034 c 0.113,-0.1201 0.2255,-0.2418 0.3411,-0.3598 h -7.7011 z m 44.4664,0 c 0.1172,0.1193 0.2302,0.2382 0.3448,0.3598 h 7.6034 c -0.082,-0.1205 -0.1611,-0.2404 -0.2435,-0.3598 z m -44.9089,0.6596 c -0.077,0.1199 -0.1548,0.2388 -0.2324,0.3597 h 7.4312 c 0.1067,-0.1207 0.2142,-0.2411 0.3222,-0.3597 z m 45.5314,0 c 0.1087,0.1186 0.2161,0.2391 0.3222,0.3597 h 7.4347 c -0.077,-0.1198 -0.1548,-0.2409 -0.2322,-0.3597 z m -45.9882,0.7232 c -0.073,0.1197 -0.1486,0.239 -0.2212,0.3598 h 7.2663 c 0.098,-0.1206 0.1967,-0.2412 0.2961,-0.3598 z m 46.6248,0 c 0.1004,0.1195 0.2009,0.2385 0.2998,0.3598 h 7.2699 c -0.073,-0.121 -0.1464,-0.2399 -0.2209,-0.3598 z m -47.0638,0.7267 c -0.069,0.1193 -0.1381,0.2395 -0.2072,0.3597 h 7.1163 c 0.092,-0.1215 0.1884,-0.2399 0.2812,-0.3597 z m 47.6562,0 c 0.094,0.1188 0.1862,0.2392 0.2774,0.3597 h 7.1276 c -0.069,-0.1211 -0.1402,-0.2395 -0.2099,-0.3597 h -7.1949 z m -48.0602,0.7195 c -0.065,0.1194 -0.1318,0.2393 -0.1946,0.3598 h 6.9889 c 0.086,-0.1208 0.1674,-0.2407 0.2548,-0.3598 z m 48.607,0 c 0.088,0.1193 0.1737,0.239 0.2587,0.3598 h 6.9926 c -0.065,-0.1209 -0.1339,-0.2399 -0.1987,-0.3598 z m -48.9932,0.7308 c -0.061,0.1198 -0.1235,0.239 -0.1842,0.3597 h 6.8653 c 0.079,-0.1205 0.159,-0.2407 0.2397,-0.3597 h -6.9215 z m 49.5065,0 c 0.082,0.119 0.1611,0.2392 0.2397,0.3597 h 6.8728 c -0.061,-0.1205 -0.1213,-0.2401 -0.1841,-0.3597 h -6.9288 z m -49.8662,0.7194 c -0.058,0.1201 -0.1172,0.2389 -0.1716,0.3598 h 6.764 c 0.073,-0.1203 0.1464,-0.2409 0.2212,-0.3598 h -6.8128 z m 50.3386,0 c 0.075,0.1191 0.1486,0.2395 0.2212,0.3598 h 6.7639 c -0.056,-0.1203 -0.1151,-0.2402 -0.1716,-0.3598 h -6.8127 z m -50.6756,0.727 c -0.055,0.1199 -0.1089,0.2392 -0.1612,0.3598 h 6.6629 c 0.069,-0.1214 0.1402,-0.2396 0.2099,-0.3598 z m 51.1181,0 c 0.071,0.1199 0.1422,0.2386 0.2098,0.3598 h 6.663 c -0.052,-0.1207 -0.1067,-0.2399 -0.1612,-0.3598 z m -51.4299,0.7195 c -0.05,0.1195 -0.1004,0.2397 -0.1507,0.3598 h 6.5767 c 0.063,-0.1205 0.1256,-0.2403 0.1904,-0.3598 h -6.6179 z m 51.8341,0 c 0.065,0.1193 0.1276,0.2393 0.1904,0.3598 h 6.5805 c -0.05,-0.1205 -0.1004,-0.24 -0.1506,-0.3598 h -6.6217 z m -52.1147,0.6895 c -0.048,0.1204 -0.096,0.2389 -0.1423,0.3598 h 6.5019 c 0.058,-0.1209 0.1192,-0.2399 0.1799,-0.3598 h -6.5393 z m 52.478,0 c 0.061,0.1193 0.1171,0.2395 0.1757,0.3598 h 6.5018 c -0.046,-0.1202 -0.092,-0.2402 -0.1381,-0.3598 h -6.5391 z m -52.7527,0.7196 c -0.044,0.1199 -0.088,0.2393 -0.1318,0.3597 h 6.4345 c 0.052,-0.1203 0.1066,-0.2405 0.161,-0.3597 z m 53.0968,0 c 0.056,0.1192 0.1109,0.2394 0.1653,0.3597 h 6.4344 c -0.042,-0.1205 -0.088,-0.2398 -0.1318,-0.3597 h -6.4681 z m -53.352,0.727 c -0.04,0.12 -0.086,0.239 -0.1235,0.3597 h 6.3707 c 0.048,-0.1197 0.098,-0.2409 0.1506,-0.3597 h -6.397 z m 53.6734,0 c 0.052,0.1199 0.1046,0.239 0.1548,0.3597 h 6.3706 c -0.04,-0.1207 -0.084,-0.2396 -0.1234,-0.3597 h -6.4006 z m -53.9086,0.7243 c -0.037,0.1196 -0.073,0.2394 -0.1088,0.3597 h 6.3068 c 0.046,-0.1209 0.092,-0.2396 0.1381,-0.3597 h -6.337 z m 54.2096,0 c 0.046,0.1196 0.094,0.2392 0.1381,0.3597 h 6.3069 c -0.036,-0.1201 -0.071,-0.2403 -0.1089,-0.3597 h -6.3369 z m -43.2779,0.3369 c -0.3921,0.076 -0.7677,0.1969 -1.1242,0.3598 h 4.1707 c -0.3563,-0.1628 -0.7323,-0.2834 -1.1241,-0.3598 z m -11.1449,0.3897 c -0.033,0.12 -0.069,0.2395 -0.1004,0.3598 h 6.2582 c 0.04,-0.1199 0.082,-0.2406 0.1235,-0.3598 h -6.2807 z m 54.6965,0 c 0.042,0.1195 0.084,0.2396 0.1234,0.3598 h 6.2583 c -0.034,-0.1205 -0.067,-0.2398 -0.1004,-0.3598 h -6.2807 z m -45.235,0.2699 c -0.1779,0.1092 -0.3495,0.2298 -0.5134,0.3597 h 6.3143 c -0.1632,-0.1301 -0.3356,-0.2502 -0.5134,-0.3597 z m -42.3608,0.1048 c -0.3918,0.076 -0.7676,0.1969 -1.1241,0.3597 h 4.1709 c -0.3566,-0.163 -0.7323,-0.2833 -1.1242,-0.3597 z m 32.7004,0.3485 c -0.031,0.1197 -0.061,0.2396 -0.09,0.3598 h 6.213 c 0.038,-0.1204 0.073,-0.2402 0.113,-0.3598 h -6.2357 z m 55.1389,0 c 0.038,0.1188 0.075,0.2401 0.113,0.3598 h 6.2131 c -0.03,-0.1204 -0.063,-0.24 -0.094,-0.3598 z m -46.4031,0.265 c -0.1171,0.1145 -0.2295,0.2345 -0.3373,0.3598 h 7.8097 c -0.1067,-0.1253 -0.2197,-0.2453 -0.3373,-0.3598 z m -43.1173,0.045 c -0.1778,0.1092 -0.3496,0.2298 -0.5134,0.3597 h 6.3143 c -0.1631,-0.1301 -0.3355,-0.2502 -0.5134,-0.3597 h -5.2876 z m 34.2063,0.416 c -0.027,0.1198 -0.058,0.2392 -0.086,0.3597 h 6.1721 c 0.033,-0.1201 0.067,-0.2404 0.1004,-0.3597 z m 55.5359,0 c 0.036,0.1203 0.071,0.2387 0.1046,0.3597 h 6.1683 c -0.027,-0.1205 -0.055,-0.2398 -0.082,-0.3597 h -6.1907 z m -47.2509,0.265 c -0.086,0.1169 -0.1674,0.2357 -0.2435,0.3597 h 8.8737 c -0.075,-0.1241 -0.1548,-0.2428 -0.2397,-0.3597 z m -43.4171,0.037 c -0.1171,0.1144 -0.2295,0.2344 -0.3372,0.3597 h 7.8096 c -0.1067,-0.1253 -0.2196,-0.2453 -0.3372,-0.3597 z m 34.9702,0.4159 c -0.025,0.1203 -0.052,0.2391 -0.075,0.3598 h 6.1383 c 0.029,-0.1205 0.058,-0.2399 0.09,-0.3598 h -6.153 z m 55.8957,0 c 0.031,0.1197 0.065,0.2394 0.094,0.3598 h 6.1346 c -0.023,-0.1205 -0.05,-0.2398 -0.075,-0.3598 h -6.153 z m -47.8948,0.2663 c -0.061,0.1169 -0.1151,0.2378 -0.1695,0.3597 h 9.6196 c -0.052,-0.1222 -0.1108,-0.2425 -0.1715,-0.3597 z m -43.5971,0.045 c -0.086,0.1169 -0.1674,0.2357 -0.2435,0.3597 h 8.8738 c -0.075,-0.1241 -0.1549,-0.2428 -0.2398,-0.3597 h -8.3907 z m 35.4654,0.3484 c -0.023,0.1191 -0.04,0.2402 -0.061,0.3598 h 6.1008 c 0.025,-0.1205 0.055,-0.2399 0.081,-0.3598 h -6.1231 z m 56.1883,0 c 0.027,0.1197 0.056,0.2394 0.082,0.3598 h 6.1046 c -0.021,-0.1197 -0.042,-0.2406 -0.063,-0.3598 z m -48.3757,0.3373 c -0.042,0.118 -0.082,0.238 -0.1172,0.3597 h 10.1479 c -0.036,-0.1219 -0.073,-0.2415 -0.115,-0.3597 z m -43.724,0.033 c -0.061,0.117 -0.1151,0.2379 -0.1695,0.3597 h 9.6197 c -0.052,-0.1221 -0.1109,-0.2424 -0.1716,-0.3597 z m 35.788,0.3485 c -0.021,0.1195 -0.036,0.2399 -0.052,0.3598 h 6.0746 c 0.023,-0.1204 0.048,-0.2401 0.071,-0.3598 h -6.0932 z m 56.4701,0 c 0.023,0.1196 0.048,0.2395 0.071,0.3598 h 6.0746 c -0.021,-0.1206 -0.036,-0.2398 -0.057,-0.3598 z m -48.7392,0.3373 c -0.027,0.1186 -0.052,0.2383 -0.071,0.3597 h 10.4701 c -0.021,-0.1213 -0.044,-0.2411 -0.071,-0.3597 z m -43.8367,0.045 c -0.042,0.118 -0.082,0.238 -0.1172,0.3598 h 10.148 c -0.036,-0.122 -0.073,-0.2416 -0.1172,-0.3598 h -9.9157 z m 35.9978,0.3448 c -0.021,0.1199 -0.029,0.2395 -0.044,0.3597 h 6.0522 c 0.021,-0.1205 0.04,-0.2398 0.061,-0.3597 z m 56.7135,0 c 0.021,0.1199 0.042,0.2392 0.061,0.3597 h 6.0522 c -0.021,-0.1196 -0.029,-0.2405 -0.044,-0.3597 z m -48.9896,0.3373 c -0.021,0.1194 -0.021,0.2382 -0.025,0.3597 h 10.6126 c 0,-0.1215 -0.021,-0.2404 -0.027,-0.3597 h -10.5602 z m -43.9268,0.037 c -0.027,0.1187 -0.052,0.2383 -0.071,0.3598 h 10.4701 c -0.021,-0.1214 -0.046,-0.2411 -0.071,-0.3598 z m 36.1094,0.3486 c -0.021,0.1192 -0.025,0.2402 -0.037,0.3597 h 6.0372 c 0.021,-0.1199 0.031,-0.2404 0.048,-0.3597 h -6.0484 z m 56.9232,0 c 0.021,0.1195 0.029,0.2397 0.044,0.3597 h 6.0333 c -0.021,-0.1199 -0.023,-0.2402 -0.037,-0.3597 h -6.0409 z m -49.1357,0.3372 v 0.3598 h 10.6239 v -0.3598 z m -44.0132,0.041 c -0.021,0.1195 -0.021,0.2383 -0.025,0.3598 h 10.6126 c 0,-0.1216 -0.021,-0.2405 -0.027,-0.3598 h -10.5601 z m 36.155,0.3485 c -0.021,0.1197 -0.021,0.2396 -0.029,0.3597 h 6.0331 v -0.1086 c 0,-0.084 0.021,-0.1669 0.03,-0.251 h -6.0296 z m 57.0877,0 c 0.021,0.1191 0.021,0.2403 0.033,0.3597 h 6.0182 c 0,-0.1199 -0.021,-0.2403 -0.029,-0.3597 h -6.022 z m -49.2295,0.3373 v 0.3597 h 10.6239 v -0.3597 z m -44.0431,0.037 v 0.3598 h 10.6239 v -0.3598 z m 36.1286,0.3486 c 0,0.1199 -0.021,0.2394 -0.023,0.3597 h 6.1045 l -0.021,-0.3597 h -6.0708 z m 57.2147,0 c 0,0.1201 0.021,0.2392 0.025,0.3597 h 6.0072 c 0,-0.1201 -0.021,-0.2401 -0.023,-0.3597 h -6.0107 z m -49.3002,0.3335 v 0.3597 h 10.6239 v -0.3597 z m -44.0431,0.045 v 0.3598 h 10.6239 v -0.3596 z m 36.0877,0.3486 c 0,0.1198 -0.021,0.2395 -0.021,0.3597 h 6.1645 l -0.021,-0.3597 h -6.1347 z m 57.3058,0 c 0,0.1196 0.021,0.2396 0.021,0.3597 h 5.9995 c 0,-0.1204 0,-0.2398 -0.021,-0.3597 h -6.0035 z m -49.3494,0.3334 v 0.3598 h 10.6239 v -0.3598 z m -44.0431,0.037 v 0.3598 h 10.6239 v -0.3598 z m 36.0614,0.3486 c 0,0.1196 0,0.2398 0,0.3597 h 6.2018 l -0.021,-0.3597 h -6.1831 z m 57.3612,0 c 0,0.1198 0,0.2394 0.021,0.3597 h 5.9957 v -0.045 c 0,-0.1054 0,-0.2095 0,-0.3148 h -5.9997 z m -49.3795,0.3334 v 0.3598 h 10.6239 v -0.3598 z m -44.0431,0.045 v 0.3598 h 10.6239 v -0.3598 z m 36.0544,0.3785 c 0,0.1203 -0.01,0.2392 0,0.3598 h 6.2243 l -0.021,-0.3598 z m 57.3837,0 c 2e-4,0.1199 0,0.2402 0,0.3598 h 5.9958 c 0,-0.1195 0,-0.2401 0,-0.3598 z m -49.395,0.3073 v 0.3598 h 10.6239 v -0.3598 z m -44.0431,0.034 v 0.3598 h 10.6239 v -0.3598 z m 36.0424,0.3785 c 0,0.1151 -0.023,0.2347 -0.038,0.3597 h 6.2958 l -0.021,-0.3597 h -6.247 z m 57.3838,0 c 0,0.1201 0,0.24 -0.021,0.3597 h 5.9995 c 0,-0.1198 0,-0.2395 0,-0.3597 h -5.9959 z m -49.3831,0.3072 v 0.3598 h 10.6239 v -0.3598 z m -44.0431,0.045 v 0.3598 h 10.6239 v -0.3598 z m 35.9608,0.3748 c -0.021,0.119 -0.025,0.2415 -0.033,0.3597 h 6.3968 l -0.021,-0.3597 h -6.3518 z m 57.4365,0 c 0,0.1199 -0.021,0.2402 -0.023,0.3597 h 6.0069 c 0,-0.1197 0.021,-0.2396 0.021,-0.3597 h -6.0032 z m -49.353,0.6655 h 10.6202 v 0.3635 h -10.6202 z m 49.3003,0.052 c 0,0.1207 -0.021,0.2395 -0.033,0.3597 h 6.0183 c 0,-0.1194 0.021,-0.2398 0.027,-0.3597 h -6.0109 z m -49.3003,0.6703 h 10.6202 v 0.2998 h -10.6202 z m 49.2295,0.06 c -0.021,0.1197 -0.025,0.2406 -0.042,0.3598 h 6.0295 c 0.021,-0.1199 0.027,-0.2394 0.037,-0.3598 h -6.0257 z m -49.2295,0.5996 h 10.6202 v 0.3598 h -10.6202 z m 49.1396,0.1199 c -0.021,0.1203 -0.034,0.24 -0.052,0.3598 h 6.0484 c 0.021,-0.1197 0.031,-0.2396 0.044,-0.3598 h -6.0409 z m -49.1396,0.5996 h 10.6202 v 0.3673 h -10.6202 z m 49.0269,0.1274 c -0.021,0.1205 -0.046,0.2399 -0.067,0.3598 h 6.0784 c 0.021,-0.1199 0.036,-0.2395 0.052,-0.3598 h -6.0633 z m -49.0269,0.5996 h 10.6202 v 0.3598 h -10.6202 z m 48.8925,0.1236 c -0.023,0.1199 -0.046,0.2405 -0.071,0.3598 h 6.0971 c 0.021,-0.1201 0.044,-0.2392 0.063,-0.3598 h -6.0894 z m -48.8925,0.5972 h 10.6202 v 0.371 h -10.6202 z m 48.7536,0.064 c -0.027,0.1206 -0.057,0.24 -0.086,0.3598 h 6.1306 c 0.023,-0.1197 0.046,-0.2396 0.067,-0.3598 h -6.112 z m -48.7536,0.6668 h 10.6202 v 0.3635 h -10.6202 z m 48.5772,0.052 c -0.031,0.1201 -0.061,0.2403 -0.094,0.3598 h 6.1645 c 0.025,-0.1193 0.05,-0.24 0.075,-0.3598 z m -48.5772,0.6703 h 10.6202 v 0.3636 h -10.6202 z m 48.3793,0.057 c -0.036,0.1201 -0.069,0.2405 -0.1046,0.3597 h 6.2058 c 0.03,-0.1192 0.054,-0.24 0.082,-0.3597 h -6.1829 z m -0.2172,0.7195 c -0.04,0.1201 -0.079,0.2403 -0.1192,0.3597 h 6.2507 c 0.033,-0.1194 0.063,-0.2398 0.094,-0.3597 h -6.2244 z m -48.1658,0.311 v 0.3598 h 10.6239 v -0.3598 z m -44.043,0.041 v 0.3597 h 10.6238 v -0.3597 z m 91.9569,0.3785 c -0.044,0.1203 -0.084,0.2403 -0.1276,0.3597 h 6.3068 c 0.036,-0.1194 0.067,-0.2398 0.1004,-0.3597 h -6.2806 z m -47.9139,0.2698 v 0.3597 h 10.6239 v -0.3597 z m -44.043,0.075 v 0.3597 h 10.6238 v -0.3597 z m 91.6906,0.3784 c -0.048,0.121 -0.096,0.2398 -0.1465,0.3598 h 6.3631 c 0.038,-0.1193 0.075,-0.2398 0.113,-0.3598 h -6.3294 z m -47.6441,0.2663 c 0,0.1216 0.021,0.2404 0.03,0.3597 h 10.5528 c 0.021,-0.1192 0.023,-0.2382 0.03,-0.3597 z m -44.0465,0.045 v 0.3597 h 10.6238 v -0.3597 z m 91.3958,0.4122 c -0.05,0.1198 -0.1046,0.2408 -0.1569,0.3597 h 6.4269 c 0.042,-0.1194 0.084,-0.2396 0.1234,-0.3597 h -6.393 z m -47.2666,0.2698 c 0.021,0.1222 0.044,0.2404 0.071,0.3598 h 10.3054 c 0.027,-0.1193 0.05,-0.2376 0.071,-0.3598 z m -44.1257,0.038 c 0,0.1215 0.021,0.2403 0.029,0.3597 h 10.5527 c 0.021,-0.1192 0.025,-0.2382 0.03,-0.3597 z m 91.0697,0.4159 c -0.057,0.1207 -0.111,0.2401 -0.1695,0.3598 h 6.4981 c 0.046,-0.1197 0.088,-0.2394 0.1317,-0.3598 h -6.4605 z m -46.7798,0.2663 c 0.036,0.1217 0.078,0.2417 0.1193,0.3597 h 9.878 c 0.044,-0.1182 0.084,-0.2377 0.1193,-0.3597 z m -44.2083,0.045 c 0.021,0.1222 0.044,0.2405 0.071,0.3597 h 10.3053 c 0.027,-0.1192 0.05,-0.2375 0.071,-0.3597 h -10.4478 z m 90.6343,0.4159 c -0.061,0.1199 -0.1214,0.241 -0.1841,0.3598 h 6.5804 c 0.048,-0.1189 0.092,-0.2402 0.1381,-0.3598 z m -46.1573,0.2699 c 0.054,0.1222 0.1129,0.2426 0.1757,0.3597 h 9.2261 c 0.063,-0.1171 0.1214,-0.2375 0.1757,-0.3597 h -9.5782 z m -44.3128,0.034 c 0.036,0.1217 0.077,0.2417 0.1192,0.3597 h 9.8781 c 0.044,-0.1182 0.084,-0.2378 0.1193,-0.3597 z m 90.0947,0.416 c -0.065,0.1207 -0.1318,0.2401 -0.1987,0.3597 h 6.6666 c 0.052,-0.1191 0.098,-0.2399 0.1507,-0.3597 h -6.618 z m -45.3957,0.2698 c 0.077,0.1242 0.1632,0.2427 0.2511,0.3597 h 8.308 c 0.088,-0.117 0.1695,-0.2354 0.2473,-0.3597 h -8.8066 z m -44.4293,0.045 c 0.055,0.1222 0.113,0.2427 0.1758,0.3598 h 9.2261 c 0.063,-0.1172 0.1213,-0.2376 0.1757,-0.3598 h -9.5782 z m 89.4124,0.4122 c -0.071,0.1206 -0.1401,0.2406 -0.2136,0.3598 h 6.7642 c 0.054,-0.1188 0.1067,-0.2402 0.1611,-0.3598 z m -44.4399,0.2698 c 0.1108,0.1258 0.2274,0.2453 0.3485,0.3598 h 7.0226 c 0.1214,-0.1147 0.2375,-0.2337 0.3486,-0.3598 z m -44.5863,0.038 c 0.077,0.1243 0.1632,0.2428 0.2511,0.3598 h 8.308 c 0.088,-0.1169 0.1695,-0.2354 0.2473,-0.3598 h -8.8066 z m 88.5921,0.416 c -0.077,0.1216 -0.1569,0.2395 -0.236,0.3598 h 6.869 c 0.058,-0.1193 0.1171,-0.2397 0.1758,-0.3598 z m -43.2299,0.2699 c 0.1695,0.1301 0.3478,0.2514 0.5321,0.3597 h 5.1078 c 0.1841,-0.108 0.3588,-0.23 0.5283,-0.3597 h -6.1683 z m -44.819,0.041 c 0.1108,0.1258 0.2274,0.2453 0.3486,0.3598 h 7.0225 c 0.1213,-0.1147 0.2375,-0.2338 0.3485,-0.3598 z m 87.5694,0.416 c -0.082,0.1209 -0.1674,0.2402 -0.2511,0.3597 h 6.9889 c 0.063,-0.1195 0.1255,-0.2393 0.1883,-0.3597 h -6.9251 z m -41.6185,0.2023 c 0.4258,0.1801 0.8773,0.3028 1.3491,0.3597 h 1.2104 c 0.472,-0.057 0.9237,-0.1797 1.349,-0.3597 z m -45.1739,0.1044 c 0.1694,0.1301 0.3479,0.2515 0.5323,0.3598 h 5.1078 c 0.184,-0.108 0.3588,-0.23 0.5282,-0.3598 z m 86.2839,0.416 c -0.088,0.1203 -0.1799,0.2411 -0.2698,0.3597 h 7.1238 c 0.067,-0.1195 0.1318,-0.2394 0.1987,-0.3597 h -7.0525 z m -85.1518,0.2434 c 0.4258,0.1802 0.8771,0.3028 1.3491,0.3598 h 1.2104 c 0.4717,-0.057 0.9236,-0.1798 1.349,-0.3598 z m 84.6014,0.4797 c -0.096,0.1213 -0.1946,0.2401 -0.2923,0.3597 h 7.2736 c 0.071,-0.1197 0.1423,-0.2391 0.2136,-0.3597 z m -0.5959,0.7232 c -0.1025,0.1203 -0.2029,0.2415 -0.3073,0.3597 h 7.4387 c 0.075,-0.119 0.1506,-0.2396 0.2247,-0.3597 z m -0.5732,0.6595 c -0.111,0.1218 -0.2244,0.2402 -0.3373,0.3598 h 7.6071 c 0.082,-0.1199 0.1653,-0.2388 0.2438,-0.3598 z m -0.6859,0.7196 c -0.1193,0.1207 -0.2387,0.2414 -0.3599,0.3597 h 7.8172 c 0.086,-0.1201 0.1716,-0.2383 0.2549,-0.3597 z m -0.7419,0.7269 c -0.1297,0.1216 -0.2615,0.2409 -0.3935,0.3598 h 8.0607 c 0.09,-0.1193 0.182,-0.2392 0.2697,-0.3598 h -7.9371 z m -0.8057,0.7233 c -0.1402,0.1216 -0.2837,0.2412 -0.4272,0.3598 h 8.3379 c 0.094,-0.1187 0.1883,-0.2398 0.281,-0.3598 z m -0.8808,0.727 c -0.1548,0.1214 -0.3076,0.2419 -0.4645,0.3597 h 8.6526 c 0.1004,-0.1186 0.2009,-0.2395 0.2999,-0.3597 z m -0.9631,0.7233 c -0.1716,0.1223 -0.3461,0.2414 -0.5207,0.3597 h 9.0311 c 0.1087,-0.1201 0.2188,-0.2381 0.3259,-0.3597 z m -1.0716,0.727 c -0.1925,0.1228 -0.3856,0.2419 -0.5808,0.3597 h 9.4847 c 0.115,-0.1188 0.228,-0.2392 0.341,-0.3597 z m -1.1955,0.7195 c -0.2191,0.124 -0.4402,0.242 -0.6633,0.3597 h 10.0467 c 0.1214,-0.1182 0.2402,-0.2397 0.3599,-0.3597 z m -1.3078,0.6895 c -0.2537,0.1247 -0.5098,0.2431 -0.7682,0.3597 h 10.7251 c 0.1296,-0.1191 0.2612,-0.2386 0.3897,-0.3597 h -10.3465 z m -1.5965,0.7195 c -0.309,0.1265 -0.6216,0.245 -0.9367,0.3597 h 11.677 c 0.1381,-0.1184 0.2751,-0.239 0.4122,-0.3597 z m -2.0158,0.727 c -0.4151,0.1305 -0.835,0.2499 -1.2591,0.3597 h 13.1237 c 0.1506,-0.1186 0.2981,-0.2385 0.4459,-0.3597 h -12.3107 z" />
    <path
       id="path4608-66"
       sodipodi:nodetypes="ccccccccccccccccccccccccccccccccccccccccccccccccccccccccccccccccccccccccccccccccccccccccccccccccccccccccccccccccccccccccccccccc"
       style="color:#000000;text-indent:0;text-transform:none;fill:#000000;stroke-width:0.0996275"
       inkscape:connector-curvature="0"
       d="m -5265.6581,1633.9517 -0.1465,0.1463 v 0.4234 l 0.5697,-0.5697 z m 0.853,0 -0.9993,0.9994 v 0.4234 l 1.4228,-1.4228 z m 0.8501,0 -1.8494,1.8493 v 0.4204 l 2.2697,-2.2697 z m 0.853,0 -2.7024,2.7024 v 0.4234 l 3.1258,-3.1258 z m 0.8467,0 -3.5491,3.5493 v 0.4203 l 3.9726,-3.9696 z m 0.8532,0 -4.4025,4.4024 v 0.4234 l 4.8257,-4.8258 z m 0.8467,0 -5.2492,5.2492 v 0.4235 l 5.6696,-5.6727 z m 0.853,0 -6.102,6.1022 v 0.4235 l 6.5255,-6.5257 z m 0.8501,0 -6.9521,6.9521 v 0.4235 l 7.3755,-7.3756 z m 0.8561,0 -7.8082,7.8052 v 0.4235 l 8.2286,-8.2287 z m 0.8499,0 -8.6581,8.6583 v 0.4203 l 9.0785,-9.0786 z m 0.8501,0 -9.5084,9.5083 v 0.3113 h 0.113 l 9.8195,-9.8195 z m 0.8498,0 -9.8226,9.8195 h 0.4235 l 9.8195,-9.8195 z m 0.7723,0 -9.8197,9.8195 h 0.4203 l 9.5144,-9.5113 v -0.3082 z m 0.115,0.7317 -9.0909,9.0879 h 0.4234 l 8.6675,-8.6676 z m 0,0.853 -8.2348,8.2349 h 0.4204 l 7.8144,-7.8115 z m 0,0.85 -7.3849,7.3849 h 0.4235 l 6.9614,-6.9615 z m 0,0.8562 -6.5317,6.5287 h 0.4235 l 6.1082,-6.1084 z m 0,0.8499 -5.6818,5.6788 h 0.4235 l 5.2583,-5.2584 z m 0,0.85 -4.8288,4.8288 h 0.4235 l 4.4053,-4.4054 z m 0,0.8468 -3.9819,3.982 h 0.4233 l 3.5586,-3.5586 z m 0,0.8126 -3.1724,3.1693 h 0.4233 l 2.7491,-2.7459 z m 0,0.8437 -2.3256,2.3257 h 0.4203 l 1.9053,-1.9023 z m 0,0.8562 -1.4725,1.4695 h 0.4233 l 1.0492,-1.0461 z m 0,0.8437 -0.6257,0.6258 h 0.4235 l 0.2028,-0.2024 z" />
    <path
       id="path4608-54"
       sodipodi:nodetypes="ccccccccccccccccccccccccccccccccccccccccccccccccccccccccccccccccccccccccccccccccccccccccccccccccccccccccccccccccccccccccccccccc"
       style="color:#000000;text-indent:0;text-transform:none;fill:#000000;stroke-width:0.0996275"
       inkscape:connector-curvature="0"
       d="m -5251.4433,1633.7943 -0.1464,0.1463 v 0.4234 l 0.5697,-0.5698 z m 0.853,0 -0.9992,0.9994 v 0.4234 l 1.4227,-1.4228 z m 0.8501,0 -1.8493,1.8493 v 0.4204 l 2.2696,-2.2697 z m 0.853,0 -2.7023,2.7025 v 0.4233 l 3.1257,-3.1258 z m 0.8469,0 -3.5492,3.5492 v 0.4204 l 3.9725,-3.9696 z m 0.853,0 -4.4024,4.4024 v 0.4234 l 4.8259,-4.8258 z m 0.8467,0 -5.2491,5.2492 v 0.4234 l 5.6695,-5.6726 z m 0.8532,0 -6.1021,6.1022 v 0.4234 l 6.5254,-6.5256 z m 0.8499,0 -6.952,6.9521 v 0.4235 l 7.3755,-7.3756 z m 0.8561,0 -7.8081,7.8052 v 0.4234 l 8.2285,-8.2286 z m 0.8501,0 -8.6582,8.6582 v 0.4204 l 9.0786,-9.0786 z m 0.8499,0 -9.5083,9.5083 v 0.3113 h 0.1129 l 9.8195,-9.8195 z m 0.8499,0 -9.8227,9.8195 h 0.4236 l 9.8194,-9.8195 z m 0.7722,0 -9.8195,9.8195 h 0.4201 l 9.5147,-9.5113 v -0.3082 z m 0.1151,0.7317 -9.091,9.0879 h 0.4235 l 8.6675,-8.6676 z m 0,0.8531 -8.2348,8.2348 h 0.4203 l 7.8147,-7.8115 z m 0,0.8499 -7.3849,7.3849 h 0.4234 l 6.9615,-6.9615 z m 0,0.8562 -6.5318,6.5287 h 0.4235 l 6.1083,-6.1084 z m 0,0.8499 -5.6819,5.6788 h 0.4234 l 5.2585,-5.2585 z m 0,0.85 -4.8289,4.8288 h 0.4235 l 4.4054,-4.4054 z m 0,0.8468 -3.982,3.982 h 0.4235 l 3.5585,-3.5586 z m 0,0.8126 -3.1725,3.1693 h 0.4235 l 2.749,-2.7459 z m 0,0.8437 -2.3258,2.3257 h 0.4204 l 1.9054,-1.9023 z m 0,0.8562 -1.4726,1.4695 h 0.4235 l 1.0491,-1.0461 z m 0,0.8437 -0.6258,0.6258 h 0.4234 l 0.203,-0.2024 z" />
    <path
       id="path4608-3"
       sodipodi:nodetypes="ccccccccccccccccccccccccccccccccccccccccccccccccccccccccccccccccccccccccccccccccccccccccccccccccccccccccccccccccccccccccccccccc"
       style="color:#000000;text-indent:0;text-transform:none;fill:#000000;stroke-width:0.0996275"
       inkscape:connector-curvature="0"
       d="m -5236.5221,1633.7943 -0.1465,0.1463 v 0.4234 l 0.5697,-0.5698 z m 0.8532,0 -0.9995,0.9994 v 0.4234 l 1.4228,-1.4228 z m 0.8499,0 -1.8494,1.8493 v 0.4204 l 2.2697,-2.2697 z m 0.8529,0 -2.7023,2.7025 v 0.4233 l 3.1258,-3.1258 z m 0.847,0 -3.5493,3.5492 v 0.4204 l 3.9727,-3.9696 z m 0.853,0 -4.4023,4.4024 v 0.4234 l 4.8257,-4.8258 z m 0.8469,0 -5.2492,5.2492 v 0.4234 l 5.6693,-5.6726 z m 0.853,0 -6.1022,6.1022 v 0.4234 l 6.5257,-6.5256 z m 0.8499,0 -6.9521,6.9521 v 0.4235 l 7.3755,-7.3756 z m 0.8561,0 -7.8082,7.8052 v 0.4234 l 8.2285,-8.2286 z m 0.8501,0 -8.6583,8.6582 v 0.4204 l 9.0786,-9.0786 z m 0.8498,0 -9.5081,9.5083 v 0.3113 h 0.1109 l 9.8194,-9.8195 z m 0.8501,0 -9.8228,9.8195 h 0.4235 l 9.8195,-9.8195 z m 0.7721,0 -9.8195,9.8195 h 0.4203 l 9.5144,-9.5113 v -0.3082 z m 0.115,0.7317 -9.0909,9.0879 h 0.4234 l 8.6675,-8.6676 z m 0,0.8531 -8.2348,8.2348 h 0.4203 l 7.8147,-7.8115 z m 0,0.8499 -7.3847,7.3849 h 0.4235 l 6.9612,-6.9615 z m 0,0.8562 -6.5317,6.5287 h 0.4235 l 6.1082,-6.1084 z m 0,0.8499 -5.6817,5.6788 h 0.4233 l 5.2584,-5.2585 z m 0,0.85 -4.8286,4.8288 h 0.4232 l 4.4054,-4.4054 z m 0,0.8468 -3.9819,3.982 h 0.4235 l 3.5584,-3.5586 z m 0,0.8126 -3.1724,3.1693 h 0.4234 l 2.749,-2.7459 z m 0,0.8437 -2.3255,2.3257 h 0.4201 l 1.9054,-1.9023 z m 0,0.8562 -1.4725,1.4695 h 0.4235 l 1.049,-1.0461 z m 0,0.8437 -0.6256,0.6258 h 0.4233 l 0.2029,-0.2024 z" />
    <path
       id="path4608-6-8"
       sodipodi:nodetypes="ccccccccccccccccccccccccccccccccccccccccccccccccccccccccccccccccccccccccccccccccccccccccccccccccccccccccccccccccccccccccccccccc"
       style="color:#000000;text-indent:0;text-transform:none;fill:#000000;stroke-width:0.0996275"
       inkscape:connector-curvature="0"
       d="m -5279.9514,1647.4991 -0.1464,0.1463 v 0.4234 l 0.5697,-0.5698 z m 0.853,0 -0.9994,0.9993 v 0.4235 l 1.4229,-1.4228 z m 0.8499,0 -1.8493,1.8493 v 0.4203 l 2.2696,-2.2696 z m 0.853,0 -2.7023,2.7024 v 0.4234 l 3.1258,-3.1258 z m 0.8469,0 -3.5492,3.5492 v 0.4203 l 3.9727,-3.9695 z m 0.853,0 -4.4022,4.4023 v 0.4234 l 4.8257,-4.8257 z m 0.8469,0 -5.2491,5.2492 v 0.4234 l 5.6693,-5.6726 z m 0.853,0 -6.1021,6.1022 v 0.4234 l 6.5256,-6.5256 z m 0.8499,0 -6.952,6.9521 v 0.4234 l 7.3755,-7.3755 z m 0.8564,0 -7.8084,7.8052 v 0.4234 l 8.2287,-8.2286 z m 0.8498,0 -8.6582,8.6582 v 0.4203 l 9.0786,-9.0785 z m 0.8499,0 -9.5081,9.5082 v 0.3113 h 0.1129 l 9.8195,-9.8195 z m 0.85,0 -9.8228,9.8195 h 0.4236 l 9.8194,-9.8195 z m 0.7721,0 -9.8194,9.8195 h 0.4203 l 9.5144,-9.5114 v -0.3082 z m 0.115,0.7316 -9.0911,9.0879 h 0.4235 l 8.6676,-8.6676 z m 0,0.8531 -8.2347,8.2348 h 0.4203 l 7.8144,-7.8114 z m 0,0.8499 -7.3848,7.3849 h 0.4234 l 6.9614,-6.9615 z m 0,0.8562 -6.5319,6.5287 h 0.4235 l 6.1084,-6.1083 z m 0,0.85 -5.6818,5.6787 h 0.4234 l 5.2584,-5.2584 z m 0,0.8499 -4.8288,4.8288 h 0.4235 l 4.4053,-4.4054 z m 0,0.8468 -3.9821,3.982 h 0.4235 l 3.5586,-3.5586 z m 0,0.8126 -3.1725,3.1694 h 0.4234 l 2.7491,-2.746 z m 0,0.8438 -2.3256,2.3256 h 0.4203 l 1.9053,-1.9023 z m 0,0.8561 -1.4726,1.4695 h 0.4234 l 1.0492,-1.0461 z m 0,0.8437 -0.6257,0.6258 h 0.4232 l 0.203,-0.2023 z" />
    <path
       id="path4608-66-9"
       sodipodi:nodetypes="ccccccccccccccccccccccccccccccccccccccccccccccccccccccccccccccccccccccccccccccccccccccccccccccccccccccccccccccccccccccccccccccc"
       style="color:#000000;text-indent:0;text-transform:none;fill:#000000;stroke-width:0.0996275"
       inkscape:connector-curvature="0"
       d="m -5265.4229,1647.4204 -0.1465,0.1462 v 0.4234 l 0.5697,-0.5697 z m 0.853,0 -0.9995,0.9993 v 0.4234 l 1.4229,-1.4227 z m 0.8498,0 -1.8491,1.8493 v 0.4203 l 2.2694,-2.2696 z m 0.8533,0 -2.7026,2.7024 v 0.4234 l 3.1258,-3.1258 z m 0.8467,0 -3.5493,3.5492 v 0.4203 l 3.9727,-3.9695 z m 0.8529,0 -4.4022,4.4023 v 0.4234 l 4.8257,-4.8257 z m 0.847,0 -5.2492,5.2491 v 0.4234 l 5.6693,-5.6725 z m 0.853,0 -6.1022,6.1021 v 0.4235 l 6.5256,-6.5256 z m 0.8501,0 -6.9523,6.9521 v 0.4234 l 7.3755,-7.3755 z m 0.8561,0 -7.8084,7.8052 v 0.4234 l 8.2287,-8.2286 z m 0.8499,0 -8.6583,8.6582 v 0.4203 l 9.0786,-9.0785 z m 0.85,0 -9.5083,9.5082 v 0.3114 h 0.113 l 9.8194,-9.8195 z m 0.85,0 -9.8227,9.8194 h 0.4232 l 9.8195,-9.8194 z m 0.7719,0 -9.8194,9.8194 h 0.4203 l 9.5144,-9.5113 v -0.3082 z m 0.1151,0.7316 -9.091,9.088 h 0.4233 l 8.6677,-8.6676 z m 0,0.8531 -8.2348,8.2348 h 0.4204 l 7.8144,-7.8114 z m 0,0.8499 -7.3849,7.3849 h 0.4235 l 6.9614,-6.9614 z m 0,0.8562 -6.5317,6.5287 h 0.4232 l 6.1085,-6.1084 z m 0,0.8499 -5.6819,5.6788 h 0.4236 l 5.2583,-5.2585 z m 0,0.85 -4.8289,4.8288 h 0.4235 l 4.4054,-4.4054 z m 0,0.8468 -3.9821,3.982 h 0.4234 l 3.5587,-3.5586 z m 0,0.8126 -3.1727,3.1693 h 0.4236 l 2.7491,-2.7459 z m 0,0.8437 -2.3257,2.3257 h 0.4203 l 1.9054,-1.9022 z m 0,0.8562 -1.4727,1.4695 h 0.4235 l 1.0492,-1.0461 z m 0,0.8437 -0.6258,0.6258 h 0.4235 l 0.2029,-0.2023 z" />
    <path
       id="path4608-54-9"
       sodipodi:nodetypes="ccccccccccccccccccccccccccccccccccccccccccccccccccccccccccccccccccccccccccccccccccccccccccccccccccccccccccccccccccccccccccccccc"
       style="color:#000000;text-indent:0;text-transform:none;fill:#000000;stroke-width:0.0996275"
       inkscape:connector-curvature="0"
       d="m -5251.2081,1647.263 -0.1465,0.1462 v 0.4234 l 0.5699,-0.5697 z m 0.853,0 -0.9993,0.9994 v 0.4233 l 1.4227,-1.4227 z m 0.85,0 -1.8493,1.8492 v 0.4203 l 2.2696,-2.2695 z m 0.853,0 -2.7025,2.7024 v 0.4234 l 3.126,-3.1258 z m 0.8468,0 -3.5493,3.5492 v 0.4203 l 3.9727,-3.9695 z m 0.8532,0 -4.4025,4.4023 v 0.4235 l 4.8258,-4.8258 z m 0.8467,0 -5.2492,5.2491 v 0.4234 l 5.6695,-5.6725 z m 0.853,0 -6.1022,6.1021 v 0.4234 l 6.5257,-6.5255 z m 0.8501,0 -6.9521,6.9521 v 0.4234 l 7.3756,-7.3755 z m 0.8561,0 -7.8084,7.8052 v 0.4234 l 8.2288,-8.2286 z m 0.8499,0 -8.6581,8.6582 v 0.4203 l 9.0784,-9.0785 z m 0.85,0 -9.5083,9.5082 v 0.3114 h 0.113 l 9.8195,-9.8195 z m 0.8499,0 -9.8226,9.8194 h 0.4233 l 9.8197,-9.8194 z m 0.7721,0 -9.8195,9.8194 h 0.4203 l 9.5145,-9.5113 v -0.3082 z m 0.115,0.7316 -9.0909,9.0879 h 0.4232 l 8.6677,-8.6675 z m 0,0.8531 -8.2347,8.2348 h 0.4203 l 7.8144,-7.8114 z m 0,0.8499 -7.3849,7.3849 h 0.4235 l 6.9614,-6.9615 z m 0,0.8562 -6.5317,6.5287 h 0.4234 l 6.1083,-6.1084 z m 0,0.8499 -5.6818,5.6788 h 0.4234 l 5.2584,-5.2585 z m 0,0.85 -4.8289,4.8288 h 0.4236 l 4.4053,-4.4054 z m 0,0.8468 -3.9819,3.982 h 0.4232 l 3.5587,-3.5586 z m 0,0.8126 -3.1724,3.1693 h 0.4233 l 2.7491,-2.7459 z m 0,0.8437 -2.3257,2.3257 h 0.4203 l 1.9054,-1.9023 z m 0,0.8562 -1.4725,1.4695 h 0.4233 l 1.0492,-1.0461 z m 0,0.8437 -0.6258,0.6258 h 0.4235 l 0.203,-0.2023 z" />
    <path
       id="path4608-3-3"
       sodipodi:nodetypes="ccccccccccccccccccccccccccccccccccccccccccccccccccccccccccccccccccccccccccccccccccccccccccccccccccccccccccccccccccccccccccccccc"
       style="color:#000000;text-indent:0;text-transform:none;fill:#000000;stroke-width:0.0996275"
       inkscape:connector-curvature="0"
       d="m -5236.2869,1647.263 -0.1466,0.1462 v 0.4234 l 0.5698,-0.5697 z m 0.853,0 -0.9993,0.9994 v 0.4233 l 1.4227,-1.4227 z m 0.85,0 -1.8493,1.8492 v 0.4203 l 2.2696,-2.2695 z m 0.853,0 -2.7023,2.7024 v 0.4234 l 3.1257,-3.1258 z m 0.8469,0 -3.5492,3.5492 v 0.4203 l 3.9725,-3.9695 z m 0.8531,0 -4.4026,4.4023 v 0.4235 l 4.826,-4.8258 z m 0.8467,0 -5.2493,5.2491 v 0.4234 l 5.6696,-5.6725 z m 0.8532,0 -6.1022,6.1021 v 0.4234 l 6.5254,-6.5255 z m 0.8498,0 -6.952,6.9521 v 0.4234 l 7.3755,-7.3755 z m 0.8562,0 -7.8082,7.8052 v 0.4234 l 8.2285,-8.2286 z m 0.8501,0 -8.6583,8.6582 v 0.4203 l 9.0786,-9.0785 z m 0.8498,0 -9.5084,9.5082 v 0.3114 h 0.1131 l 9.8194,-9.8195 z m 0.8499,0 -9.8226,9.8194 h 0.4235 l 9.8194,-9.8194 z m 0.7722,0 -9.8194,9.8194 h 0.4203 l 9.5144,-9.5113 v -0.3082 z m 0.1151,0.7316 -9.0909,9.0879 h 0.4234 l 8.6675,-8.6675 z m 0,0.8531 -8.2348,8.2348 h 0.4203 l 7.8147,-7.8114 z m 0,0.8499 -7.3847,7.3849 h 0.4232 l 6.9615,-6.9615 z m 0,0.8562 -6.5318,6.5287 h 0.4235 l 6.1083,-6.1084 z m 0,0.8499 -5.6819,5.6788 h 0.4235 l 5.2584,-5.2585 z m 0,0.85 -4.8289,4.8288 h 0.4235 l 4.4054,-4.4054 z m 0,0.8468 -3.9819,3.982 h 0.4234 l 3.5585,-3.5586 z m 0,0.8126 -3.1724,3.1693 h 0.4234 l 2.749,-2.7459 z m 0,0.8437 -2.3257,2.3257 h 0.4203 l 1.9054,-1.9023 z m 0,0.8562 -1.4725,1.4695 h 0.4235 l 1.049,-1.0461 z m 0,0.8437 -0.6258,0.6258 h 0.4234 l 0.203,-0.2023 z" />
    <path
       id="path4608-6-2"
       sodipodi:nodetypes="ccccccccccccccccccccccccccccccccccccccccccccccccccccccccccccccccccccccccccccccccccccccccccccccccccccccccccccccccccccccccccccccc"
       style="color:#000000;text-indent:0;text-transform:none;fill:#000000;stroke-width:0.0996275"
       inkscape:connector-curvature="0"
       d="m -5279.7945,1660.7715 -0.1464,0.1462 v 0.4234 l 0.5697,-0.5697 z m 0.8533,0 -0.9995,0.9993 v 0.4234 l 1.4229,-1.4227 z m 0.8498,0 -1.8493,1.8492 v 0.4204 l 2.2696,-2.2697 z m 0.853,0 -2.7023,2.7024 v 0.4234 l 3.1258,-3.1258 z m 0.8469,0 -3.5492,3.5492 v 0.4203 l 3.9727,-3.9696 z m 0.853,0 -4.4022,4.4023 v 0.4234 l 4.8257,-4.8257 z m 0.847,0 -5.2492,5.2491 v 0.4235 l 5.6693,-5.6726 z m 0.853,0 -6.1022,6.1021 v 0.4235 l 6.5256,-6.5256 z m 0.8499,0 -6.9521,6.9521 v 0.4234 l 7.3755,-7.3755 z m 0.8563,0 -7.8084,7.8051 v 0.4235 l 8.2288,-8.2286 z m 0.8498,0 -8.6582,8.6581 v 0.4204 l 9.0786,-9.0786 z m 0.8499,0 -9.5081,9.5082 v 0.3113 h 0.1109 l 9.8197,-9.8195 z m 0.8501,0 -9.8228,9.8194 h 0.4234 l 9.8195,-9.8194 z m 0.772,0 -9.8194,9.8194 h 0.4203 l 9.5144,-9.5113 v -0.3082 z m 0.1151,0.7316 -9.0911,9.0879 h 0.4234 l 8.6677,-8.6676 z m 0,0.8531 -8.2348,8.2348 h 0.4204 l 7.8144,-7.8114 z m 0,0.8499 -7.385,7.3849 h 0.4236 l 6.9614,-6.9615 z m 0,0.8562 -6.5319,6.5287 h 0.4234 l 6.1085,-6.1084 z m 0,0.8499 -5.6819,5.6788 h 0.4233 l 5.2586,-5.2585 z m 0,0.85 -4.8289,4.8288 h 0.4233 l 4.4056,-4.4054 z m 0,0.8468 -3.9821,3.982 h 0.4234 l 3.5587,-3.5586 z m 0,0.8126 -3.1727,3.1693 h 0.4235 l 2.7492,-2.7459 z m 0,0.8437 -2.3257,2.3257 h 0.4203 l 1.9054,-1.9023 z m 0,0.8562 -1.4728,1.4695 h 0.4236 l 1.0492,-1.0461 z m 0,0.8437 -0.6258,0.6258 h 0.4233 l 0.2029,-0.2023 z" />
    <path
       id="path4608-66-2"
       sodipodi:nodetypes="ccccccccccccccccccccccccccccccccccccccccccccccccccccccccccccccccccccccccccccccccccccccccccccccccccccccccccccccccccccccccccccccc"
       style="color:#000000;text-indent:0;text-transform:none;fill:#000000;stroke-width:0.0996275"
       inkscape:connector-curvature="0"
       d="m -5265.2656,1660.6928 -0.1465,0.1462 v 0.4234 l 0.5698,-0.5697 z m 0.853,0 -0.9993,0.9993 v 0.4234 l 1.4228,-1.4227 z m 0.8501,0 -1.8494,1.8492 v 0.4203 l 2.2697,-2.2695 z m 0.8529,0 -2.7023,2.7023 v 0.4235 l 3.1259,-3.1258 z m 0.847,0 -3.5493,3.5492 v 0.4203 l 3.9725,-3.9695 z m 0.853,0 -4.4025,4.4023 v 0.4234 l 4.826,-4.8257 z m 0.8467,0 -5.2492,5.2491 v 0.4234 l 5.6696,-5.6725 z m 0.8532,0 -6.1022,6.1021 v 0.4234 l 6.5255,-6.5255 z m 0.8499,0 -6.9521,6.9521 v 0.4234 l 7.3756,-7.3755 z m 0.8562,0 -7.8083,7.8052 v 0.4234 l 8.2286,-8.2286 z m 0.85,0 -8.6583,8.6582 v 0.4203 l 9.0786,-9.0785 z m 0.8499,0 -9.5084,9.5082 v 0.3113 h 0.113 l 9.8195,-9.8194 z m 0.8498,0 -9.8225,9.8194 h 0.4234 l 9.8195,-9.8194 z m 0.7723,0 -9.8195,9.8194 h 0.4201 l 9.5147,-9.5113 v -0.3082 z m 0.1151,0.7316 -9.091,9.0879 h 0.4235 l 8.6675,-8.6676 z m 0,0.853 -8.2348,8.2348 h 0.4203 l 7.8147,-7.8113 z m 0,0.85 -7.385,7.3848 h 0.4235 l 6.9615,-6.9614 z m 0,0.8562 -6.5317,6.5286 h 0.4234 l 6.1083,-6.1083 z m 0,0.8499 -5.6819,5.6787 h 0.4235 l 5.2584,-5.2584 z m 0,0.8499 -4.8289,4.8289 h 0.4235 l 4.4054,-4.4054 z m 0,0.8469 -3.982,3.982 h 0.4235 l 3.5585,-3.5586 z m 0,0.8125 -3.1725,3.1694 h 0.4235 l 2.749,-2.7459 z m 0,0.8438 -2.3258,2.3257 h 0.4204 l 1.9054,-1.9023 z m 0,0.8562 -1.4726,1.4694 h 0.4235 l 1.0491,-1.046 z m 0,0.8437 -0.6258,0.6257 h 0.4235 l 0.2029,-0.2023 z" />
    <path
       id="path4608-54-8"
       sodipodi:nodetypes="ccccccccccccccccccccccccccccccccccccccccccccccccccccccccccccccccccccccccccccccccccccccccccccccccccccccccccccccccccccccccccccccc"
       style="color:#000000;text-indent:0;text-transform:none;fill:#000000;stroke-width:0.0996275"
       inkscape:connector-curvature="0"
       d="m -5251.0508,1660.5353 -0.1464,0.1463 v 0.4234 l 0.5696,-0.5698 z m 0.8532,0 -0.9995,0.9994 v 0.4234 l 1.4228,-1.4228 z m 0.8499,0 -1.8494,1.8493 v 0.4203 l 2.2697,-2.2696 z m 0.853,0 -2.7024,2.7024 v 0.4234 l 3.1259,-3.1258 z m 0.8469,0 -3.5493,3.5493 v 0.4203 l 3.9726,-3.9696 z m 0.853,0 -4.4023,4.4024 v 0.4234 l 4.8258,-4.8258 z m 0.8467,0 -5.249,5.2492 v 0.4234 l 5.6694,-5.6726 z m 0.8532,0 -6.1022,6.1022 v 0.4234 l 6.5257,-6.5256 z m 0.8499,0 -6.9521,6.9521 v 0.4235 l 7.3756,-7.3756 z m 0.8562,0 -7.8083,7.8053 v 0.4234 l 8.2286,-8.2287 z m 0.85,0 -8.6583,8.6583 v 0.4203 l 9.0786,-9.0786 z m 0.8499,0 -9.5082,9.5083 v 0.3113 h 0.111 l 9.8196,-9.8195 z m 0.8498,0 -9.8225,9.8195 h 0.4234 l 9.8195,-9.8195 z m 0.7723,0 -9.8194,9.8195 h 0.4203 l 9.5144,-9.5113 v -0.3083 z m 0.1151,0.7317 -9.091,9.0879 h 0.4235 l 8.6675,-8.6676 z m 0,0.853 -8.2348,8.2348 h 0.4203 l 7.8147,-7.8114 z m 0,0.85 -7.3848,7.3848 h 0.4233 l 6.9615,-6.9614 z m 0,0.8561 -6.5318,6.5287 h 0.4235 l 6.1083,-6.1083 z m 0,0.85 -5.6817,5.6787 h 0.4233 l 5.2584,-5.2584 z m 0,0.8499 -4.8287,4.8289 h 0.4233 l 4.4054,-4.4055 z m 0,0.8469 -3.982,3.982 h 0.4235 l 3.5585,-3.5586 z m 0,0.8126 -3.1725,3.1693 h 0.4235 l 2.749,-2.7459 z m 0,0.8437 -2.3255,2.3257 h 0.4201 l 1.9054,-1.9023 z m 0,0.8562 -1.4725,1.4694 h 0.4234 l 1.0491,-1.0461 z m 0,0.8437 -0.6258,0.6257 h 0.4235 l 0.2029,-0.2023 z" />
    <path
       id="path4608-3-1"
       sodipodi:nodetypes="ccccccccccccccccccccccccccccccccccccccccccccccccccccccccccccccccccccccccccccccccccccccccccccccccccccccccccccccccccccccccccccccc"
       style="color:#000000;text-indent:0;text-transform:none;fill:#000000;stroke-width:0.0996275"
       inkscape:connector-curvature="0"
       d="m -5236.1297,1660.5353 -0.1464,0.1463 v 0.4234 l 0.5697,-0.5698 z m 0.8533,0 -0.9995,0.9994 v 0.4234 l 1.4229,-1.4228 z m 0.8498,0 -1.8493,1.8493 v 0.4203 l 2.2697,-2.2696 z m 0.853,0 -2.7023,2.7024 v 0.4234 l 3.1258,-3.1258 z m 0.847,0 -3.5493,3.5493 v 0.4203 l 3.9728,-3.9696 z m 0.8529,0 -4.4022,4.4024 v 0.4234 l 4.8257,-4.8258 z m 0.847,0 -5.2492,5.2492 v 0.4234 l 5.6693,-5.6726 z m 0.853,0 -6.1022,6.1022 v 0.4234 l 6.5257,-6.5256 z m 0.8499,0 -6.9521,6.9521 v 0.4235 l 7.3755,-7.3756 z m 0.8563,0 -7.8084,7.8053 v 0.4234 l 8.2288,-8.2287 z m 0.8499,0 -8.6583,8.6583 v 0.4203 l 9.0786,-9.0786 z m 0.8499,0 -9.5082,9.5083 v 0.3113 h 0.113 l 9.8194,-9.8195 z m 0.8501,0 -9.8229,9.8195 h 0.4234 l 9.8195,-9.8195 z m 0.772,0 -9.8195,9.8195 h 0.4203 l 9.5144,-9.5113 v -0.3083 z m 0.115,0.7317 -9.0911,9.0879 h 0.4234 l 8.6677,-8.6676 z m 0,0.853 -8.2348,8.2348 h 0.4204 l 7.8144,-7.8114 z m 0,0.85 -7.3849,7.3848 h 0.4235 l 6.9614,-6.9614 z m 0,0.8561 -6.5317,6.5287 h 0.4233 l 6.1084,-6.1083 z m 0,0.85 -5.6819,5.6787 h 0.4236 l 5.2583,-5.2584 z m 0,0.8499 -4.8289,4.8289 h 0.4236 l 4.4053,-4.4055 z m 0,0.8469 -3.9821,3.982 h 0.4234 l 3.5587,-3.5586 z m 0,0.8126 -3.1727,3.1693 h 0.4236 l 2.7491,-2.7459 z m 0,0.8437 -2.3257,2.3257 h 0.4203 l 1.9054,-1.9023 z m 0,0.8562 -1.4727,1.4694 h 0.4235 l 1.0492,-1.0461 z m 0,0.8437 -0.6258,0.6257 h 0.4235 l 0.2029,-0.2023 z" />
  </g>
  <rect
     style="fill:none;stroke:#000000;stroke-width:0.854;stroke-linecap:round;stroke-miterlimit:4;stroke-dasharray:none"
     id="rect865-3-9-9"
     width="203.28737"
     height="61.613087"
     x="381.52841"
     y="388.71545" />
  <text
     xml:space="preserve"
     style="font-style:normal;font-weight:normal;font-size:21.3333px;line-height:1.25;font-family:sans-serif;fill:#000000;fill-opacity:1;stroke:none"
     x="425.43515"
     y="411.55164"
     id="text884-11"><tspan
       sodipodi:role="line"
       id="tspan882-4"
       x="425.43515"
       y="411.55164"
       style="font-style:normal;font-variant:normal;font-weight:bold;font-stretch:normal;font-size:21.3333px;font-family:Arial;-inkscape-font-specification:'Arial Bold'">Preventive</tspan></text>
  <text
     xml:space="preserve"
     style="font-style:normal;font-weight:normal;font-size:18.6667px;line-height:1.25;font-family:sans-serif;fill:#000000;fill-opacity:1;stroke:none"
     x="409.72275"
     y="438.83435"
     id="text884-1-4"><tspan
       sodipodi:role="line"
       id="tspan882-0-1"
       x="409.72275"
       y="438.83435"
       style="font-style:normal;font-variant:normal;font-weight:normal;font-stretch:normal;font-size:18.6667px;font-family:Arial;-inkscape-font-specification:'Arial Italic'">Repair regularly</tspan></text>
  <text
     xml:space="preserve"
     style="font-style:normal;font-weight:normal;font-size:18.6667px;line-height:1.25;font-family:sans-serif;fill:#000000;fill-opacity:1;stroke:none"
     x="373.64072"
     y="491.34259"
     id="text884-1-9-8"><tspan
       sodipodi:role="line"
       id="tspan882-0-4-5"
       x="373.64072"
       y="491.34259"
       style="font-style:italic;font-variant:normal;font-weight:normal;font-stretch:normal;font-size:18.6667px;font-family:Arial;-inkscape-font-specification:Arial">Machine is regularly </tspan><tspan
       sodipodi:role="line"
       x="373.64072"
       y="514.97443"
       style="font-style:italic;font-variant:normal;font-weight:normal;font-stretch:normal;font-size:18.6667px;font-family:Arial;-inkscape-font-specification:Arial"
       id="tspan972">stopped for scheduled</tspan><tspan
       sodipodi:role="line"
       x="373.64072"
       y="538.60626"
       style="font-style:italic;font-variant:normal;font-weight:normal;font-stretch:normal;font-size:18.6667px;font-family:Arial;-inkscape-font-specification:Arial"
       id="tspan974">maintenance activities</tspan></text>
  <rect
     style="fill:#6f77eb;stroke:#000000;stroke-width:0.792135;stroke-linecap:round;fill-opacity:1;opacity:0.5"
     id="rect865-3-9-5"
     width="248.50674"
     height="491.66159"
     x="618.25201"
     y="60.457325" />
  <g
     inkscape:label="Layer 1"
     id="layer1"
     transform="matrix(0.16935889,0,0,0.16935889,551.48222,188.71746)">
    <path
       style="opacity:1;fill:#ffffff;fill-opacity:1;fill-rule:nonzero;stroke:none;stroke-width:0.31;stroke-linecap:round;stroke-linejoin:round;stroke-miterlimit:4;stroke-dasharray:none;stroke-dashoffset:0;stroke-opacity:1"
       d="m 351.5,105.88477 a 267.5,267.5 0 0 0 -267.5,267.5 267.5,267.5 0 0 0 267.5,267.5 267.5,267.5 0 0 0 267.5,-267.5 267.5,267.5 0 0 0 -267.5,-267.5 z"
       transform="translate(746.78084,81.194755)"
       id="path4369"
       inkscape:connector-curvature="0" />
    <path
       style="opacity:1;fill:#aa0000;fill-opacity:1;fill-rule:nonzero;stroke:none;stroke-width:0.31;stroke-linecap:round;stroke-linejoin:round;stroke-miterlimit:4;stroke-dasharray:none;stroke-dashoffset:0;stroke-opacity:1"
       d="m 351.5,105.88477 a 267.5,267.5 0 0 0 -267.5,267.5 267.5,267.5 0 0 0 267.5,267.5 267.5,267.5 0 0 0 267.5,-267.5 267.5,267.5 0 0 0 -267.5,-267.5 z m 0,66 a 201.5,201.5 0 0 1 201.5,201.5 201.5,201.5 0 0 1 -201.5,201.5 201.5,201.5 0 0 1 -201.5,-201.5 201.5,201.5 0 0 1 201.5,-201.5 z m 0,46 a 155.5,155.5 0 0 0 -155.5,155.5 155.5,155.5 0 0 0 155.5,155.5 155.5,155.5 0 0 0 155.5,-155.5 155.5,155.5 0 0 0 -155.5,-155.5 z m 0,59.39648 A 96.103027,96.103027 0 0 1 447.60352,373.38477 96.103027,96.103027 0 0 1 351.5,469.48828 96.103027,96.103027 0 0 1 255.39648,373.38477 96.103027,96.103027 0 0 1 351.5,277.28125 Z m 0,43.8418 A 52.262405,52.262405 0 0 0 299.23828,373.38477 52.262405,52.262405 0 0 0 351.5,425.64844 52.262405,52.262405 0 0 0 403.76172,373.38477 52.262405,52.262405 0 0 0 351.5,321.12305 Z"
       transform="translate(746.78084,81.194755)"
       id="path4267"
       inkscape:connector-curvature="0" />
    <path
       style="opacity:1;fill:#000000;fill-opacity:1;fill-rule:nonzero;stroke:none;stroke-width:0.31;stroke-linecap:round;stroke-linejoin:round;stroke-miterlimit:4;stroke-dasharray:none;stroke-dashoffset:0;stroke-opacity:1"
       d="m 798.58398,30.308594 -3.86914,2.398437 c -49.2371,31.24759 -99.75933,60.464449 -148.20703,92.949219 -8.3144,15.0778 -14.46494,31.65215 -23.99804,45.77344 -15.65415,9.53216 -31.30875,19.06354 -46.96289,28.5957 -25.30647,-32.82492 -57.6783,-60.16239 -94.89258,-78.7168 -38.93968,-19.97052 -82.53618,-31.075313 -126.3418,-31.228512 -1.41308,-0.0049 -2.82687,0.0016 -4.24023,0.01953 -112.57339,-0.87483 -221.73011,73.187512 -261.875004,178.486332 -34.69069,86.71141 -23.726303,190.81011 30.947264,266.96484 51.18781,73.56698 138.70704,121.10956 228.64844,121.16406 86.9493,1.31628 173.86824,-39.44607 226.83984,-108.71679 52.0132,-66.19164 72.81269,-156.21507 52.96289,-238.25977 -4.65317,-20.38321 -11.66546,-40.19149 -20.74023,-59.00976 16.07228,-9.94724 32.1445,-19.89457 48.2168,-29.8418 18.3499,-0.61767 37.0761,2.29596 55.1582,-1.72461 49.5925,-30.14123 99.18474,-60.28281 148.77734,-90.42383 -24.9994,-7.24561 -50.0001,-14.48664 -75,-21.73047 z m -19.69921,28.683594 -11.00977,57.927732 56.63867,16.40039 -121.55664,73.88086 -51.96484,-0.25781 -205.23828,127.02344 40.63867,45.89258 -136.77735,-6.05469 -0.2539,0.14843 0.0723,-0.15234 -0.16797,-0.004 0.24805,-0.16016 56.50195,-124.70703 22.53126,57.00586 206.15425,-125.53115 23.28906,-46.45313 z M 351.5,105.88477 a 267.5,267.5 0 0 1 210.41406,102.4414 c -42.1543,25.66869 -84.30855,51.33717 -126.46289,77.00586 -9.5078,-24.05663 -19.01554,-48.1133 -28.52344,-72.16992 -23.2709,49.91953 -44.73614,100.6834 -68.81054,150.22461 -10.3216,6.70648 -5.91094,26.30148 6.94336,26.39648 17.9508,-4.25898 36.36514,0.92953 54.68554,0.28516 39.6963,1.77188 79.40169,3.32224 119.08789,5.31641 -17.1887,-19.42225 -34.38321,-38.83948 -51.57421,-58.25977 41.95135,-25.96393 83.90219,-51.92865 125.85351,-77.89258 A 267.5,267.5 0 0 1 619,373.38477 a 267.5,267.5 0 0 1 -267.5,267.5 267.5,267.5 0 0 1 -267.5,-267.5 267.5,267.5 0 0 1 267.5,-267.5 z"
       transform="translate(746.78084,81.194755)"
       id="path4372"
       inkscape:connector-curvature="0" />
    <path
       sodipodi:nodetypes="ccccccccccccccccc"
       inkscape:connector-curvature="0"
       id="path4395"
       d="m 1525.6649,140.18705 -120.8943,74.95944 -23.2886,46.45311 -206.1548,125.53149 -22.5317,-57.00739 -56.5014,124.70812 -0.2482,0.15941 0.1695,0.004 -0.073,0.15283 0.2545,-0.14918 136.7767,6.05484 -40.6381,-45.89189 205.2382,-127.02453 51.9644,0.25769 121.5564,-73.88085 -56.6387,-16.39856 z"
       style="fill:#ffff00;fill-opacity:1" />
  </g>
  <rect
     style="fill:none;stroke:#000000;stroke-width:1.00085;stroke-linecap:round;stroke-miterlimit:4;stroke-dasharray:none"
     id="rect865-3-9-9-6-2"
     width="203.22693"
     height="84.649323"
     x="639.74152"
     y="341.77725" />
  <text
     xml:space="preserve"
     style="font-style:normal;font-weight:normal;font-size:21.3333px;line-height:1.25;font-family:sans-serif;fill:#000000;fill-opacity:1;stroke:none"
     x="688.09894"
     y="364.54044"
     id="text884-11-3"><tspan
       sodipodi:role="line"
       id="tspan882-4-6"
       x="688.09894"
       y="364.54044"
       style="font-style:normal;font-variant:normal;font-weight:bold;font-stretch:normal;font-size:21.3333px;font-family:Arial;-inkscape-font-specification:'Arial Bold'">Predictive</tspan></text>
  <text
     xml:space="preserve"
     style="font-style:normal;font-weight:normal;font-size:18.6667px;line-height:1.25;font-family:sans-serif;fill:#000000;fill-opacity:1;stroke:none"
     x="741.61652"
     y="391.82315"
     id="text884-1-4-3"><tspan
       sodipodi:role="line"
       id="tspan882-0-1-5"
       x="741.61652"
       y="391.82315"
       style="font-style:normal;font-variant:normal;font-weight:normal;font-stretch:normal;font-size:18.6667px;font-family:Arial;-inkscape-font-specification:'Arial Italic';text-align:center;text-anchor:middle">Repair when it </tspan><tspan
       sodipodi:role="line"
       x="741.61652"
       y="415.50034"
       style="font-style:normal;font-variant:normal;font-weight:normal;font-stretch:normal;font-size:18.6667px;font-family:Arial;-inkscape-font-specification:'Arial Italic';text-align:center;text-anchor:middle"
       id="tspan1054">is about to break</tspan></text>
  <text
     xml:space="preserve"
     style="font-style:normal;font-weight:normal;font-size:18.6667px;line-height:1.25;font-family:sans-serif;fill:#000000;fill-opacity:1;stroke:none"
     x="624.00201"
     y="471.67499"
     id="text884-1-9-8-9"><tspan
       sodipodi:role="line"
       x="624.00201"
       y="471.67499"
       style="font-style:italic;font-variant:normal;font-weight:normal;font-stretch:normal;font-size:18.6667px;font-family:Arial;-inkscape-font-specification:Arial"
       id="tspan974-5">Machine is constantly</tspan><tspan
       sodipodi:role="line"
       x="624.00201"
       y="495.30682"
       style="font-style:italic;font-variant:normal;font-weight:normal;font-stretch:normal;font-size:18.6667px;font-family:Arial;-inkscape-font-specification:Arial"
       id="tspan1065">monitored so that it is </tspan><tspan
       sodipodi:role="line"
       x="624.00201"
       y="518.93866"
       style="font-style:italic;font-variant:normal;font-weight:normal;font-stretch:normal;font-size:18.6667px;font-family:Arial;-inkscape-font-specification:Arial"
       id="tspan1067">stopped for maintenance </tspan><tspan
       sodipodi:role="line"
       x="624.00201"
       y="542.5705"
       style="font-style:italic;font-variant:normal;font-weight:normal;font-stretch:normal;font-size:18.6667px;font-family:Arial;-inkscape-font-specification:Arial"
       id="tspan1069">only when failure is imminent</tspan></text>
  <path
     id="rect1079"
     style="fill:#dcc2c2;stroke:#000000;stroke-width:2.23962;stroke-linecap:round;fill-opacity:1"
     d="M 61.49663,2.4317642 1.8424304,117.42596 H 38.57513 v 433.9785 h 45.8457 v -433.9785 h 36.7326 z" />
  <text
     xml:space="preserve"
     style="font-style:normal;font-weight:normal;font-size:40px;line-height:1.25;font-family:sans-serif;fill:#000000;fill-opacity:1;stroke:none"
     x="-339.70026"
     y="73.984947"
     id="text1133"
     transform="rotate(-90)"
     inkscape:transform-center-x="128.54175"
     inkscape:transform-center-y="-16.710428"><tspan
       sodipodi:role="line"
       id="tspan1131"
       x="-339.70026"
       y="73.984947"
       style="font-style:normal;font-variant:normal;font-weight:normal;font-stretch:normal;font-family:Arial;-inkscape-font-specification:Arial">OEE</tspan></text>
</svg>
